<svg xmlns="http://www.w3.org/2000/svg" width="61" height="61" viewBox="0 0 61 61" fill="none">
<path d="M28.9655 1.09493C26.7733 1.22878 24.6477 1.60427 22.6145 2.19487C10.3534 5.75649 1.45508 17.141 1.60635 30.5317C1.70531 39.2916 5.65668 47.1057 11.832 52.382C12.8608 53.261 13.9513 54.0695 15.096 54.8003M46.3586 5.5539C47.8049 6.47068 49.1654 7.51139 50.4249 8.66128C56.184 13.9192 59.8324 21.4599 59.9274 29.8729C60.0781 43.2092 51.2524 54.5556 39.0684 58.166C37.0337 58.7689 34.9054 59.156 32.7096 59.3007" stroke="#CBA3FF" stroke-width="2" stroke-linecap="round"/>
<path d="M27.253 38.192C27.493 37.2684 26.796 36.367 25.8417 36.367H13.3257C12.0946 36.367 11.4176 34.9357 12.1985 33.984L35.7883 5.23375C36.7799 4.02529 38.7201 5.01262 38.3268 6.52551L34.2794 22.095C34.0393 23.0185 34.7363 23.9199 35.6906 23.9199H48.2066C49.4377 23.9199 50.1147 25.3513 49.3338 26.303L25.744 55.0532C24.7524 56.2616 22.8122 55.2743 23.2055 53.7614L27.253 38.192Z" stroke="#7B3ACE" stroke-width="1.45812"/>
<path d="M25.8417 37.692C25.9289 37.692 25.9925 37.7743 25.9706 37.8586L21.9232 53.428C21.1725 56.3157 24.8757 58.2002 26.7683 55.8936L50.3582 27.1434C51.8486 25.3269 50.5563 22.5949 48.2066 22.5949H35.6906C35.6035 22.5949 35.5398 22.5126 35.5617 22.4283L39.6092 6.85888C40.3598 3.97121 36.6566 2.08669 34.764 4.39328L11.1741 33.1435C9.68367 34.96 10.976 37.692 13.3257 37.692H25.8417Z" stroke="#7B3ACE" stroke-width="2.65"/>
</svg>