<svg xmlns="http://www.w3.org/2000/svg" width="63" height="55" viewBox="0 0 63 55" fill="none">
<path d="M11.1438 32.7444C10.7213 32.1028 10.4014 31.5644 10.1829 31.1777C10.4014 30.791 10.7213 30.2526 11.1438 29.611C12.0464 28.2401 13.4086 26.4119 15.2407 24.5872C18.9074 20.9355 24.375 17.3711 31.7861 17.3711C39.1973 17.3711 44.6649 20.9355 48.3315 24.5872C50.1637 26.4119 51.5258 28.2401 52.4285 29.611C52.851 30.2526 53.1708 30.791 53.3893 31.1777C53.1708 31.5644 52.851 32.1028 52.4285 32.7444C51.5258 34.1152 50.1637 35.9435 48.3315 37.7681C44.6649 41.4199 39.1973 44.9843 31.7861 44.9843C24.375 44.9843 18.9074 41.4199 15.2407 37.7681C13.4086 35.9435 12.0464 34.1152 11.1438 32.7444Z" stroke="#7B3ACE" stroke-width="3"/>
<circle cx="31.7859" cy="27.5253" r="10.1541" stroke="#7B3ACE" stroke-width="3"/>
<circle cx="31.7721" cy="27.5396" r="3.34143" stroke="#7B3ACE" stroke-width="3"/>
<path d="M8.86785 39.8792L2.02716 51.7276C1.64226 52.3943 2.12339 53.2276 2.89319 53.2276H60.6389C61.4087 53.2276 61.8898 52.3943 61.5049 51.7276L54.6642 39.8792M24.1004 12.9216L30.8885 1.67261C31.2823 1.01998 32.2323 1.03026 32.6119 1.69126L39.0612 12.9216" stroke="#CBA3FF" stroke-width="2" stroke-linecap="round"/>
</svg>