<svg width="166" height="66" viewBox="0 0 166 66" fill="none" xmlns="http://www.w3.org/2000/svg">
<g clip-path="url(#clip0_1_132)" filter="url(#filter0_d_1_132)">
<path d="M148.774 53.6671H16.8841C14.1437 53.6671 11.9131 51.4739 11.9131 48.7891V17.3126C11.9131 14.6268 14.1437 12.4419 16.8841 12.4419H148.774C151.513 12.4419 153.823 14.6268 153.823 17.3126V48.7891C153.823 51.4739 151.513 53.6671 148.774 53.6671Z" fill="#2F1931"/>
<path d="M152.806 48.7901C152.806 50.971 151.004 52.7374 148.775 52.7374H16.8844C14.6569 52.7374 12.8489 50.971 12.8489 48.7901V17.3116C12.8489 15.1318 14.6569 13.3591 16.8844 13.3591H148.774C151.004 13.3591 152.805 15.1318 152.805 17.3116L152.806 48.7901Z" fill="#2F1931"/>
<path d="M43.5828 32.8318C43.5523 29.5101 46.3569 27.8941 46.4851 27.8189C44.8968 25.5484 42.4349 25.2382 41.5698 25.2134C39.5021 25.0001 37.4964 26.4265 36.4432 26.4265C35.3688 26.4265 33.7469 25.234 31.9988 25.2691C29.7492 25.3031 27.6447 26.58 26.4905 28.563C24.1086 32.6061 25.8851 38.5477 28.1672 41.8158C29.3088 43.4164 30.6427 45.2035 32.3887 45.1407C34.0969 45.0716 34.735 44.0729 36.7964 44.0729C38.8388 44.0729 39.438 45.1407 41.2187 45.1005C43.052 45.0716 44.2062 43.4927 45.3078 41.8777C46.627 40.0432 47.1568 38.2365 47.1778 38.1437C47.1348 38.1293 43.6175 36.8132 43.5828 32.8318Z" fill="white"/>
<path d="M40.2184 23.0635C41.1371 21.937 41.7657 20.4045 41.5912 18.8493C40.2615 18.907 38.5985 19.7511 37.6409 20.8528C36.7936 21.8237 36.0368 23.415 36.2323 24.9114C37.726 25.0207 39.2597 24.1725 40.2184 23.0635Z" fill="white"/>
<path d="M68.3032 44.9108H65.916L64.6083 40.8821H60.063L58.8173 44.9108H56.4932L60.9964 31.1952H63.7779L68.3032 44.9108ZM64.2141 39.1919L63.0315 35.6104C62.9064 35.2445 62.672 34.3829 62.3262 33.0266H62.2841C62.1464 33.61 61.9246 34.4716 61.6198 35.6104L60.4582 39.1919H64.2141Z" fill="white"/>
<path d="M79.8839 39.8443C79.8839 41.5262 79.4203 42.8558 78.4932 43.8318C77.6628 44.7006 76.6315 45.1345 75.4006 45.1345C74.0719 45.1345 73.1174 44.6666 72.5361 43.7308H72.4941V48.9406H70.253V38.2767C70.253 37.2192 70.2246 36.134 70.1699 35.0209H72.1409L72.266 36.5885H72.308C73.0554 35.4074 74.1896 34.8179 75.7118 34.8179C76.9017 34.8179 77.8951 35.2786 78.6898 36.201C79.4866 37.1244 79.8839 38.3385 79.8839 39.8443ZM77.6007 39.9246C77.6007 38.962 77.38 38.1685 76.9364 37.5439C76.4518 36.8925 75.8011 36.5669 74.9854 36.5669C74.4325 36.5669 73.93 36.7482 73.4811 37.1059C73.0312 37.4666 72.7369 37.9376 72.5992 38.5209C72.5298 38.793 72.4951 39.0156 72.4951 39.1908V40.8398C72.4951 41.5592 72.7201 42.1663 73.17 42.662C73.6199 43.1577 74.2044 43.4051 74.9234 43.4051C75.7675 43.4051 76.4245 43.0856 76.8943 42.4487C77.3653 41.8107 77.6007 40.9697 77.6007 39.9246Z" fill="white"/>
<path d="M91.4864 39.8443C91.4864 41.5262 91.0228 42.8558 90.0946 43.8318C89.2652 44.7006 88.234 45.1345 87.0031 45.1345C85.6744 45.1345 84.7199 44.6666 84.1397 43.7308H84.0976V48.9406H81.8565V38.2767C81.8565 37.2192 81.8281 36.134 81.7734 35.0209H83.7444L83.8695 36.5885H83.9115C84.6579 35.4074 85.7921 34.8179 87.3153 34.8179C88.5042 34.8179 89.4975 35.2786 90.2943 36.201C91.088 37.1244 91.4864 38.3385 91.4864 39.8443ZM89.2032 39.9246C89.2032 38.962 88.9814 38.1685 88.5378 37.5439C88.0532 36.8925 87.4046 36.5669 86.5879 36.5669C86.0339 36.5669 85.5325 36.7482 85.0826 37.1059C84.6327 37.4666 84.3394 37.9376 84.2017 38.5209C84.1333 38.793 84.0976 39.0156 84.0976 39.1908V40.8398C84.0976 41.5592 84.3226 42.1663 84.7704 42.662C85.2203 43.1567 85.8047 43.4051 86.5258 43.4051C87.3699 43.4051 88.0269 43.0856 88.4968 42.4487C88.9677 41.8107 89.2032 40.9697 89.2032 39.9246Z" fill="white"/>
<path d="M104.458 41.0646C104.458 42.2313 104.045 43.1805 103.215 43.9132C102.304 44.714 101.035 45.1139 99.4048 45.1139C97.8995 45.1139 96.6928 44.8295 95.7793 44.2595L96.2986 42.4281C97.2825 43.0114 98.3621 43.3041 99.5383 43.3041C100.382 43.3041 101.039 43.1166 101.511 42.7435C101.981 42.3704 102.216 41.8695 102.216 41.2449C102.216 40.6884 102.022 40.2195 101.634 39.8392C101.249 39.4589 100.604 39.1054 99.7044 38.7786C97.2552 37.883 96.0316 36.571 96.0316 34.8458C96.0316 33.7183 96.4605 32.7938 97.3193 32.0744C98.1749 31.354 99.3165 30.9943 100.744 30.9943C102.017 30.9943 103.075 31.2118 103.919 31.6457L103.358 33.4369C102.57 33.0164 101.679 32.8061 100.681 32.8061C99.8926 32.8061 99.2766 32.9968 98.8351 33.3761C98.4619 33.7152 98.2748 34.1284 98.2748 34.618C98.2748 35.1601 98.4882 35.6084 98.9171 35.9609C99.2903 36.2866 99.9683 36.6391 100.952 37.0194C102.156 37.4945 103.04 38.05 103.609 38.6869C104.175 39.3218 104.458 40.1164 104.458 41.0646Z" fill="white"/>
<path d="M111.868 36.67H109.398V41.4717C109.398 42.693 109.833 43.3031 110.705 43.3031C111.106 43.3031 111.438 43.2691 111.701 43.2011L111.763 44.8697C111.321 45.0315 110.74 45.1129 110.02 45.1129C109.135 45.1129 108.443 44.848 107.944 44.3193C107.447 43.7896 107.197 42.9012 107.197 41.6531V36.6679H105.725V35.0189H107.197V33.2081L109.398 32.5567V35.0189H111.868V36.67Z" fill="white"/>
<path d="M123.013 39.8844C123.013 41.4046 122.569 42.6527 121.684 43.6287C120.756 44.6336 119.524 45.1345 117.988 45.1345C116.508 45.1345 115.33 44.6532 114.451 43.6905C113.572 42.7279 113.133 41.5128 113.133 40.0483C113.133 38.5157 113.585 37.2604 114.492 36.2844C115.397 35.3074 116.619 34.8189 118.154 34.8189C119.634 34.8189 120.825 35.3002 121.724 36.2638C122.584 37.1986 123.013 38.4055 123.013 39.8844ZM120.688 39.9555C120.688 39.0434 120.489 38.2612 120.086 37.6088C119.617 36.8193 118.945 36.4256 118.074 36.4256C117.174 36.4256 116.489 36.8204 116.019 37.6088C115.617 38.2622 115.418 39.0568 115.418 39.9968C115.418 40.9089 115.617 41.6911 116.019 42.3425C116.504 43.1319 117.181 43.5256 118.054 43.5256C118.91 43.5256 119.582 43.1237 120.066 42.3219C120.48 41.6571 120.688 40.8666 120.688 39.9555Z" fill="white"/>
<path d="M130.298 36.9533C130.076 36.9131 129.84 36.8925 129.592 36.8925C128.803 36.8925 128.194 37.1842 127.765 37.7686C127.392 38.2839 127.205 38.9352 127.205 39.7216V44.9108H124.964L124.985 38.1355C124.985 36.9956 124.957 35.9577 124.901 35.0219H126.853L126.935 36.9142H126.997C127.234 36.2638 127.607 35.7403 128.118 35.3476C128.617 34.9941 129.157 34.8179 129.738 34.8179C129.945 34.8179 130.132 34.8323 130.298 34.8581V36.9533Z" fill="white"/>
<path d="M140.321 39.498C140.321 39.8917 140.295 40.2236 140.239 40.4946H133.516C133.542 41.4716 133.867 42.2189 134.491 42.7342C135.058 43.1949 135.79 43.4257 136.69 43.4257C137.686 43.4257 138.594 43.2701 139.411 42.9578L139.762 44.4831C138.807 44.8913 137.68 45.0943 136.38 45.0943C134.816 45.0943 133.588 44.6429 132.695 43.7411C131.803 42.8393 131.356 41.6283 131.356 40.1092C131.356 38.6178 131.772 37.3759 132.603 36.3855C133.474 35.3281 134.65 34.7993 136.13 34.7993C137.584 34.7993 138.684 35.3281 139.432 36.3855C140.023 37.2254 140.321 38.2643 140.321 39.498ZM138.184 38.928C138.199 38.2767 138.052 37.714 137.749 37.2388C137.361 36.6277 136.765 36.3226 135.963 36.3226C135.23 36.3226 134.634 36.6205 134.179 37.2182C133.806 37.6934 133.584 38.2633 133.516 38.927L138.184 38.928Z" fill="white"/>
<path d="M63.4733 22.7575C63.4733 23.9705 63.1022 24.8837 62.3611 25.4969C61.6747 26.0627 60.6992 26.3461 59.4357 26.3461C58.8092 26.3461 58.2731 26.3193 57.8242 26.2657V19.6378C58.4097 19.545 59.0404 19.4976 59.7216 19.4976C60.9252 19.4976 61.8324 19.7542 62.4442 20.2675C63.1295 20.8477 63.4733 21.6774 63.4733 22.7575ZM62.3117 22.7874C62.3117 22.001 62.0994 21.3981 61.6747 20.9776C61.25 20.5581 60.6298 20.3479 59.8131 20.3479C59.4662 20.3479 59.1708 20.3705 58.9259 20.4179V25.4567C59.0615 25.4773 59.3095 25.4866 59.6701 25.4866C60.5131 25.4866 61.1638 25.2568 61.6221 24.7971C62.0805 24.3374 62.3117 23.6675 62.3117 22.7874Z" fill="white"/>
<path d="M69.6326 23.8169C69.6326 24.5641 69.415 25.1763 68.9798 25.6566C68.5236 26.1503 67.9192 26.3966 67.1644 26.3966C66.437 26.3966 65.8578 26.1606 65.4258 25.6865C64.9948 25.2134 64.7793 24.6167 64.7793 23.8973C64.7793 23.1449 65.0011 22.5276 65.4468 22.0484C65.8925 21.5691 66.4917 21.329 67.2464 21.329C67.9738 21.329 68.5583 21.565 69.0009 22.0381C69.4213 22.4977 69.6326 23.0914 69.6326 23.8169ZM68.49 23.852C68.49 23.4036 68.3912 23.0192 68.1946 22.6987C67.9633 22.3112 67.6343 22.1174 67.2065 22.1174C66.7639 22.1174 66.4276 22.3112 66.1963 22.6987C65.9987 23.0192 65.9009 23.4098 65.9009 23.8715C65.9009 24.3199 65.9997 24.7043 66.1963 25.0248C66.4349 25.4123 66.7671 25.6061 67.196 25.6061C67.6164 25.6061 67.9465 25.4092 68.1841 25.0145C68.388 24.6878 68.49 24.3003 68.49 23.852Z" fill="white"/>
<path d="M77.8905 21.4279L76.34 26.2863H75.3309L74.6886 24.1766C74.5257 23.65 74.3932 23.1264 74.2902 22.607H74.2702C74.1746 23.1409 74.0421 23.6634 73.8718 24.1766L73.1896 26.2863H72.1689L70.7109 21.4279H71.8431L72.4033 23.7376C72.5389 24.2838 72.6504 24.8043 72.7397 25.2969H72.7597C72.8417 24.8909 72.9773 24.3735 73.1686 23.7479L73.8718 21.429H74.7696L75.4434 23.6984C75.6063 24.2519 75.7387 24.7847 75.8407 25.298H75.8712C75.9458 24.7981 76.0583 24.2653 76.2076 23.6984L76.8089 21.429H77.8905V21.4279Z" fill="white"/>
<path d="M83.6013 26.2864H82.4997V23.5036C82.4997 22.6462 82.1675 22.2174 81.501 22.2174C81.1741 22.2174 80.9103 22.3349 80.7053 22.5709C80.5024 22.8069 80.3994 23.0852 80.3994 23.4037V26.2853H79.2978V22.8162C79.2978 22.3895 79.2841 21.9268 79.2578 21.4259H80.226L80.2775 22.1855H80.3079C80.4362 21.9495 80.6275 21.7547 80.8787 21.599C81.1773 21.4177 81.5115 21.3259 81.8774 21.3259C82.3399 21.3259 82.7246 21.4723 83.0305 21.766C83.411 22.1257 83.6013 22.6627 83.6013 23.3759V26.2864Z" fill="white"/>
<path d="M86.6396 26.2863H85.5391V19.1987H86.6396V26.2863Z" fill="white"/>
<path d="M93.1248 23.817C93.1248 24.5642 92.9072 25.1764 92.472 25.6566C92.0158 26.1503 91.4103 26.3966 90.6566 26.3966C89.9282 26.3966 89.3489 26.1606 88.918 25.6865C88.487 25.2135 88.2715 24.6167 88.2715 23.8973C88.2715 23.145 88.4933 22.5276 88.939 22.0484C89.3847 21.5691 89.9839 21.329 90.7376 21.329C91.466 21.329 92.0494 21.565 92.493 22.0381C92.9135 22.4977 93.1248 23.0914 93.1248 23.817ZM91.9811 23.852C91.9811 23.4037 91.8823 23.0192 91.6857 22.6987C91.4555 22.3112 91.1254 22.1174 90.6987 22.1174C90.2551 22.1174 89.9187 22.3112 89.6885 22.6987C89.4909 23.0192 89.3931 23.4099 89.3931 23.8716C89.3931 24.3199 89.4919 24.7043 89.6885 25.0248C89.9271 25.4124 90.2593 25.6061 90.6882 25.6061C91.1086 25.6061 91.4376 25.4093 91.6752 25.0145C91.8802 24.6878 91.9811 24.3003 91.9811 23.852Z" fill="white"/>
<path d="M98.4568 26.2863H97.4676L97.3856 25.7267H97.3551C97.0166 26.1729 96.5341 26.3966 95.9076 26.3966C95.4399 26.3966 95.0614 26.2492 94.7766 25.9565C94.518 25.6906 94.3887 25.3598 94.3887 24.9671C94.3887 24.3735 94.641 23.921 95.1487 23.6077C95.6553 23.2944 96.3681 23.1408 97.2857 23.148V23.0573C97.2857 22.4173 96.943 22.0978 96.2566 22.0978C95.7678 22.0978 95.3368 22.2184 94.9647 22.4575L94.7408 21.7484C95.2012 21.4691 95.7699 21.329 96.4406 21.329C97.7356 21.329 98.3853 21.9989 98.3853 23.3387V25.1279C98.3853 25.6133 98.4095 25.9998 98.4568 26.2863ZM97.3131 24.6167V23.8674C96.0979 23.8468 95.4903 24.1735 95.4903 24.8465C95.4903 25.1001 95.5597 25.2897 95.7016 25.4165C95.8435 25.5432 96.0243 25.6061 96.2398 25.6061C96.4816 25.6061 96.7076 25.5309 96.9136 25.3814C97.1207 25.2309 97.2479 25.0403 97.2952 24.8063C97.3068 24.7538 97.3131 24.6899 97.3131 24.6167Z" fill="white"/>
<path d="M104.717 26.2863H103.739L103.688 25.5062H103.657C103.345 26.0998 102.813 26.3966 102.066 26.3966C101.468 26.3966 100.971 26.1668 100.577 25.7071C100.183 25.2475 99.9863 24.6507 99.9863 23.918C99.9863 23.1316 100.2 22.4947 100.629 22.0082C101.044 21.5547 101.553 21.328 102.158 21.328C102.823 21.328 103.289 21.5475 103.554 21.9876H103.575V19.1987H104.678V24.9774C104.678 25.4505 104.69 25.8865 104.717 26.2863ZM103.575 24.2375V23.4274C103.575 23.2872 103.565 23.1738 103.545 23.0873C103.483 22.8275 103.349 22.6091 103.146 22.4328C102.941 22.2566 102.694 22.1679 102.409 22.1679C101.998 22.1679 101.677 22.3277 101.44 22.6482C101.206 22.9687 101.087 23.3779 101.087 23.8778C101.087 24.358 101.199 24.7476 101.425 25.0475C101.664 25.367 101.986 25.5268 102.388 25.5268C102.75 25.5268 103.039 25.3938 103.259 25.1269C103.471 24.8806 103.575 24.5837 103.575 24.2375Z" fill="white"/>
<path d="M114.138 23.8169C114.138 24.5641 113.921 25.1763 113.485 25.6566C113.029 26.1503 112.426 26.3966 111.67 26.3966C110.944 26.3966 110.364 26.1606 109.931 25.6865C109.5 25.2134 109.285 24.6167 109.285 23.8973C109.285 23.1449 109.507 22.5276 109.952 22.0484C110.398 21.5691 110.997 21.329 111.753 21.329C112.479 21.329 113.065 21.565 113.506 22.0381C113.927 22.4977 114.138 23.0914 114.138 23.8169ZM112.997 23.852C112.997 23.4036 112.898 23.0192 112.701 22.6987C112.469 22.3112 112.141 22.1174 111.712 22.1174C111.271 22.1174 110.934 22.3112 110.702 22.6987C110.504 23.0192 110.407 23.4098 110.407 23.8715C110.407 24.3199 110.505 24.7043 110.702 25.0248C110.941 25.4123 111.273 25.6061 111.702 25.6061C112.122 25.6061 112.453 25.4092 112.691 25.0145C112.894 24.6878 112.997 24.3003 112.997 23.852Z" fill="white"/>
<path d="M120.062 26.2864H118.962V23.5037C118.962 22.6462 118.629 22.2175 117.962 22.2175C117.635 22.2175 117.371 22.3349 117.167 22.571C116.963 22.807 116.861 23.0852 116.861 23.4037V26.2854H115.759V22.8162C115.759 22.3896 115.746 21.9268 115.72 21.4259H116.687L116.738 22.1855H116.769C116.898 21.9495 117.089 21.7547 117.34 21.5991C117.639 21.4177 117.972 21.326 118.339 21.326C118.801 21.326 119.185 21.4723 119.491 21.766C119.873 22.1257 120.062 22.6627 120.062 23.3759V26.2864Z" fill="white"/>
<path d="M127.476 22.237H126.263V24.5972C126.263 25.197 126.478 25.4969 126.905 25.4969C127.103 25.4969 127.267 25.4804 127.396 25.4464L127.424 26.2658C127.207 26.3461 126.921 26.3863 126.569 26.3863C126.134 26.3863 125.795 26.2565 125.55 25.9968C125.304 25.737 125.182 25.3001 125.182 24.6868V22.237H124.458V21.428H125.182V20.5375L126.262 20.218V21.4269H127.475L127.476 22.237Z" fill="white"/>
<path d="M133.307 26.2863H132.205V23.5243C132.205 22.6534 131.873 22.2174 131.207 22.2174C130.696 22.2174 130.347 22.4699 130.156 22.9749C130.123 23.0811 130.104 23.2109 130.104 23.3635V26.2853H129.004V19.1987H130.104V22.1267H130.126C130.472 21.5939 130.97 21.328 131.614 21.328C132.07 21.328 132.448 21.4743 132.747 21.7681C133.12 22.1339 133.307 22.6781 133.307 23.3975V26.2863Z" fill="white"/>
<path d="M139.323 23.6273C139.323 23.8211 139.309 23.9839 139.282 24.1169H135.978C135.993 24.5971 136.151 24.963 136.457 25.2165C136.736 25.4433 137.097 25.5567 137.538 25.5567C138.027 25.5567 138.473 25.4804 138.874 25.3268L139.047 26.0771C138.577 26.2771 138.024 26.377 137.384 26.377C136.616 26.377 136.012 26.1554 135.575 25.7123C135.135 25.2691 134.918 24.6744 134.918 23.9283C134.918 23.1955 135.121 22.5853 135.53 22.0989C135.956 21.5795 136.533 21.3197 137.262 21.3197C137.975 21.3197 138.516 21.5795 138.882 22.0989C139.177 22.5111 139.323 23.0213 139.323 23.6273ZM138.272 23.348C138.28 23.0275 138.208 22.7513 138.059 22.5184C137.867 22.2184 137.576 22.068 137.182 22.068C136.822 22.068 136.529 22.2143 136.305 22.508C136.122 22.742 136.014 23.0213 135.978 23.348H138.272Z" fill="white"/>
</g>
<defs>
<filter id="filter0_d_1_132" x="0.0211992" y="0.549977" width="165.694" height="65.009" filterUnits="userSpaceOnUse" color-interpolation-filters="sRGB">
<feFlood flood-opacity="0" result="BackgroundImageFix"/>
<feColorMatrix in="SourceAlpha" type="matrix" values="0 0 0 0 0 0 0 0 0 0 0 0 0 0 0 0 0 0 127 0" result="hardAlpha"/>
<feOffset/>
<feGaussianBlur stdDeviation="5.94594"/>
<feComposite in2="hardAlpha" operator="out"/>
<feColorMatrix type="matrix" values="0 0 0 0 1 0 0 0 0 1 0 0 0 0 1 0 0 0 0.5 0"/>
<feBlend mode="normal" in2="BackgroundImageFix" result="effect1_dropShadow_1_132"/>
<feBlend mode="normal" in="SourceGraphic" in2="effect1_dropShadow_1_132" result="shape"/>
</filter>
<clipPath id="clip0_1_132">
<rect width="141.91" height="41.2252" fill="white" transform="translate(11.9131 12.4419)"/>
</clipPath>
</defs>
</svg>
