<svg width="242" height="61" viewBox="0 0 242 61" fill="none" xmlns="http://www.w3.org/2000/svg">
<path d="M0.558594 12.9499C0.558594 5.81756 6.36043 0.0356445 13.5174 0.0356445H48.192C55.349 0.0356445 61.1508 5.81758 61.1508 12.95V47.5057C61.1508 54.638 55.349 60.42 48.192 60.42H13.5173C6.36042 60.42 0.558594 54.638 0.558594 47.5056V12.9499Z" fill="white"/>
<path d="M0.558594 12.9499C0.558594 5.81756 6.36043 0.0356445 13.5174 0.0356445H48.192C55.349 0.0356445 61.1508 5.81758 61.1508 12.95V47.5057C61.1508 54.638 55.349 60.42 48.192 60.42H13.5173C6.36042 60.42 0.558594 54.638 0.558594 47.5056V12.9499Z" fill="url(#paint0_linear_1_275)"/>
<ellipse cx="5.77586" cy="5.75595" rx="5.77586" ry="5.75595" transform="matrix(1 -8.40036e-08 -8.45848e-08 -1 40.0178 31.7773)" fill="#2F1931"/>
<ellipse cx="5.77586" cy="5.75595" rx="5.77586" ry="5.75595" transform="matrix(1 -8.36438e-08 -8.49486e-08 -1 10.1395 31.7773)" fill="#2F1931"/>
<path fill-rule="evenodd" clip-rule="evenodd" d="M30.8409 41.0337C35.1306 41.0387 39.1766 39.0254 42.3566 35.45C42.6179 35.1561 42.5747 34.7057 42.2711 34.4557L38.3522 31.227C38.0501 30.9782 37.6048 31.0224 37.3403 31.3109C35.2237 33.6199 32.9169 34.551 30.8484 34.5486C28.7786 34.5462 26.4752 33.6086 24.3683 31.3109C24.1038 31.0224 23.6585 30.9782 23.3564 31.227L19.4374 34.4557C19.1339 34.7057 19.0906 35.1561 19.352 35.45C22.5179 39.009 26.5541 41.0288 30.8409 41.0337Z" fill="#2F1931"/>
<path fill-rule="evenodd" clip-rule="evenodd" d="M30.8409 41.0337C35.1306 41.0387 39.1766 39.0254 42.3566 35.45C42.6179 35.1561 42.5747 34.7057 42.2711 34.4557L38.3522 31.227C38.0501 30.9782 37.6048 31.0224 37.3403 31.3109C35.2237 33.6199 32.9169 34.551 30.8484 34.5486C28.7786 34.5462 26.4752 33.6086 24.3683 31.3109C24.1038 31.0224 23.6585 30.9782 23.3564 31.227L19.4374 34.4557C19.1339 34.7057 19.0906 35.1561 19.352 35.45C22.5179 39.009 26.5541 41.0288 30.8409 41.0337Z" fill="#2F1931"/>
<path fill-rule="evenodd" clip-rule="evenodd" d="M81.9611 17.9746C82.2905 17.0555 82.6528 16.3005 83.0481 15.7096C83.4433 15.0859 83.9045 14.5935 84.4315 14.2324C84.9915 13.8385 85.6173 13.5595 86.309 13.3954C87.0337 13.2312 87.8572 13.1492 88.7795 13.1492C89.7017 13.1492 90.5088 13.2312 91.2005 13.3954C91.9251 13.5595 92.551 13.8385 93.078 14.2324C93.638 14.5935 94.0991 15.0859 94.4615 15.7096C94.8567 16.3333 95.2191 17.0883 95.5484 17.9746L103.628 40.7145C103.675 40.8464 103.771 40.955 103.897 41.0175L104.887 41.5109C105.578 41.872 106.072 42.2331 106.369 42.5942C106.665 42.9224 106.814 43.3984 106.814 44.0221C106.814 44.7443 106.567 45.3516 106.072 45.844C105.578 46.3035 104.887 46.5333 103.997 46.5333H94.3626C93.4733 46.5333 92.7816 46.3035 92.2875 45.844C91.7934 45.3516 91.5463 44.7607 91.5464 44.0713C91.5464 43.4477 91.6946 42.9717 91.991 42.6434C92.3204 42.2823 92.8804 41.9048 93.6709 41.5109L94.3193 41.2172C94.5695 41.1039 94.695 40.822 94.6115 40.5611L93.8344 38.2708C93.7425 38.0001 93.4553 37.8483 93.1762 37.9139C91.5518 38.2957 89.6409 38.4795 87.8458 38.4683C86.0069 38.4568 84.3838 38.3053 82.6585 37.9097C82.3775 37.8453 82.0918 38.0041 82 38.2765C81.7417 39.0425 81.4599 39.7647 81.1875 40.5452C81.0943 40.8122 81.2233 41.1056 81.4835 41.2183L82.1587 41.5109C82.9163 41.9048 83.4598 42.2823 83.7892 42.6434C84.1186 42.9717 84.2833 43.4477 84.2833 44.0713C84.2833 44.7607 84.0362 45.3516 83.5421 45.844C83.0481 46.3035 82.3399 46.5333 81.4176 46.5333H73.4628C72.5734 46.5333 71.8817 46.3035 71.3876 45.844C70.8935 45.3516 70.6465 44.7443 70.6465 44.0221C70.6465 43.3984 70.7947 42.9224 71.0912 42.5942C71.3876 42.2331 71.8982 41.872 72.6228 41.5109L73.613 41.0175C73.7385 40.955 73.8348 40.8464 73.8816 40.7145L81.9611 17.9746ZM84.0966 33.2833C83.7977 33.2153 83.6287 32.9053 83.7222 32.6142C84.4783 30.259 85.2624 28.2112 86.062 25.8036C86.2926 25.0815 86.5231 24.3757 86.7537 23.6863C86.9843 22.9642 87.1819 22.3241 87.3466 21.766C87.5073 21.1255 87.6836 20.5007 87.8756 19.8915C87.8842 19.8642 87.9096 19.8457 87.9383 19.8457C87.9681 19.8457 87.9942 19.8657 88.0018 19.8945C88.1631 20.5028 88.3399 21.1266 88.5324 21.766C88.6971 22.3241 88.8783 22.9642 89.0759 23.6863C89.2735 24.3755 89.4876 25.0647 89.7181 25.7539L89.7182 25.7544C89.7213 25.7636 91.2723 30.4306 91.7428 31.8081C91.8203 32.035 91.9248 32.3439 91.9953 32.5729L92.0081 32.6142C92.0928 32.8893 91.9467 33.1837 91.6698 33.265C89.4296 33.922 86.4046 33.8083 84.0966 33.2833Z" fill="#F9C52A"/>
<path d="M112.3 28.1316C112.3 27.8903 112.14 27.6783 111.907 27.612L110.571 27.2316C109.813 27.0346 109.27 26.772 108.941 26.4437C108.644 26.0826 108.496 25.5574 108.496 24.8681C108.496 24.1459 108.644 23.6043 108.941 23.2432C109.27 22.8493 109.797 22.5374 110.522 22.3076C111.213 22.0779 112.07 21.8809 113.091 21.7168C114.112 21.5526 115.117 21.4706 116.105 21.4706C117.455 21.4706 118.41 21.7496 118.97 22.3076C119.53 22.8329 119.81 23.7028 119.81 24.9173L119.81 26.1092C119.81 26.1332 119.824 26.1551 119.846 26.1658C119.879 26.1827 119.921 26.1664 119.934 26.1309C120.194 25.4349 120.532 24.8006 120.947 24.228C121.375 23.6043 121.853 23.0791 122.38 22.6523C122.94 22.1928 123.549 21.8317 124.208 21.5691C124.9 21.3065 125.641 21.1751 126.431 21.1751C127.419 21.1751 128.128 21.4378 128.556 21.963C129.017 22.4882 129.247 23.276 129.247 24.3265C129.247 25.1471 129.149 25.9021 128.951 26.5915C128.786 27.248 128.556 27.8224 128.259 28.3148C127.963 28.7744 127.617 29.1355 127.222 29.3981C126.859 29.6279 126.481 29.7428 126.085 29.7428C125.855 29.7428 125.641 29.6935 125.443 29.595C125.245 29.4966 125.064 29.3981 124.9 29.2996C124.751 29.2106 124.588 29.1349 124.412 29.0727C124.375 29.0595 124.339 29.0425 124.304 29.0249C124.144 28.9454 123.931 28.9057 123.664 28.9057C123.006 28.9057 122.413 29.0698 121.886 29.3981C121.454 29.6561 121.085 29.9517 120.78 30.2848C120.694 30.378 120.65 30.5013 120.65 30.6278L120.65 40.6259C120.65 40.86 120.802 41.0675 121.025 41.1399L122.627 41.6586C123.417 41.9212 123.944 42.2331 124.208 42.5942C124.504 42.9224 124.652 43.3984 124.652 44.0221C124.652 44.7443 124.405 45.3516 123.911 45.844C123.417 46.3035 122.726 46.5333 121.836 46.5333H111.46C110.538 46.5333 109.83 46.3035 109.336 45.844C108.842 45.3516 108.595 44.7443 108.595 44.0221C108.595 43.3656 108.743 42.8732 109.039 42.5449C109.336 42.2167 109.863 41.9048 110.62 41.6094L111.938 41.1458C112.155 41.0695 112.3 40.8653 112.3 40.6362V28.1316Z" fill="#F9C52A"/>
<path d="M145.783 27.3687C145.725 27.1984 145.561 27.0915 145.39 27.0346C145.302 27.0054 145.188 26.9892 145.048 26.986C145.013 26.9851 144.977 26.9816 144.942 26.9755C144.791 26.9493 144.628 26.9361 144.451 26.9361C143.101 26.9361 141.948 27.5106 140.992 28.6595C140.07 29.7756 139.609 31.5974 139.609 34.125C139.609 36.5542 140.136 38.3432 141.19 39.4921C142.244 40.6082 143.743 41.1662 145.686 41.1662C146.246 41.1662 146.707 41.1334 147.07 41.0678C147.465 41.0021 147.811 40.9365 148.107 40.8708C148.404 40.8051 148.667 40.7395 148.898 40.6738C149.161 40.6082 149.408 40.5754 149.639 40.5754C150.265 40.5754 150.742 40.7559 151.072 41.117C151.434 41.4781 151.615 41.9705 151.615 42.5942C151.615 43.4148 151.302 44.137 150.677 44.7607C150.446 44.9905 150.117 45.2531 149.688 45.5485C149.26 45.8111 148.733 46.0573 148.107 46.2871C147.481 46.5169 146.757 46.6974 145.933 46.8287C145.11 46.9929 144.171 47.0749 143.117 47.0749C139.329 47.0749 136.381 46.0409 134.273 43.9729C132.198 41.872 131.16 38.9669 131.16 35.2575C131.16 33.1567 131.49 31.2528 132.148 29.5458C132.807 27.806 133.729 26.3288 134.915 25.1143C136.134 23.8997 137.583 22.9642 139.263 22.3076C140.976 21.6511 142.886 21.3229 144.995 21.3229C146.477 21.3229 147.679 21.4706 148.601 21.766C149.524 22.0615 150.215 22.439 150.677 22.8985C151.006 23.2268 151.22 23.6207 151.319 24.0803C151.451 24.507 151.516 25.262 151.516 26.3453V28.0194C151.516 28.3476 151.5 28.9057 151.467 29.6935C151.434 30.5142 151.204 31.105 150.775 31.4661C150.38 31.8272 149.87 32.0078 149.244 32.0078C148.552 32.0078 148.008 31.8272 147.613 31.4661C147.218 31.105 146.889 30.5634 146.625 29.8412L145.783 27.3687Z" fill="#F9C52A"/>
<path fill-rule="evenodd" clip-rule="evenodd" d="M158.523 19.3903C158.523 19.1615 158.379 18.9575 158.163 18.881L156.992 18.467C156.102 18.1059 155.477 17.712 155.114 17.2853C154.752 16.8585 154.571 16.2841 154.571 15.5619C154.571 14.9382 154.785 14.4294 155.213 14.0355C155.674 13.6087 156.317 13.3954 157.14 13.3954L170.332 13.3954C172.572 13.3954 174.482 13.6251 176.064 14.0847C177.678 14.5443 179.012 15.2008 180.066 16.0543C181.12 16.9078 181.877 17.9582 182.338 19.2056C182.833 20.4201 183.08 21.7824 183.08 23.2924C183.08 24.9666 182.783 26.5094 182.19 27.9209C181.63 29.2996 180.757 30.4978 179.572 31.5154C178.386 32.533 176.92 33.3372 175.174 33.9281C173.428 34.4861 171.403 34.7651 169.097 34.7651L167.613 34.7652C167.314 34.7651 167.071 35.0071 167.071 35.3056V40.4756C167.071 40.711 167.224 40.9193 167.449 40.9906L169.245 41.5602C170.069 41.8228 170.645 42.1346 170.974 42.4957C171.304 42.8568 171.469 43.3656 171.469 44.0221C171.469 44.7443 171.221 45.3516 170.727 45.844C170.233 46.3035 169.542 46.5333 168.652 46.5333H157.436C156.514 46.5333 155.806 46.3035 155.312 45.844C154.818 45.3516 154.571 44.7443 154.571 44.0221C154.571 43.3656 154.735 42.8732 155.065 42.5449C155.394 42.1838 155.954 41.8556 156.745 41.5602L158.165 41.0489C158.38 40.9716 158.523 40.7683 158.523 40.5406V19.3903ZM169.443 29.792C170.958 29.792 172.16 29.3324 173.05 28.4133C173.939 27.4613 174.384 26.0498 174.384 24.1787C174.384 22.3405 173.955 20.9946 173.099 20.1411C172.276 19.2548 171.057 18.8117 169.443 18.8117H167.613C167.314 18.8117 167.071 19.0536 167.071 19.3521V29.2516C167.071 29.55 167.314 29.792 167.613 29.792L169.443 29.792Z" fill="#F9C52A"/>
<path fill-rule="evenodd" clip-rule="evenodd" d="M199.941 31.3676C199.941 29.8576 199.628 28.7908 199.002 28.1671C198.376 27.5434 197.273 27.2316 195.692 27.2316C194.704 27.2316 193.847 27.2972 193.122 27.4285C192.398 27.527 191.756 27.6419 191.196 27.7732C190.669 27.8717 190.191 27.9866 189.763 28.1179C189.367 28.2163 189.005 28.2656 188.676 28.2656C188.017 28.2656 187.473 28.0522 187.045 27.6255C186.65 27.1987 186.452 26.6571 186.452 26.0006C186.452 25.3441 186.716 24.7532 187.243 24.228C187.539 23.9325 188 23.6207 188.626 23.2924C189.285 22.9313 190.076 22.6195 190.998 22.3569C191.92 22.0615 192.958 21.8317 194.111 21.6675C195.296 21.4706 196.565 21.3721 197.915 21.3721C201.604 21.3721 204.256 22.0943 205.87 23.5386C207.484 24.9501 208.291 27.051 208.291 29.8412C208.291 31.6138 208.274 33.37 208.242 35.1098C208.211 36.7037 208.252 38.4694 208.365 40.4067C208.379 40.6513 208.558 40.855 208.799 40.9031L209.872 41.117C210.597 41.2811 211.091 41.5437 211.354 41.9048C211.651 42.2331 211.799 42.7419 211.799 43.4312C211.799 44.1206 211.634 44.6622 211.305 45.0561C211.008 45.45 210.514 45.7783 209.823 46.0409C209.098 46.3035 208.258 46.5005 207.303 46.6318C206.348 46.7959 205.392 46.878 204.437 46.878C203.119 46.878 202.164 46.599 201.571 46.0409C200.978 45.4829 200.682 44.6622 200.682 43.579V43.3748C200.682 43.349 200.667 43.3255 200.644 43.314C200.611 43.2971 200.57 43.3108 200.552 43.3442C200.192 44.0407 199.692 44.6442 199.052 45.1546C198.492 45.647 197.734 46.0901 196.779 46.4841C195.856 46.8451 194.72 47.0257 193.37 47.0257C192.118 47.0257 190.965 46.8451 189.911 46.4841C188.89 46.0901 188 45.5649 187.243 44.9084C186.518 44.2191 185.958 43.4148 185.563 42.4957C185.168 41.5437 184.97 40.5425 184.97 39.4921C184.97 38.5401 185.201 37.6374 185.662 36.784C186.123 35.8976 186.815 35.1426 187.737 34.519C188.659 33.8624 189.845 33.3536 191.294 32.9925C192.777 32.5986 194.522 32.4017 196.532 32.4017C197.026 32.4017 197.47 32.4181 197.866 32.4509C198.261 32.4837 198.623 32.5166 198.953 32.5494L199.345 32.5884C199.664 32.6203 199.941 32.3704 199.941 32.0507V31.3676ZM199.842 37.3747C199.842 37.1171 199.66 36.8951 199.408 36.8349C199.375 36.8269 199.34 36.8186 199.305 36.8099L199.247 36.7958L199.2 36.784C198.969 36.7511 198.689 36.7347 198.36 36.7347C198.063 36.7019 197.734 36.6855 197.372 36.6855C196.021 36.6855 195.049 36.866 194.457 37.2271C193.864 37.5882 193.567 38.1134 193.567 38.8028C193.567 39.4593 193.814 40.0173 194.308 40.4769C194.802 40.9365 195.478 41.1662 196.334 41.1662C196.894 41.1662 197.388 41.1006 197.816 40.9693C198.244 40.8051 198.607 40.6246 198.903 40.4276C199.203 40.2375 199.469 40.0249 199.701 39.7898C199.794 39.6955 199.842 39.5667 199.842 39.4344V37.3747Z" fill="#F9C52A"/>
<path d="M214.094 27.5297C214.043 27.4015 213.944 27.2978 213.818 27.2399L213.372 27.0346C212.581 26.6735 212.021 26.2632 211.692 25.8036C211.395 25.3112 211.247 24.7204 211.247 24.031C211.247 23.3745 211.461 22.8493 211.889 22.4554C212.35 22.0615 212.993 21.8645 213.816 21.8645L222.858 21.8645C223.649 21.8645 224.274 22.0615 224.736 22.4554C225.197 22.8493 225.427 23.3745 225.427 24.031C225.427 24.6875 225.246 25.2456 224.884 25.7051C224.554 26.1319 224.011 26.5422 223.253 26.9361L223.093 27.016C222.847 27.1388 222.732 27.4264 222.826 27.6845L225.724 35.6022C225.921 36.1931 226.102 36.7675 226.267 37.3256C226.432 37.8508 226.58 38.3268 226.712 38.7535C226.839 39.2279 226.966 39.6717 227.093 40.0852C227.101 40.1131 227.127 40.1322 227.157 40.1322C227.186 40.1322 227.212 40.1131 227.22 40.0852C227.347 39.6717 227.474 39.2279 227.601 38.7535C227.733 38.3268 227.881 37.8344 228.046 37.2763C228.211 36.7183 228.408 36.1438 228.639 35.553L231.489 27.6835C231.582 27.4258 231.467 27.1392 231.221 27.0167L231.06 26.9361C230.302 26.5422 229.742 26.1319 229.38 25.7051C229.051 25.2456 228.886 24.6875 228.886 24.031C228.886 23.3745 229.116 22.8493 229.578 22.4554C230.039 22.0615 230.665 21.8645 231.455 21.8645H238.817C239.608 21.8645 240.233 22.0615 240.695 22.4554C241.156 22.8493 241.386 23.3745 241.386 24.031C241.386 24.7204 241.222 25.3112 240.892 25.8036C240.596 26.2632 240.052 26.6735 239.262 27.0346L238.815 27.2399C238.689 27.2978 238.591 27.4015 238.539 27.5296L232.344 42.9388C231.093 46.0573 229.825 48.6013 228.54 50.5709C227.255 52.5405 225.938 54.0833 224.587 55.1994C223.27 56.3155 221.936 57.0705 220.585 57.4644C219.235 57.8911 217.868 58.1045 216.484 58.1045C214.771 58.1045 213.47 57.7434 212.581 57.0212C211.725 56.3319 211.296 55.3635 211.296 54.1161C211.296 52.9344 211.576 52.0317 212.136 51.408C212.729 50.8171 213.404 50.5217 214.162 50.5217C214.524 50.5217 214.837 50.5381 215.101 50.5709C215.397 50.6366 215.677 50.7022 215.941 50.7679C216.237 50.8663 216.567 50.9484 216.929 51.0141C217.291 51.0797 217.769 51.1125 218.362 51.1125C218.856 51.1125 219.301 51.0469 219.696 50.9156C220.091 50.8171 220.453 50.653 220.783 50.4232C221.112 50.2262 221.409 49.9472 221.672 49.5861C221.925 49.3058 222.155 48.9656 222.36 48.5655C222.428 48.4325 222.431 48.2765 222.375 48.1378L214.094 27.5297Z" fill="#F9C52A"/>
<defs>
<linearGradient id="paint0_linear_1_275" x1="30.8547" y1="13.1177" x2="30.8547" y2="104.395" gradientUnits="userSpaceOnUse">
<stop stop-color="#FFB800"/>
<stop offset="1" stop-color="#FFB800" stop-opacity="0"/>
</linearGradient>
</defs>
</svg>
