<svg width="1390" height="80" viewBox="0 0 1390 80" fill="none" xmlns="http://www.w3.org/2000/svg">
<path d="M6 19.8546L3.25 19.2046C2.65 19.038 2.23333 18.838 2 18.6046C1.8 18.338 1.7 17.988 1.7 17.5546C1.7 17.2213 1.81667 16.938 2.05 16.7046C2.28333 16.4713 2.65 16.3546 3.15 16.3546H13.95C14.4167 16.3546 14.7667 16.4713 15 16.7046C15.2667 16.938 15.4 17.2213 15.4 17.5546C15.4 17.988 15.2833 18.338 15.05 18.6046C14.8167 18.838 14.4 19.038 13.8 19.2046L10.6 19.9046V46.6046H20.95L22.15 41.9046C22.2833 41.3713 22.4667 41.0046 22.7 40.8046C22.9667 40.5713 23.2833 40.4546 23.65 40.4546C24.05 40.4546 24.3667 40.5713 24.6 40.8046C24.8667 41.0046 25.0167 41.3713 25.05 41.9046C25.05 42.4046 25.05 42.8213 25.05 43.1546C25.0833 43.488 25.1 43.788 25.1 44.0546C25.1 44.3213 25.1 44.588 25.1 44.8546C25.1 45.088 25.1 45.3546 25.1 45.6546V46.5046C25.1 47.3713 25.05 48.0046 24.95 48.4046C24.8833 48.8046 24.75 49.1213 24.55 49.3546C24.3167 49.5546 24.05 49.7213 23.75 49.8546C23.45 49.9546 23.05 50.0046 22.55 50.0046H3.25C2.75 50.0046 2.36667 49.888 2.1 49.6546C1.83333 49.388 1.7 49.038 1.7 48.6046C1.7 48.238 1.78333 47.9546 1.95 47.7546C2.15 47.5213 2.51667 47.338 3.05 47.2046L6 46.5046V19.8546ZM43.473 34.5546C43.473 32.3213 43.023 30.738 42.123 29.8046C41.2564 28.838 39.873 28.3546 37.973 28.3546C36.9397 28.3546 36.0564 28.4213 35.323 28.5546C34.5897 28.688 33.9564 28.838 33.423 29.0046C32.8897 29.1713 32.4397 29.3213 32.073 29.4546C31.7397 29.588 31.4397 29.6546 31.173 29.6546C30.773 29.6546 30.4564 29.538 30.223 29.3046C29.9897 29.0713 29.873 28.7546 29.873 28.3546C29.873 27.988 30.023 27.638 30.323 27.3046C30.5564 27.0713 30.9397 26.8213 31.473 26.5546C32.0397 26.288 32.7064 26.038 33.473 25.8046C34.273 25.5713 35.1564 25.3713 36.123 25.2046C37.0897 25.038 38.123 24.9546 39.223 24.9546C42.2897 24.9546 44.5064 25.638 45.873 27.0046C47.2397 28.338 47.923 30.438 47.923 33.3046C47.923 35.3713 47.8897 37.488 47.823 39.6546C47.7897 41.788 47.8397 44.1046 47.973 46.6046L50.523 46.9046C51.023 46.9713 51.373 47.1046 51.573 47.3046C51.8064 47.5046 51.923 47.788 51.923 48.1546C51.923 48.5546 51.8064 48.8713 51.573 49.1046C51.373 49.3046 51.023 49.488 50.523 49.6546C49.9897 49.8213 49.3564 49.9546 48.623 50.0546C47.923 50.188 47.2064 50.2546 46.473 50.2546C45.5064 50.2546 44.8064 50.038 44.373 49.6046C43.9397 49.138 43.723 48.4546 43.723 47.5546V46.9046L43.623 46.8546C43.1897 47.5546 42.6397 48.1713 41.973 48.7046C41.4064 49.1713 40.6564 49.588 39.723 49.9546C38.7897 50.288 37.6397 50.4546 36.273 50.4546C35.073 50.4546 33.973 50.288 32.973 49.9546C32.0064 49.588 31.173 49.088 30.473 48.4546C29.8064 47.8213 29.2897 47.088 28.923 46.2546C28.5564 45.4213 28.373 44.5213 28.373 43.5546C28.373 42.6213 28.573 41.7713 28.973 41.0046C29.4064 40.2046 30.0397 39.5213 30.873 38.9546C31.7397 38.388 32.8064 37.938 34.073 37.6046C35.3397 37.2713 36.8397 37.1046 38.573 37.1046C39.3064 37.1046 39.9564 37.138 40.523 37.2046C41.123 37.238 41.6397 37.288 42.073 37.3546C42.573 37.4213 43.0397 37.488 43.473 37.5546V34.5546ZM43.373 40.3546C43.0064 40.288 42.6064 40.2046 42.173 40.1046C41.773 40.0713 41.3064 40.038 40.773 40.0046C40.2397 39.938 39.673 39.9046 39.073 39.9046C37.0064 39.9046 35.4897 40.188 34.523 40.7546C33.5564 41.3213 33.073 42.138 33.073 43.2046C33.073 44.2713 33.473 45.188 34.273 45.9546C35.1064 46.688 36.2397 47.0546 37.673 47.0546C38.573 47.0546 39.373 46.9213 40.073 46.6546C40.8064 46.388 41.4064 46.088 41.873 45.7546C42.4397 45.388 42.9397 44.9546 43.373 44.4546V40.3546ZM58.2855 28.9046L55.3355 28.4546C54.8022 28.3546 54.4355 28.2046 54.2355 28.0046C54.0689 27.8046 53.9855 27.5213 53.9855 27.1546C53.9855 26.7546 54.0855 26.4546 54.2855 26.2546C54.4855 26.0213 54.8689 25.8213 55.4355 25.6546C56.0022 25.5213 56.6689 25.4046 57.4355 25.3046C58.2022 25.2046 58.9355 25.1546 59.6355 25.1546C60.7022 25.1546 61.4189 25.3546 61.7855 25.7546C62.1855 26.1546 62.3855 26.8713 62.3855 27.9046V28.8046L62.4855 28.8546C62.9522 28.1213 63.5522 27.4713 64.2855 26.9046C64.8855 26.438 65.6689 26.0046 66.6355 25.6046C67.6355 25.1713 68.8522 24.9546 70.2855 24.9546C73.2189 24.9546 75.4522 25.738 76.9855 27.3046C78.5522 28.8713 79.3355 31.238 79.3355 34.4046V46.5546L81.8355 47.2046C82.3689 47.338 82.7189 47.5213 82.8855 47.7546C83.0855 47.9546 83.1855 48.238 83.1855 48.6046C83.1855 49.038 83.0522 49.388 82.7855 49.6546C82.5189 49.888 82.1189 50.0046 81.5855 50.0046H72.6355C72.1355 50.0046 71.7355 49.888 71.4355 49.6546C71.1689 49.388 71.0355 49.038 71.0355 48.6046C71.0355 48.238 71.1189 47.9546 71.2855 47.7546C71.4855 47.5213 71.8522 47.338 72.3855 47.2046L74.8855 46.5546V35.6046C74.8855 33.038 74.3522 31.188 73.2855 30.0546C72.2522 28.9213 70.7689 28.3546 68.8355 28.3546C67.8355 28.3546 66.9689 28.5213 66.2355 28.8546C65.5022 29.1546 64.8689 29.5046 64.3355 29.9046C63.7355 30.3713 63.2189 30.888 62.7855 31.4546V46.5546L65.2855 47.2046C65.8189 47.338 66.1689 47.5213 66.3355 47.7546C66.5022 47.9546 66.5855 48.238 66.5855 48.6046C66.5855 49.038 66.4522 49.388 66.1855 49.6546C65.9189 49.888 65.5189 50.0046 64.9855 50.0046H55.7355C55.2022 50.0046 54.8022 49.888 54.5355 49.6546C54.2689 49.388 54.1355 49.038 54.1355 48.6046C54.1355 48.238 54.2189 47.9546 54.3855 47.7546C54.5522 47.5546 54.9189 47.388 55.4855 47.2546L58.2855 46.5546V28.9046ZM103.98 17.5046L100.98 17.0046C100.446 16.938 100.08 16.8046 99.8797 16.6046C99.713 16.3713 99.6297 16.0713 99.6297 15.7046C99.6297 15.338 99.7297 15.0546 99.9297 14.8546C100.13 14.6213 100.513 14.4213 101.08 14.2546C101.68 14.1213 102.363 14.0046 103.13 13.9046C103.896 13.8046 104.696 13.7546 105.53 13.7546C106.663 13.7546 107.43 13.9713 107.83 14.4046C108.23 14.8046 108.43 15.5546 108.43 16.6546V46.6046L111.03 46.9046C111.563 47.0046 111.93 47.1546 112.13 47.3546C112.33 47.5213 112.43 47.788 112.43 48.1546C112.43 48.5546 112.313 48.8713 112.08 49.1046C111.88 49.3046 111.53 49.488 111.03 49.6546C110.496 49.8213 109.88 49.9546 109.18 50.0546C108.48 50.188 107.78 50.2546 107.08 50.2546C106.146 50.2546 105.446 50.038 104.98 49.6046C104.546 49.138 104.33 48.4546 104.33 47.5546V46.6046L104.23 46.5546C103.796 47.288 103.213 47.938 102.48 48.5046C101.846 49.0046 101.03 49.4546 100.03 49.8546C99.063 50.2546 97.8797 50.4546 96.4797 50.4546C93.4464 50.4546 91.0297 49.4713 89.2297 47.5046C87.4297 45.538 86.5297 42.5713 86.5297 38.6046C86.5297 36.4713 86.8464 34.5546 87.4797 32.8546C88.113 31.1546 88.9964 29.7213 90.1297 28.5546C91.263 27.388 92.6464 26.488 94.2797 25.8546C95.913 25.2213 97.7297 24.9046 99.7297 24.9046C100.396 24.9046 100.98 24.938 101.48 25.0046C102.013 25.0713 102.463 25.1213 102.83 25.1546C103.263 25.2546 103.646 25.338 103.98 25.4046L104.08 25.3046C104.046 24.8046 104.013 24.3213 103.98 23.8546C103.98 23.3546 103.98 22.8213 103.98 22.2546V17.5046ZM103.98 29.2546C103.613 29.0546 103.18 28.8713 102.68 28.7046C102.246 28.5713 101.73 28.4546 101.13 28.3546C100.53 28.2546 99.813 28.2046 98.9797 28.2046C96.5797 28.2046 94.6797 28.988 93.2797 30.5546C91.8797 32.088 91.1797 34.538 91.1797 37.9046C91.1797 41.138 91.7964 43.4713 93.0297 44.9046C94.263 46.338 95.8964 47.0546 97.9297 47.0546C98.9297 47.0546 99.7964 46.9046 100.53 46.6046C101.263 46.2713 101.896 45.9213 102.43 45.5546C102.996 45.088 103.513 44.5546 103.98 43.9546V29.2546ZM119.028 28.9046L116.078 28.4546C115.544 28.3546 115.178 28.2046 114.978 28.0046C114.811 27.8046 114.728 27.5213 114.728 27.1546C114.728 26.7546 114.828 26.4546 115.028 26.2546C115.228 26.0213 115.611 25.8213 116.178 25.6546C116.744 25.5213 117.411 25.4046 118.178 25.3046C118.978 25.2046 119.778 25.1546 120.578 25.1546C121.744 25.1546 122.528 25.3713 122.928 25.8046C123.328 26.2046 123.528 26.9546 123.528 28.0546V46.5546L126.078 47.2046C126.578 47.338 126.911 47.5213 127.078 47.7546C127.278 47.9546 127.378 48.2213 127.378 48.5546C127.378 48.988 127.228 49.338 126.928 49.6046C126.661 49.8713 126.261 50.0046 125.728 50.0046H116.478C115.944 50.0046 115.544 49.888 115.278 49.6546C115.011 49.388 114.878 49.038 114.878 48.6046C114.878 48.238 114.961 47.9546 115.128 47.7546C115.294 47.5546 115.661 47.388 116.228 47.2546L119.028 46.5546V28.9046ZM118.028 17.9546C118.028 17.0546 118.328 16.3046 118.928 15.7046C119.528 15.0713 120.278 14.7546 121.178 14.7546C122.078 14.7546 122.811 15.0546 123.378 15.6546C123.978 16.2213 124.278 16.9546 124.278 17.8546C124.278 18.7546 123.978 19.5213 123.378 20.1546C122.778 20.7546 122.028 21.0546 121.128 21.0546C120.228 21.0546 119.478 20.7713 118.878 20.2046C118.311 19.6046 118.028 18.8546 118.028 17.9546ZM134.116 28.9046L131.166 28.4546C130.632 28.3546 130.266 28.2046 130.066 28.0046C129.899 27.8046 129.816 27.5213 129.816 27.1546C129.816 26.7546 129.916 26.4546 130.116 26.2546C130.316 26.0213 130.699 25.8213 131.266 25.6546C131.832 25.5213 132.499 25.4046 133.266 25.3046C134.032 25.2046 134.766 25.1546 135.466 25.1546C136.532 25.1546 137.249 25.3546 137.616 25.7546C138.016 26.1546 138.216 26.8713 138.216 27.9046V28.8046L138.316 28.8546C138.782 28.1213 139.382 27.4713 140.116 26.9046C140.716 26.438 141.499 26.0046 142.466 25.6046C143.466 25.1713 144.682 24.9546 146.116 24.9546C149.049 24.9546 151.282 25.738 152.816 27.3046C154.382 28.8713 155.166 31.238 155.166 34.4046V46.5546L157.666 47.2046C158.199 47.338 158.549 47.5213 158.716 47.7546C158.916 47.9546 159.016 48.238 159.016 48.6046C159.016 49.038 158.882 49.388 158.616 49.6546C158.349 49.888 157.949 50.0046 157.416 50.0046H148.466C147.966 50.0046 147.566 49.888 147.266 49.6546C146.999 49.388 146.866 49.038 146.866 48.6046C146.866 48.238 146.949 47.9546 147.116 47.7546C147.316 47.5213 147.682 47.338 148.216 47.2046L150.716 46.5546V35.6046C150.716 33.038 150.182 31.188 149.116 30.0546C148.082 28.9213 146.599 28.3546 144.666 28.3546C143.666 28.3546 142.799 28.5213 142.066 28.8546C141.332 29.1546 140.699 29.5046 140.166 29.9046C139.566 30.3713 139.049 30.888 138.616 31.4546V46.5546L141.116 47.2046C141.649 47.338 141.999 47.5213 142.166 47.7546C142.332 47.9546 142.416 48.238 142.416 48.6046C142.416 49.038 142.282 49.388 142.016 49.6546C141.749 49.888 141.349 50.0046 140.816 50.0046H131.566C131.032 50.0046 130.632 49.888 130.366 49.6546C130.099 49.388 129.966 49.038 129.966 48.6046C129.966 48.238 130.049 47.9546 130.216 47.7546C130.382 47.5546 130.749 47.388 131.316 47.2546L134.116 46.5546V28.9046ZM175.66 46.5046C178.893 46.5046 181.21 47.1046 182.61 48.3046C184.01 49.5046 184.71 51.0713 184.71 53.0046C184.71 54.138 184.426 55.238 183.86 56.3046C183.326 57.4046 182.526 58.3713 181.46 59.2046C180.393 60.038 179.06 60.7046 177.46 61.2046C175.893 61.738 174.093 62.0046 172.06 62.0046C170.226 62.0046 168.643 61.8213 167.31 61.4546C166.01 61.088 164.926 60.588 164.06 59.9546C163.226 59.3213 162.61 58.5713 162.21 57.7046C161.81 56.838 161.61 55.9213 161.61 54.9546C161.61 53.888 161.793 52.9546 162.16 52.1546C162.56 51.388 162.993 50.7213 163.46 50.1546C163.926 49.6213 164.376 49.2046 164.81 48.9046C165.276 48.6046 165.576 48.4213 165.71 48.3546C165.243 48.0213 164.826 47.5713 164.46 47.0046C164.093 46.4046 163.91 45.688 163.91 44.8546C163.91 44.188 164.026 43.6046 164.26 43.1046C164.493 42.5713 164.76 42.1213 165.06 41.7546C165.36 41.3546 165.66 41.038 165.96 40.8046C166.26 40.5713 166.46 40.4213 166.56 40.3546C165.626 39.788 164.843 38.9713 164.21 37.9046C163.576 36.8046 163.26 35.5046 163.26 34.0046C163.26 32.7046 163.493 31.5046 163.96 30.4046C164.426 29.3046 165.093 28.3546 165.96 27.5546C166.86 26.7546 167.96 26.1213 169.26 25.6546C170.56 25.188 172.026 24.9546 173.66 24.9546C174.293 24.9546 174.876 25.0046 175.41 25.1046C175.943 25.1713 176.393 25.238 176.76 25.3046C177.16 25.438 177.51 25.5546 177.81 25.6546C178.776 24.288 179.66 23.188 180.46 22.3546C181.26 21.5213 182.043 21.1046 182.81 21.1046C183.376 21.1046 183.843 21.2713 184.21 21.6046C184.576 21.938 184.743 22.3546 184.71 22.8546C184.71 23.2546 184.593 23.6046 184.36 23.9046C184.126 24.1713 183.81 24.4546 183.41 24.7546C183.01 25.0213 182.543 25.338 182.01 25.7046C181.476 26.038 180.91 26.488 180.31 27.0546C181.01 27.6213 181.61 28.388 182.11 29.3546C182.61 30.3213 182.86 31.488 182.86 32.8546C182.86 34.1546 182.626 35.3546 182.16 36.4546C181.693 37.5546 181.01 38.5046 180.11 39.3046C179.243 40.1046 178.16 40.738 176.86 41.2046C175.56 41.6713 174.093 41.9046 172.46 41.9046C171.926 41.9046 171.426 41.888 170.96 41.8546C170.526 41.788 170.143 41.7213 169.81 41.6546C169.41 41.5546 169.06 41.4713 168.76 41.4046C168.56 41.5713 168.393 41.7713 168.26 42.0046C168.093 42.2046 167.96 42.4546 167.86 42.7546C167.793 43.0213 167.76 43.3546 167.76 43.7546C167.76 44.1546 167.826 44.538 167.96 44.9046C168.126 45.238 168.41 45.5213 168.81 45.7546C169.243 45.988 169.81 46.1713 170.51 46.3046C171.21 46.438 172.093 46.5046 173.16 46.5046H175.66ZM172.26 49.9046C171.56 49.9046 170.96 49.888 170.46 49.8546C169.96 49.788 169.526 49.7213 169.16 49.6546C168.76 49.5546 168.426 49.4546 168.16 49.3546C167.76 49.7213 167.41 50.138 167.11 50.6046C166.81 50.9713 166.56 51.438 166.36 52.0046C166.16 52.5713 166.06 53.2046 166.06 53.9046C166.06 55.3713 166.576 56.538 167.61 57.4046C168.676 58.3046 170.426 58.7546 172.86 58.7546C175.36 58.7546 177.21 58.2546 178.41 57.2546C179.61 56.2546 180.21 55.0546 180.21 53.6546C180.21 52.4546 179.81 51.5213 179.01 50.8546C178.21 50.2213 176.76 49.9046 174.66 49.9046H172.26ZM167.76 33.3546C167.76 34.9546 168.243 36.238 169.21 37.2046C170.176 38.1713 171.476 38.6546 173.11 38.6546C174.71 38.6546 175.976 38.2046 176.91 37.3046C177.843 36.3713 178.31 35.1046 178.31 33.5046C178.31 31.9046 177.826 30.6213 176.86 29.6546C175.893 28.688 174.593 28.2046 172.96 28.2046C171.36 28.2046 170.093 28.6713 169.16 29.6046C168.226 30.5046 167.76 31.7546 167.76 33.3546ZM205.219 19.8546L202.469 19.2046C201.869 19.038 201.452 18.838 201.219 18.6046C201.019 18.338 200.919 17.988 200.919 17.5546C200.919 17.2213 201.035 16.938 201.269 16.7046C201.502 16.4713 201.869 16.3546 202.369 16.3546H214.069C216.102 16.3546 217.852 16.5713 219.319 17.0046C220.785 17.438 221.985 18.0713 222.919 18.9046C223.885 19.7046 224.585 20.688 225.019 21.8546C225.485 23.0213 225.719 24.338 225.719 25.8046C225.719 27.3713 225.435 28.8213 224.869 30.1546C224.335 31.488 223.519 32.638 222.419 33.6046C221.352 34.5713 220.019 35.3213 218.419 35.8546C216.819 36.3546 214.969 36.6046 212.869 36.6046H209.819V46.4546L213.169 47.1546C213.735 47.288 214.119 47.4713 214.319 47.7046C214.519 47.938 214.619 48.238 214.619 48.6046C214.619 49.038 214.485 49.388 214.219 49.6546C213.952 49.888 213.552 50.0046 213.019 50.0046H202.519C201.985 50.0046 201.585 49.888 201.319 49.6546C201.052 49.388 200.919 49.038 200.919 48.6046C200.919 48.238 201.002 47.9546 201.169 47.7546C201.369 47.5213 201.735 47.338 202.269 47.2046L205.219 46.5046V19.8546ZM213.419 33.4546C215.919 33.4546 217.802 32.8546 219.069 31.6546C220.335 30.4213 220.969 28.688 220.969 26.4546C220.969 24.2546 220.352 22.588 219.119 21.4546C217.919 20.288 216.019 19.7046 213.419 19.7046H209.819V33.4546H213.419ZM243.864 34.5546C243.864 32.3213 243.414 30.738 242.514 29.8046C241.647 28.838 240.264 28.3546 238.364 28.3546C237.33 28.3546 236.447 28.4213 235.714 28.5546C234.98 28.688 234.347 28.838 233.814 29.0046C233.28 29.1713 232.83 29.3213 232.464 29.4546C232.13 29.588 231.83 29.6546 231.564 29.6546C231.164 29.6546 230.847 29.538 230.614 29.3046C230.38 29.0713 230.264 28.7546 230.264 28.3546C230.264 27.988 230.414 27.638 230.714 27.3046C230.947 27.0713 231.33 26.8213 231.864 26.5546C232.43 26.288 233.097 26.038 233.864 25.8046C234.664 25.5713 235.547 25.3713 236.514 25.2046C237.48 25.038 238.514 24.9546 239.614 24.9546C242.68 24.9546 244.897 25.638 246.264 27.0046C247.63 28.338 248.314 30.438 248.314 33.3046C248.314 35.3713 248.28 37.488 248.214 39.6546C248.18 41.788 248.23 44.1046 248.364 46.6046L250.914 46.9046C251.414 46.9713 251.764 47.1046 251.964 47.3046C252.197 47.5046 252.314 47.788 252.314 48.1546C252.314 48.5546 252.197 48.8713 251.964 49.1046C251.764 49.3046 251.414 49.488 250.914 49.6546C250.38 49.8213 249.747 49.9546 249.014 50.0546C248.314 50.188 247.597 50.2546 246.864 50.2546C245.897 50.2546 245.197 50.038 244.764 49.6046C244.33 49.138 244.114 48.4546 244.114 47.5546V46.9046L244.014 46.8546C243.58 47.5546 243.03 48.1713 242.364 48.7046C241.797 49.1713 241.047 49.588 240.114 49.9546C239.18 50.288 238.03 50.4546 236.664 50.4546C235.464 50.4546 234.364 50.288 233.364 49.9546C232.397 49.588 231.564 49.088 230.864 48.4546C230.197 47.8213 229.68 47.088 229.314 46.2546C228.947 45.4213 228.764 44.5213 228.764 43.5546C228.764 42.6213 228.964 41.7713 229.364 41.0046C229.797 40.2046 230.43 39.5213 231.264 38.9546C232.13 38.388 233.197 37.938 234.464 37.6046C235.73 37.2713 237.23 37.1046 238.964 37.1046C239.697 37.1046 240.347 37.138 240.914 37.2046C241.514 37.238 242.03 37.288 242.464 37.3546C242.964 37.4213 243.43 37.488 243.864 37.5546V34.5546ZM243.764 40.3546C243.397 40.288 242.997 40.2046 242.564 40.1046C242.164 40.0713 241.697 40.038 241.164 40.0046C240.63 39.938 240.064 39.9046 239.464 39.9046C237.397 39.9046 235.88 40.188 234.914 40.7546C233.947 41.3213 233.464 42.138 233.464 43.2046C233.464 44.2713 233.864 45.188 234.664 45.9546C235.497 46.688 236.63 47.0546 238.064 47.0546C238.964 47.0546 239.764 46.9213 240.464 46.6546C241.197 46.388 241.797 46.088 242.264 45.7546C242.83 45.388 243.33 44.9546 243.764 44.4546V40.3546ZM268.726 46.5046C271.96 46.5046 274.276 47.1046 275.676 48.3046C277.076 49.5046 277.776 51.0713 277.776 53.0046C277.776 54.138 277.493 55.238 276.926 56.3046C276.393 57.4046 275.593 58.3713 274.526 59.2046C273.46 60.038 272.126 60.7046 270.526 61.2046C268.96 61.738 267.16 62.0046 265.126 62.0046C263.293 62.0046 261.71 61.8213 260.376 61.4546C259.076 61.088 257.993 60.588 257.126 59.9546C256.293 59.3213 255.676 58.5713 255.276 57.7046C254.876 56.838 254.676 55.9213 254.676 54.9546C254.676 53.888 254.86 52.9546 255.226 52.1546C255.626 51.388 256.06 50.7213 256.526 50.1546C256.993 49.6213 257.443 49.2046 257.876 48.9046C258.343 48.6046 258.643 48.4213 258.776 48.3546C258.31 48.0213 257.893 47.5713 257.526 47.0046C257.16 46.4046 256.976 45.688 256.976 44.8546C256.976 44.188 257.093 43.6046 257.326 43.1046C257.56 42.5713 257.826 42.1213 258.126 41.7546C258.426 41.3546 258.726 41.038 259.026 40.8046C259.326 40.5713 259.526 40.4213 259.626 40.3546C258.693 39.788 257.91 38.9713 257.276 37.9046C256.643 36.8046 256.326 35.5046 256.326 34.0046C256.326 32.7046 256.56 31.5046 257.026 30.4046C257.493 29.3046 258.16 28.3546 259.026 27.5546C259.926 26.7546 261.026 26.1213 262.326 25.6546C263.626 25.188 265.093 24.9546 266.726 24.9546C267.36 24.9546 267.943 25.0046 268.476 25.1046C269.01 25.1713 269.46 25.238 269.826 25.3046C270.226 25.438 270.576 25.5546 270.876 25.6546C271.843 24.288 272.726 23.188 273.526 22.3546C274.326 21.5213 275.11 21.1046 275.876 21.1046C276.443 21.1046 276.91 21.2713 277.276 21.6046C277.643 21.938 277.81 22.3546 277.776 22.8546C277.776 23.2546 277.66 23.6046 277.426 23.9046C277.193 24.1713 276.876 24.4546 276.476 24.7546C276.076 25.0213 275.61 25.338 275.076 25.7046C274.543 26.038 273.976 26.488 273.376 27.0546C274.076 27.6213 274.676 28.388 275.176 29.3546C275.676 30.3213 275.926 31.488 275.926 32.8546C275.926 34.1546 275.693 35.3546 275.226 36.4546C274.76 37.5546 274.076 38.5046 273.176 39.3046C272.31 40.1046 271.226 40.738 269.926 41.2046C268.626 41.6713 267.16 41.9046 265.526 41.9046C264.993 41.9046 264.493 41.888 264.026 41.8546C263.593 41.788 263.21 41.7213 262.876 41.6546C262.476 41.5546 262.126 41.4713 261.826 41.4046C261.626 41.5713 261.46 41.7713 261.326 42.0046C261.16 42.2046 261.026 42.4546 260.926 42.7546C260.86 43.0213 260.826 43.3546 260.826 43.7546C260.826 44.1546 260.893 44.538 261.026 44.9046C261.193 45.238 261.476 45.5213 261.876 45.7546C262.31 45.988 262.876 46.1713 263.576 46.3046C264.276 46.438 265.16 46.5046 266.226 46.5046H268.726ZM265.326 49.9046C264.626 49.9046 264.026 49.888 263.526 49.8546C263.026 49.788 262.593 49.7213 262.226 49.6546C261.826 49.5546 261.493 49.4546 261.226 49.3546C260.826 49.7213 260.476 50.138 260.176 50.6046C259.876 50.9713 259.626 51.438 259.426 52.0046C259.226 52.5713 259.126 53.2046 259.126 53.9046C259.126 55.3713 259.643 56.538 260.676 57.4046C261.743 58.3046 263.493 58.7546 265.926 58.7546C268.426 58.7546 270.276 58.2546 271.476 57.2546C272.676 56.2546 273.276 55.0546 273.276 53.6546C273.276 52.4546 272.876 51.5213 272.076 50.8546C271.276 50.2213 269.826 49.9046 267.726 49.9046H265.326ZM260.826 33.3546C260.826 34.9546 261.31 36.238 262.276 37.2046C263.243 38.1713 264.543 38.6546 266.176 38.6546C267.776 38.6546 269.043 38.2046 269.976 37.3046C270.91 36.3713 271.376 35.1046 271.376 33.5046C271.376 31.9046 270.893 30.6213 269.926 29.6546C268.96 28.688 267.66 28.2046 266.026 28.2046C264.426 28.2046 263.16 28.6713 262.226 29.6046C261.293 30.5046 260.826 31.7546 260.826 33.3546ZM285.464 38.0046C285.564 41.0046 286.348 43.2713 287.814 44.8046C289.314 46.338 291.348 47.1046 293.914 47.1046C294.814 47.1046 295.564 47.0546 296.164 46.9546C296.764 46.8546 297.281 46.738 297.714 46.6046C298.148 46.4713 298.514 46.3546 298.814 46.2546C299.114 46.1546 299.381 46.1046 299.614 46.1046C300.014 46.1046 300.314 46.2213 300.514 46.4546C300.714 46.6546 300.814 46.938 300.814 47.3046C300.814 47.538 300.764 47.7546 300.664 47.9546C300.598 48.1213 300.464 48.3046 300.264 48.5046C299.831 48.938 298.948 49.388 297.614 49.8546C296.314 50.288 294.648 50.5046 292.614 50.5046C290.814 50.5046 289.181 50.238 287.714 49.7046C286.281 49.138 285.064 48.338 284.064 47.3046C283.064 46.2713 282.281 45.0046 281.714 43.5046C281.181 41.9713 280.914 40.2213 280.914 38.2546C280.914 36.188 281.214 34.338 281.814 32.7046C282.414 31.038 283.231 29.638 284.264 28.5046C285.331 27.3713 286.564 26.488 287.964 25.8546C289.398 25.2213 290.931 24.9046 292.564 24.9046C295.398 24.9046 297.648 25.788 299.314 27.5546C300.981 29.288 301.814 31.788 301.814 35.0546C301.814 36.0546 301.581 36.8046 301.114 37.3046C300.648 37.7713 299.964 38.0046 299.064 38.0046H285.464ZM297.414 35.2546C297.348 32.8546 296.798 31.0713 295.764 29.9046C294.731 28.738 293.448 28.1546 291.914 28.1546C290.181 28.1546 288.748 28.8046 287.614 30.1046C286.514 31.3713 285.848 33.088 285.614 35.2546H297.414Z" fill="black"/>
<rect x="0.422852" y="-10.3827" width="1451.15" height="90" fill="#2F1931"/>
<g opacity="0.7" filter="url(#filter0_f_1_226)">
<path d="M440.79 61.5029C440.79 62.9334 432.943 64.0897 423.26 64.0897C413.578 64.0897 405.73 62.9334 405.73 61.5029C405.73 60.0725 413.578 58.9161 423.26 58.9161C432.943 58.9161 440.79 60.0753 440.79 61.5029Z" fill="#8B8B8B"/>
</g>
<path d="M439.163 24.527L435.063 60.0491C435.063 61.632 429.837 62.1012 423.387 62.1012C416.937 62.1012 411.711 61.632 411.711 60.0491L407.611 24.527H439.163Z" fill="#F1F1F1"/>
<path d="M438.693 32.7594C438.548 32.6329 438.335 32.5594 438.117 32.5594L408.389 32.5594C408.171 32.5594 407.958 32.6329 407.812 32.7594C407.667 32.8858 407.594 33.0572 407.615 33.2285L409.796 52.6381C409.832 52.9522 410.17 53.1929 410.57 53.1929H435.883C436.283 53.1929 436.531 53.0767 436.657 52.6381L438.891 33.2285C438.911 33.0572 438.839 32.8858 438.693 32.7594Z" fill="white"/>
<path d="M438.693 32.7594C438.548 32.6329 438.335 32.5594 438.117 32.5594L408.389 32.5594C408.171 32.5594 407.958 32.6329 407.812 32.7594C407.667 32.8858 407.594 33.0572 407.615 33.2285L409.796 52.6381C409.832 52.9522 410.17 53.1929 410.57 53.1929H435.883C436.283 53.1929 436.531 53.0767 436.657 52.6381L438.891 33.2285C438.911 33.0572 438.839 32.8858 438.693 32.7594Z" fill="url(#paint0_linear_1_226)"/>
<ellipse cx="2.88793" cy="2.87798" rx="2.88793" ry="2.87798" transform="matrix(1 -8.40036e-08 -8.45848e-08 -1 427.834 43.1322)" fill="#2F1931"/>
<ellipse cx="2.88793" cy="2.87798" rx="2.88793" ry="2.87798" transform="matrix(1 -8.36438e-08 -8.49486e-08 -1 412.896 43.1322)" fill="#2F1931"/>
<path fill-rule="evenodd" clip-rule="evenodd" d="M423.246 47.7604C425.284 47.7628 427.212 46.8542 428.763 45.2304C429.034 44.946 428.99 44.4948 428.686 44.2447L427.275 43.0821C426.973 42.8333 426.529 42.8797 426.25 43.1536C425.261 44.1224 424.204 44.5189 423.25 44.5178C422.295 44.5167 421.241 44.1176 420.256 43.1535C419.976 42.8797 419.533 42.8333 419.231 43.0821L417.819 44.2447C417.516 44.4948 417.471 44.9461 417.743 45.2304C419.287 46.8468 421.21 47.7581 423.246 47.7604Z" fill="#2F1931"/>
<path fill-rule="evenodd" clip-rule="evenodd" d="M423.246 47.7604C425.284 47.7628 427.212 46.8542 428.763 45.2304C429.034 44.946 428.99 44.4948 428.686 44.2447L427.275 43.0821C426.973 42.8333 426.529 42.8797 426.25 43.1536C425.261 44.1224 424.204 44.5189 423.25 44.5178C422.295 44.5167 421.241 44.1176 420.256 43.1535C419.976 42.8797 419.533 42.8333 419.231 43.0821L417.819 44.2447C417.516 44.4948 417.471 44.9461 417.743 45.2304C419.287 46.8468 421.21 47.7581 423.246 47.7604Z" fill="#2F1931"/>
<path d="M406.22 22.0477H440.555C440.779 22.0477 440.96 22.2292 440.96 22.453V25.7723C440.96 25.9961 440.779 26.1776 440.555 26.1776H406.22C405.996 26.1776 405.814 25.9961 405.814 25.7723V22.453C405.814 22.2292 405.996 22.0477 406.22 22.0477Z" fill="#CFCFCF" stroke="black" stroke-width="0.25"/>
<path d="M438.832 21.9227H407.948L408.555 18.425C408.728 17.2675 409.616 16.4211 410.661 16.4211H436.119C437.164 16.4211 438.057 17.2675 438.225 18.425L438.832 21.9227Z" fill="#CFCFCF"/>
<path d="M435.326 20.049C435.766 20.049 436.129 19.6928 436.129 19.2459C436.129 18.8053 435.772 18.4427 435.326 18.4427H431.246C430.806 18.4427 430.443 18.7989 430.443 19.2459C430.443 19.6865 430.8 20.049 431.246 20.049H435.326Z" stroke="black" stroke-width="0.25"/>
<g opacity="0.6" filter="url(#filter1_f_1_226)">
<path d="M443.699 -10.948C443.699 -10.948 443.453 -10.4331 443.117 -9.58515C442.79 -8.73596 442.38 -7.53837 442.146 -6.21853C442.106 -5.89349 442.056 -5.56967 442.002 -5.21759C442 -4.87351 441.95 -4.54969 441.957 -4.20437C441.964 -3.5291 442.013 -2.86305 442.131 -2.18841C442.23 -1.84617 442.218 -1.50331 442.346 -1.15739C442.455 -0.813931 442.522 -0.461247 442.639 -0.102424C442.765 0.257627 442.906 0.590642 443.011 0.962369C443.147 1.32365 443.326 1.67571 443.472 2.03821L443.58 2.30979L443.633 2.44557L443.65 2.47629C443.695 2.59672 443.583 2.36755 443.601 2.38413L443.64 2.47507C443.792 2.79518 443.919 3.06921 444.028 3.32665C444.255 3.85689 444.417 4.42216 444.59 4.97453C444.915 6.09094 445.096 7.31858 445.177 8.53394C445.216 9.77265 445.173 11.0157 444.908 12.1739C444.686 13.3229 444.295 14.3651 443.852 15.1713C443.649 15.5909 443.413 15.9492 443.165 16.2484C442.916 16.5477 442.725 16.8684 442.479 17.0676C442.005 17.4823 441.626 17.8517 441.263 18.0219C440.56 18.4084 440.164 18.5172 440.164 18.5172C440.164 18.5172 440.364 17.9538 440.719 17.1224C440.909 16.7298 441.032 16.1423 441.217 15.62C441.32 15.3601 441.35 15.0339 441.428 14.7279C441.497 14.4206 441.573 14.1288 441.584 13.8C441.614 13.4738 441.68 13.1807 441.651 12.847C441.65 12.5312 441.678 12.2191 441.629 11.883C441.617 11.2501 441.457 10.5847 441.32 9.90757C441.142 9.22555 440.925 8.53863 440.668 7.84679C440.529 7.49964 440.379 7.1654 440.237 6.84652C440.157 6.67878 440.085 6.52641 440.036 6.43425L439.995 6.35745L439.924 6.20507L439.899 6.15899L439.821 5.97712L439.656 5.59803C439.458 5.0856 439.237 4.58485 439.05 4.05952C438.879 3.49302 438.739 2.91607 438.597 2.35326C438.351 1.16065 438.202 -0.0774381 438.229 -1.35118C438.244 -2.61201 438.449 -3.86365 438.746 -4.96046C438.905 -5.5147 439.109 -6.0204 439.289 -6.5003C439.517 -6.95992 439.722 -7.39374 439.95 -7.76734C440.425 -8.51208 440.89 -9.10015 441.347 -9.53153C441.793 -9.96414 442.212 -10.2566 442.56 -10.4576C443.256 -10.8736 443.675 -10.9222 443.675 -10.9222L443.699 -10.948Z" fill="url(#paint1_linear_1_226)"/>
</g>
<path d="M455.246 38.5246C455.246 37.418 455.406 36.4246 455.726 35.5446C456.059 34.6513 456.519 33.898 457.106 33.2846C457.706 32.658 458.412 32.178 459.226 31.8446C460.039 31.5113 460.926 31.3446 461.886 31.3446C462.832 31.3446 463.686 31.498 464.446 31.8046C465.206 32.098 465.852 32.538 466.386 33.1246C466.932 33.698 467.346 34.398 467.626 35.2246C467.919 36.0513 468.066 36.9913 468.066 38.0446C468.066 39.1513 467.899 40.1446 467.566 41.0246C467.246 41.9046 466.786 42.658 466.186 43.2846C465.599 43.898 464.899 44.3713 464.086 44.7046C463.272 45.038 462.379 45.2046 461.406 45.2046C460.472 45.2046 459.626 45.058 458.866 44.7646C458.106 44.458 457.452 44.018 456.906 43.4446C456.372 42.8713 455.959 42.1713 455.666 41.3446C455.386 40.518 455.246 39.578 455.246 38.5246ZM457.606 38.2446C457.606 39.1246 457.712 39.898 457.926 40.5646C458.139 41.218 458.426 41.7713 458.786 42.2246C459.159 42.6646 459.592 42.998 460.086 43.2246C460.592 43.4513 461.132 43.5646 461.706 43.5646C462.266 43.5646 462.786 43.458 463.266 43.2446C463.759 43.018 464.186 42.6846 464.546 42.2446C464.906 41.8046 465.186 41.258 465.386 40.6046C465.599 39.9513 465.706 39.1913 465.706 38.3246C465.706 37.4446 465.599 36.6713 465.386 36.0046C465.172 35.338 464.879 34.7846 464.506 34.3446C464.132 33.8913 463.699 33.5513 463.206 33.3246C462.712 33.098 462.179 32.9846 461.606 32.9846C461.046 32.9846 460.519 33.098 460.026 33.3246C459.546 33.538 459.126 33.8646 458.766 34.3046C458.406 34.7446 458.119 35.2913 457.906 35.9446C457.706 36.598 457.606 37.3646 457.606 38.2446ZM471.135 36.7646L470.075 36.5846C469.835 36.5313 469.668 36.458 469.575 36.3646C469.481 36.258 469.435 36.118 469.435 35.9446C469.435 35.7446 469.481 35.598 469.575 35.5046C469.668 35.398 469.841 35.3046 470.095 35.2246C470.348 35.158 470.635 35.1046 470.955 35.0646C471.288 35.0246 471.608 35.0046 471.915 35.0046C472.368 35.0046 472.681 35.0913 472.855 35.2646C473.041 35.438 473.135 35.7446 473.135 36.1846V36.7646L473.175 36.7846C473.308 36.4913 473.468 36.2313 473.655 36.0046C473.841 35.7646 474.048 35.5646 474.275 35.4046C474.501 35.2313 474.741 35.098 474.995 35.0046C475.261 34.9113 475.541 34.8646 475.835 34.8646C476.155 34.8646 476.395 34.9513 476.555 35.1246C476.728 35.2846 476.815 35.5113 476.815 35.8046C476.815 36.0446 476.788 36.258 476.735 36.4446C476.681 36.618 476.608 36.7646 476.515 36.8846C476.435 37.0046 476.341 37.098 476.235 37.1646C476.128 37.2313 476.028 37.2646 475.935 37.2646C475.841 37.2646 475.761 37.2513 475.695 37.2246C475.628 37.198 475.561 37.1713 475.495 37.1446C475.441 37.118 475.375 37.098 475.295 37.0846C475.228 37.058 475.148 37.0446 475.055 37.0446C474.761 37.0446 474.468 37.1246 474.175 37.2846C473.881 37.4313 473.601 37.6846 473.335 38.0446V43.3846L474.455 43.6646C474.708 43.718 474.875 43.798 474.955 43.9046C475.048 43.998 475.095 44.138 475.095 44.3246C475.095 44.5246 475.021 44.6913 474.875 44.8246C474.741 44.9446 474.548 45.0046 474.295 45.0046H470.275C470.021 45.0046 469.828 44.9446 469.695 44.8246C469.561 44.6913 469.495 44.5246 469.495 44.3246C469.495 44.138 469.535 43.998 469.615 43.9046C469.708 43.8113 469.881 43.7313 470.135 43.6646L471.135 43.3846V36.7646ZM484.508 32.2646L483.428 32.0846C483.188 32.0313 483.021 31.958 482.928 31.8646C482.848 31.758 482.808 31.618 482.808 31.4446C482.808 31.2446 482.855 31.098 482.948 31.0046C483.041 30.898 483.208 30.8046 483.448 30.7246C483.701 30.658 483.995 30.6046 484.328 30.5646C484.661 30.5113 485.001 30.4846 485.348 30.4846C485.868 30.4846 486.221 30.5846 486.408 30.7846C486.595 30.9713 486.688 31.318 486.688 31.8246V43.3846L487.648 43.5046C487.875 43.558 488.035 43.6313 488.128 43.7246C488.221 43.818 488.268 43.958 488.268 44.1446C488.268 44.3313 488.215 44.478 488.108 44.5846C488.015 44.678 487.855 44.7646 487.628 44.8446C487.388 44.9246 487.121 44.9913 486.828 45.0446C486.535 45.098 486.228 45.1246 485.908 45.1246C485.495 45.1246 485.188 45.0246 484.988 44.8246C484.801 44.6246 484.708 44.3313 484.708 43.9446V43.6246L484.668 43.6046C484.495 43.898 484.268 44.1646 483.988 44.4046C483.735 44.6046 483.408 44.7913 483.008 44.9646C482.621 45.1246 482.141 45.2046 481.568 45.2046C480.368 45.2046 479.408 44.8113 478.688 44.0246C477.981 43.238 477.628 42.038 477.628 40.4246C477.628 39.5713 477.755 38.8046 478.008 38.1246C478.261 37.4313 478.621 36.8513 479.088 36.3846C479.555 35.9046 480.121 35.538 480.788 35.2846C481.468 35.0313 482.228 34.9046 483.068 34.9046C483.281 34.9046 483.475 34.918 483.648 34.9446C483.821 34.958 483.975 34.9713 484.108 34.9846C484.255 35.0246 484.388 35.0513 484.508 35.0646L484.548 35.0246C484.535 34.8513 484.521 34.678 484.508 34.5046C484.508 34.318 484.508 34.1113 484.508 33.8846V32.2646ZM484.508 36.8846C484.375 36.818 484.221 36.7513 484.048 36.6846C483.888 36.6313 483.695 36.5846 483.468 36.5446C483.255 36.5046 483.008 36.4846 482.728 36.4846C481.861 36.4846 481.168 36.7713 480.648 37.3446C480.141 37.918 479.888 38.8513 479.888 40.1446C479.888 41.3446 480.115 42.2113 480.568 42.7446C481.021 43.2646 481.601 43.5246 482.308 43.5246C482.668 43.5246 482.981 43.4713 483.248 43.3646C483.528 43.258 483.761 43.1313 483.948 42.9846C484.161 42.8246 484.348 42.638 484.508 42.4246V36.8846ZM491.684 40.3246C491.737 41.3913 492.037 42.2046 492.584 42.7646C493.144 43.3113 493.911 43.5846 494.884 43.5846C495.217 43.5846 495.497 43.5646 495.724 43.5246C495.964 43.4846 496.171 43.4446 496.344 43.4046C496.517 43.3513 496.664 43.3046 496.784 43.2646C496.904 43.2246 497.017 43.2046 497.124 43.2046C497.311 43.2046 497.451 43.258 497.544 43.3646C497.637 43.458 497.684 43.598 497.684 43.7846C497.684 43.8913 497.664 43.9913 497.624 44.0846C497.597 44.178 497.537 44.2646 497.444 44.3446C497.244 44.5446 496.871 44.738 496.324 44.9246C495.791 45.1113 495.104 45.2046 494.264 45.2046C493.517 45.2046 492.844 45.098 492.244 44.8846C491.644 44.6713 491.137 44.358 490.724 43.9446C490.324 43.518 490.011 42.998 489.784 42.3846C489.571 41.7713 489.464 41.0713 489.464 40.2846C489.464 39.458 489.584 38.7113 489.824 38.0446C490.064 37.378 490.397 36.818 490.824 36.3646C491.264 35.898 491.777 35.538 492.364 35.2846C492.951 35.0313 493.591 34.9046 494.284 34.9046C495.471 34.9046 496.404 35.258 497.084 35.9646C497.764 36.658 498.104 37.6646 498.104 38.9846C498.104 39.438 497.997 39.778 497.784 40.0046C497.584 40.218 497.284 40.3246 496.884 40.3246H491.684ZM495.944 39.0246C495.917 38.1446 495.724 37.498 495.364 37.0846C495.004 36.6713 494.544 36.4646 493.984 36.4646C493.371 36.4646 492.864 36.6913 492.464 37.1446C492.064 37.598 491.817 38.2246 491.724 39.0246H495.944ZM501.213 36.7646L500.153 36.5846C499.913 36.5313 499.746 36.458 499.653 36.3646C499.559 36.258 499.513 36.118 499.513 35.9446C499.513 35.7446 499.559 35.598 499.653 35.5046C499.746 35.398 499.919 35.3046 500.173 35.2246C500.426 35.158 500.713 35.1046 501.033 35.0646C501.366 35.0246 501.686 35.0046 501.993 35.0046C502.446 35.0046 502.759 35.0913 502.933 35.2646C503.119 35.438 503.213 35.7446 503.213 36.1846V36.7646L503.253 36.7846C503.386 36.4913 503.546 36.2313 503.733 36.0046C503.919 35.7646 504.126 35.5646 504.353 35.4046C504.579 35.2313 504.819 35.098 505.073 35.0046C505.339 34.9113 505.619 34.8646 505.913 34.8646C506.233 34.8646 506.473 34.9513 506.633 35.1246C506.806 35.2846 506.893 35.5113 506.893 35.8046C506.893 36.0446 506.866 36.258 506.813 36.4446C506.759 36.618 506.686 36.7646 506.593 36.8846C506.513 37.0046 506.419 37.098 506.313 37.1646C506.206 37.2313 506.106 37.2646 506.013 37.2646C505.919 37.2646 505.839 37.2513 505.773 37.2246C505.706 37.198 505.639 37.1713 505.573 37.1446C505.519 37.118 505.453 37.098 505.373 37.0846C505.306 37.058 505.226 37.0446 505.133 37.0446C504.839 37.0446 504.546 37.1246 504.253 37.2846C503.959 37.4313 503.679 37.6846 503.413 38.0446V43.3846L504.533 43.6646C504.786 43.718 504.953 43.798 505.033 43.9046C505.126 43.998 505.173 44.138 505.173 44.3246C505.173 44.5246 505.099 44.6913 504.953 44.8246C504.819 44.9446 504.626 45.0046 504.373 45.0046H500.353C500.099 45.0046 499.906 44.9446 499.773 44.8246C499.639 44.6913 499.573 44.5246 499.573 44.3246C499.573 44.138 499.613 43.998 499.693 43.9046C499.786 43.8113 499.959 43.7313 500.213 43.6646L501.213 43.3846V36.7646ZM514.533 36.6246H513.593C513.086 36.6246 512.833 36.4046 512.833 35.9646C512.833 35.7113 512.913 35.5046 513.073 35.3446C513.233 35.1846 513.466 35.1046 513.773 35.1046H514.533V34.5246C514.533 33.1913 514.88 32.1713 515.573 31.4646C516.266 30.758 517.246 30.4046 518.513 30.4046C518.9 30.4046 519.226 30.4446 519.493 30.5246C519.76 30.5913 519.94 30.678 520.033 30.7846C520.086 30.8246 520.126 30.8713 520.153 30.9246C520.18 30.978 520.2 31.0446 520.213 31.1246C520.24 31.1913 520.26 31.2913 520.273 31.4246C520.286 31.558 520.293 31.718 520.293 31.9046V32.0446C520.293 32.1913 520.293 32.318 520.293 32.4246C520.293 32.5313 520.286 32.698 520.273 32.9246C520.26 33.1513 520.193 33.318 520.073 33.4246C519.966 33.518 519.826 33.5646 519.653 33.5646C519.466 33.5646 519.313 33.5113 519.193 33.4046C519.086 33.298 519 33.1246 518.933 32.8846L518.673 31.9846C518.633 31.9846 518.593 31.978 518.553 31.9646C518.5 31.9513 518.44 31.9446 518.373 31.9446C518.32 31.9313 518.246 31.9246 518.153 31.9246C517.686 31.9246 517.333 32.0646 517.093 32.3446C516.853 32.6246 516.733 33.1246 516.733 33.8446V35.1046H518.353C518.86 35.1046 519.113 35.3246 519.113 35.7646C519.113 36.0313 519.033 36.2446 518.873 36.4046C518.713 36.5513 518.48 36.6246 518.173 36.6246H516.733V43.3846L517.853 43.6646C518.106 43.718 518.273 43.798 518.353 43.9046C518.446 43.998 518.493 44.138 518.493 44.3246C518.493 44.5246 518.42 44.6913 518.273 44.8246C518.14 44.9446 517.946 45.0046 517.693 45.0046H513.673C513.42 45.0046 513.226 44.9446 513.093 44.8246C512.96 44.6913 512.893 44.5246 512.893 44.3246C512.893 44.138 512.933 43.998 513.013 43.9046C513.106 43.8113 513.28 43.7313 513.533 43.6646L514.533 43.3846V36.6246ZM521.545 36.7646L520.485 36.5846C520.245 36.5313 520.078 36.458 519.985 36.3646C519.891 36.258 519.845 36.118 519.845 35.9446C519.845 35.7446 519.891 35.598 519.985 35.5046C520.078 35.398 520.251 35.3046 520.505 35.2246C520.758 35.158 521.045 35.1046 521.365 35.0646C521.698 35.0246 522.018 35.0046 522.325 35.0046C522.778 35.0046 523.091 35.0913 523.265 35.2646C523.451 35.438 523.545 35.7446 523.545 36.1846V36.7646L523.585 36.7846C523.718 36.4913 523.878 36.2313 524.065 36.0046C524.251 35.7646 524.458 35.5646 524.685 35.4046C524.911 35.2313 525.151 35.098 525.405 35.0046C525.671 34.9113 525.951 34.8646 526.245 34.8646C526.565 34.8646 526.805 34.9513 526.965 35.1246C527.138 35.2846 527.225 35.5113 527.225 35.8046C527.225 36.0446 527.198 36.258 527.145 36.4446C527.091 36.618 527.018 36.7646 526.925 36.8846C526.845 37.0046 526.751 37.098 526.645 37.1646C526.538 37.2313 526.438 37.2646 526.345 37.2646C526.251 37.2646 526.171 37.2513 526.105 37.2246C526.038 37.198 525.971 37.1713 525.905 37.1446C525.851 37.118 525.785 37.098 525.705 37.0846C525.638 37.058 525.558 37.0446 525.465 37.0446C525.171 37.0446 524.878 37.1246 524.585 37.2846C524.291 37.4313 524.011 37.6846 523.745 38.0446V43.3846L524.865 43.6646C525.118 43.718 525.285 43.798 525.365 43.9046C525.458 43.998 525.505 44.138 525.505 44.3246C525.505 44.5246 525.431 44.6913 525.285 44.8246C525.151 44.9446 524.958 45.0046 524.705 45.0046H520.685C520.431 45.0046 520.238 44.9446 520.105 44.8246C519.971 44.6913 519.905 44.5246 519.905 44.3246C519.905 44.138 519.945 43.998 520.025 43.9046C520.118 43.8113 520.291 43.7313 520.545 43.6646L521.545 43.3846V36.7646ZM530.258 40.3246C530.312 41.3913 530.612 42.2046 531.158 42.7646C531.718 43.3113 532.485 43.5846 533.458 43.5846C533.792 43.5846 534.072 43.5646 534.298 43.5246C534.538 43.4846 534.745 43.4446 534.918 43.4046C535.092 43.3513 535.238 43.3046 535.358 43.2646C535.478 43.2246 535.592 43.2046 535.698 43.2046C535.885 43.2046 536.025 43.258 536.118 43.3646C536.212 43.458 536.258 43.598 536.258 43.7846C536.258 43.8913 536.238 43.9913 536.198 44.0846C536.172 44.178 536.112 44.2646 536.018 44.3446C535.818 44.5446 535.445 44.738 534.898 44.9246C534.365 45.1113 533.678 45.2046 532.838 45.2046C532.092 45.2046 531.418 45.098 530.818 44.8846C530.218 44.6713 529.712 44.358 529.298 43.9446C528.898 43.518 528.585 42.998 528.358 42.3846C528.145 41.7713 528.038 41.0713 528.038 40.2846C528.038 39.458 528.158 38.7113 528.398 38.0446C528.638 37.378 528.972 36.818 529.398 36.3646C529.838 35.898 530.352 35.538 530.938 35.2846C531.525 35.0313 532.165 34.9046 532.858 34.9046C534.045 34.9046 534.978 35.258 535.658 35.9646C536.338 36.658 536.678 37.6646 536.678 38.9846C536.678 39.438 536.572 39.778 536.358 40.0046C536.158 40.218 535.858 40.3246 535.458 40.3246H530.258ZM534.518 39.0246C534.492 38.1446 534.298 37.498 533.938 37.0846C533.578 36.6713 533.118 36.4646 532.558 36.4646C531.945 36.4646 531.438 36.6913 531.038 37.1446C530.638 37.598 530.392 38.2246 530.298 39.0246H534.518ZM540.467 43.4246C540.587 43.4913 540.727 43.5446 540.887 43.5846C541.02 43.6246 541.194 43.658 541.407 43.6846C541.62 43.7113 541.867 43.7246 542.147 43.7246C542.814 43.7246 543.28 43.6113 543.547 43.3846C543.827 43.1446 543.967 42.838 543.967 42.4646C543.967 42.118 543.834 41.8446 543.567 41.6446C543.314 41.4446 542.994 41.2713 542.607 41.1246C542.22 40.9646 541.8 40.8113 541.347 40.6646C540.894 40.5046 540.474 40.3113 540.087 40.0846C539.714 39.858 539.394 39.5646 539.127 39.2046C538.874 38.8446 538.747 38.378 538.747 37.8046C538.747 37.418 538.827 37.0513 538.987 36.7046C539.16 36.3446 539.414 36.0313 539.747 35.7646C540.094 35.498 540.527 35.2913 541.047 35.1446C541.567 34.9846 542.174 34.9046 542.867 34.9046C543.587 34.9046 544.147 34.9646 544.547 35.0846C544.96 35.2046 545.234 35.3313 545.367 35.4646C545.474 35.558 545.547 35.678 545.587 35.8246C545.627 35.958 545.647 36.178 545.647 36.4846V36.6046C545.647 36.7646 545.647 36.9046 545.647 37.0246C545.647 37.1446 545.64 37.2913 545.627 37.4646C545.6 37.6913 545.527 37.858 545.407 37.9646C545.3 38.058 545.154 38.1046 544.967 38.1046C544.794 38.1046 544.654 38.058 544.547 37.9646C544.44 37.858 544.347 37.6913 544.267 37.4646L544.027 36.6246C543.907 36.598 543.767 36.558 543.607 36.5046C543.487 36.478 543.334 36.4513 543.147 36.4246C542.96 36.398 542.754 36.3846 542.527 36.3846C541.9 36.3846 541.467 36.4846 541.227 36.6846C540.987 36.8846 540.867 37.1513 540.867 37.4846C540.867 37.8046 540.994 38.0646 541.247 38.2646C541.514 38.4513 541.84 38.618 542.227 38.7646C542.614 38.898 543.034 39.0446 543.487 39.2046C543.94 39.3513 544.36 39.5446 544.747 39.7846C545.134 40.0246 545.454 40.3313 545.707 40.7046C545.96 41.0646 546.087 41.538 546.087 42.1246C546.087 42.5513 546 42.9513 545.827 43.3246C545.654 43.698 545.387 44.0246 545.027 44.3046C544.68 44.5713 544.234 44.7913 543.687 44.9646C543.154 45.1246 542.52 45.2046 541.787 45.2046C541.014 45.2046 540.407 45.138 539.967 45.0046C539.527 44.8713 539.24 44.738 539.107 44.6046C539 44.498 538.927 44.378 538.887 44.2446C538.847 44.1113 538.827 43.8846 538.827 43.5646V43.4046C538.827 43.258 538.827 43.1246 538.827 43.0046C538.827 42.8713 538.834 42.718 538.847 42.5446C538.874 42.318 538.94 42.158 539.047 42.0646C539.167 41.958 539.32 41.9046 539.507 41.9046C539.68 41.9046 539.82 41.958 539.927 42.0646C540.034 42.158 540.127 42.318 540.207 42.5446L540.467 43.4246ZM548.961 32.2646L548.021 32.0846C547.781 32.0446 547.614 31.9713 547.521 31.8646C547.427 31.758 547.381 31.618 547.381 31.4446C547.381 31.2446 547.427 31.098 547.521 31.0046C547.614 30.898 547.787 30.8046 548.041 30.7246C548.267 30.6713 548.547 30.618 548.881 30.5646C549.214 30.5113 549.527 30.4846 549.821 30.4846C550.341 30.4846 550.694 30.5846 550.881 30.7846C551.067 30.9713 551.161 31.318 551.161 31.8246V34.8446C551.161 35.098 551.147 35.358 551.121 35.6246C551.094 35.878 551.067 36.1246 551.041 36.3646L551.081 36.3846C551.254 36.118 551.481 35.8713 551.761 35.6446C552.001 35.4713 552.307 35.3113 552.681 35.1646C553.054 35.0046 553.527 34.9246 554.101 34.9246C555.261 34.9246 556.154 35.2446 556.781 35.8846C557.407 36.5113 557.721 37.458 557.721 38.7246V43.3846L558.621 43.6446C558.861 43.7113 559.021 43.798 559.101 43.9046C559.194 43.998 559.241 44.138 559.241 44.3246C559.241 44.5246 559.167 44.6913 559.021 44.8246C558.887 44.9446 558.694 45.0046 558.441 45.0046H554.821C554.567 45.0046 554.367 44.9446 554.221 44.8246C554.087 44.6913 554.021 44.5246 554.021 44.3246C554.021 44.138 554.061 43.998 554.141 43.9046C554.234 43.798 554.401 43.7113 554.641 43.6446L555.521 43.3846V39.2846C555.521 38.3113 555.334 37.618 554.961 37.2046C554.587 36.7913 554.047 36.5846 553.341 36.5846C552.981 36.5846 552.667 36.6446 552.401 36.7646C552.134 36.8713 551.907 36.998 551.721 37.1446C551.507 37.318 551.321 37.498 551.161 37.6846V43.3846L552.041 43.6446C552.281 43.7113 552.441 43.798 552.521 43.9046C552.614 43.998 552.661 44.138 552.661 44.3246C552.661 44.5246 552.587 44.6913 552.441 44.8246C552.307 44.9446 552.114 45.0046 551.861 45.0046H548.221C547.967 45.0046 547.774 44.9446 547.641 44.8246C547.507 44.6913 547.441 44.5246 547.441 44.3246C547.441 44.138 547.481 43.998 547.561 43.9046C547.641 43.798 547.794 43.7113 548.021 43.6446L548.961 43.3846V32.2646ZM571.496 36.6046C571.429 36.5913 571.362 36.5713 571.296 36.5446C571.216 36.5313 571.122 36.518 571.016 36.5046C570.922 36.478 570.809 36.4646 570.676 36.4646C569.862 36.4646 569.189 36.7646 568.656 37.3646C568.136 37.9513 567.876 38.8646 567.876 40.1046C567.876 41.2646 568.142 42.138 568.676 42.7246C569.209 43.298 569.936 43.5846 570.856 43.5846C571.109 43.5846 571.329 43.5646 571.516 43.5246C571.716 43.4846 571.889 43.4513 572.036 43.4246C572.182 43.3846 572.309 43.3513 572.416 43.3246C572.522 43.2846 572.622 43.2646 572.716 43.2646C572.902 43.2646 573.042 43.318 573.136 43.4246C573.242 43.518 573.296 43.658 573.296 43.8446C573.296 44.0446 573.209 44.2313 573.036 44.4046C572.942 44.498 572.809 44.5913 572.636 44.6846C572.462 44.778 572.256 44.8646 572.016 44.9446C571.789 45.0246 571.522 45.0846 571.216 45.1246C570.922 45.178 570.602 45.2046 570.256 45.2046C568.829 45.2046 567.702 44.7846 566.876 43.9446C566.049 43.1046 565.636 41.9246 565.636 40.4046C565.636 39.578 565.762 38.8246 566.016 38.1446C566.282 37.4646 566.649 36.8846 567.116 36.4046C567.582 35.9246 568.136 35.558 568.776 35.3046C569.416 35.038 570.129 34.9046 570.916 34.9046C571.462 34.9046 571.902 34.958 572.236 35.0646C572.582 35.158 572.836 35.2846 572.996 35.4446C573.089 35.538 573.156 35.6646 573.196 35.8246C573.236 35.9846 573.256 36.2846 573.256 36.7246V36.8646C573.256 37.0513 573.256 37.218 573.256 37.3646C573.256 37.498 573.249 37.698 573.236 37.9646C573.222 38.2046 573.156 38.378 573.036 38.4846C572.929 38.5913 572.782 38.6446 572.596 38.6446C572.409 38.6446 572.256 38.5913 572.136 38.4846C572.029 38.378 571.942 38.2046 571.876 37.9646L571.496 36.6046ZM574.952 40.3046C574.952 39.4913 575.079 38.7513 575.332 38.0846C575.586 37.418 575.939 36.8513 576.392 36.3846C576.859 35.918 577.412 35.558 578.052 35.3046C578.692 35.038 579.392 34.9046 580.152 34.9046C581.619 34.9046 582.766 35.3313 583.592 36.1846C584.432 37.038 584.852 38.2446 584.852 39.8046C584.852 40.618 584.726 41.358 584.472 42.0246C584.232 42.6913 583.886 43.2646 583.432 43.7446C582.979 44.2113 582.432 44.5713 581.792 44.8246C581.152 45.078 580.439 45.2046 579.652 45.2046C578.199 45.2046 577.052 44.778 576.212 43.9246C575.372 43.0713 574.952 41.8646 574.952 40.3046ZM577.212 40.0246C577.212 40.6246 577.286 41.1513 577.432 41.6046C577.579 42.0446 577.772 42.418 578.012 42.7246C578.252 43.0313 578.539 43.258 578.872 43.4046C579.206 43.5513 579.566 43.6246 579.952 43.6246C580.712 43.6246 581.339 43.338 581.832 42.7646C582.339 42.1913 582.592 41.3046 582.592 40.1046C582.592 39.5046 582.519 38.978 582.372 38.5246C582.239 38.0713 582.046 37.698 581.792 37.4046C581.552 37.098 581.266 36.8713 580.932 36.7246C580.599 36.5646 580.246 36.4846 579.872 36.4846C579.112 36.4846 578.479 36.7713 577.972 37.3446C577.466 37.918 577.212 38.8113 577.212 40.0246ZM587.892 36.6246H586.952C586.446 36.6246 586.192 36.4046 586.192 35.9646C586.192 35.7113 586.272 35.5046 586.432 35.3446C586.592 35.1846 586.826 35.1046 587.132 35.1046H587.892V34.5246C587.892 33.1913 588.239 32.1713 588.932 31.4646C589.626 30.758 590.606 30.4046 591.872 30.4046C592.259 30.4046 592.586 30.4446 592.852 30.5246C593.119 30.5913 593.299 30.678 593.392 30.7846C593.446 30.8246 593.486 30.8713 593.512 30.9246C593.539 30.978 593.559 31.0446 593.572 31.1246C593.599 31.1913 593.619 31.2913 593.632 31.4246C593.646 31.558 593.652 31.718 593.652 31.9046V32.0446C593.652 32.1913 593.652 32.318 593.652 32.4246C593.652 32.5313 593.646 32.698 593.632 32.9246C593.619 33.1513 593.552 33.318 593.432 33.4246C593.326 33.518 593.186 33.5646 593.012 33.5646C592.826 33.5646 592.672 33.5113 592.552 33.4046C592.446 33.298 592.359 33.1246 592.292 32.8846L592.032 31.9846C591.992 31.9846 591.952 31.978 591.912 31.9646C591.859 31.9513 591.799 31.9446 591.732 31.9446C591.679 31.9313 591.606 31.9246 591.512 31.9246C591.046 31.9246 590.692 32.0646 590.452 32.3446C590.212 32.6246 590.092 33.1246 590.092 33.8446V35.1046H591.712C592.219 35.1046 592.472 35.3246 592.472 35.7646C592.472 36.0313 592.392 36.2446 592.232 36.4046C592.072 36.5513 591.839 36.6246 591.532 36.6246H590.092V43.3846L591.212 43.6646C591.466 43.718 591.632 43.798 591.712 43.9046C591.806 43.998 591.852 44.138 591.852 44.3246C591.852 44.5246 591.779 44.6913 591.632 44.8246C591.499 44.9446 591.306 45.0046 591.052 45.0046H587.032C586.779 45.0046 586.586 44.9446 586.452 44.8246C586.319 44.6913 586.252 44.5246 586.252 44.3246C586.252 44.138 586.292 43.998 586.372 43.9046C586.466 43.8113 586.639 43.7313 586.892 43.6646L587.892 43.3846V36.6246ZM594.904 36.6246H593.964C593.457 36.6246 593.204 36.4046 593.204 35.9646C593.204 35.7113 593.284 35.5046 593.444 35.3446C593.604 35.1846 593.837 35.1046 594.144 35.1046H594.904V34.5246C594.904 33.1913 595.251 32.1713 595.944 31.4646C596.637 30.758 597.617 30.4046 598.884 30.4046C599.271 30.4046 599.597 30.4446 599.864 30.5246C600.131 30.5913 600.311 30.678 600.404 30.7846C600.457 30.8246 600.497 30.8713 600.524 30.9246C600.551 30.978 600.571 31.0446 600.584 31.1246C600.611 31.1913 600.631 31.2913 600.644 31.4246C600.657 31.558 600.664 31.718 600.664 31.9046V32.0446C600.664 32.1913 600.664 32.318 600.664 32.4246C600.664 32.5313 600.657 32.698 600.644 32.9246C600.631 33.1513 600.564 33.318 600.444 33.4246C600.337 33.518 600.197 33.5646 600.024 33.5646C599.837 33.5646 599.684 33.5113 599.564 33.4046C599.457 33.298 599.371 33.1246 599.304 32.8846L599.044 31.9846C599.004 31.9846 598.964 31.978 598.924 31.9646C598.871 31.9513 598.811 31.9446 598.744 31.9446C598.691 31.9313 598.617 31.9246 598.524 31.9246C598.057 31.9246 597.704 32.0646 597.464 32.3446C597.224 32.6246 597.104 33.1246 597.104 33.8446V35.1046H598.724C599.231 35.1046 599.484 35.3246 599.484 35.7646C599.484 36.0313 599.404 36.2446 599.244 36.4046C599.084 36.5513 598.851 36.6246 598.544 36.6246H597.104V43.3846L598.224 43.6646C598.477 43.718 598.644 43.798 598.724 43.9046C598.817 43.998 598.864 44.138 598.864 44.3246C598.864 44.5246 598.791 44.6913 598.644 44.8246C598.511 44.9446 598.317 45.0046 598.064 45.0046H594.044C593.791 45.0046 593.597 44.9446 593.464 44.8246C593.331 44.6913 593.264 44.5246 593.264 44.3246C593.264 44.138 593.304 43.998 593.384 43.9046C593.477 43.8113 593.651 43.7313 593.904 43.6646L594.904 43.3846V36.6246ZM602.7 40.3246C602.753 41.3913 603.053 42.2046 603.6 42.7646C604.16 43.3113 604.926 43.5846 605.9 43.5846C606.233 43.5846 606.513 43.5646 606.74 43.5246C606.98 43.4846 607.186 43.4446 607.36 43.4046C607.533 43.3513 607.68 43.3046 607.8 43.2646C607.92 43.2246 608.033 43.2046 608.14 43.2046C608.326 43.2046 608.466 43.258 608.56 43.3646C608.653 43.458 608.7 43.598 608.7 43.7846C608.7 43.8913 608.68 43.9913 608.64 44.0846C608.613 44.178 608.553 44.2646 608.46 44.3446C608.26 44.5446 607.886 44.738 607.34 44.9246C606.806 45.1113 606.12 45.2046 605.28 45.2046C604.533 45.2046 603.86 45.098 603.26 44.8846C602.66 44.6713 602.153 44.358 601.74 43.9446C601.34 43.518 601.026 42.998 600.8 42.3846C600.586 41.7713 600.48 41.0713 600.48 40.2846C600.48 39.458 600.6 38.7113 600.84 38.0446C601.08 37.378 601.413 36.818 601.84 36.3646C602.28 35.898 602.793 35.538 603.38 35.2846C603.966 35.0313 604.606 34.9046 605.3 34.9046C606.486 34.9046 607.42 35.258 608.1 35.9646C608.78 36.658 609.12 37.6646 609.12 38.9846C609.12 39.438 609.013 39.778 608.8 40.0046C608.6 40.218 608.3 40.3246 607.9 40.3246H602.7ZM606.96 39.0246C606.933 38.1446 606.74 37.498 606.38 37.0846C606.02 36.6713 605.56 36.4646 605 36.4646C604.386 36.4646 603.88 36.6913 603.48 37.1446C603.08 37.598 602.833 38.2246 602.74 39.0246H606.96ZM613.168 40.3246C613.222 41.3913 613.522 42.2046 614.068 42.7646C614.628 43.3113 615.395 43.5846 616.368 43.5846C616.702 43.5846 616.982 43.5646 617.208 43.5246C617.448 43.4846 617.655 43.4446 617.828 43.4046C618.002 43.3513 618.148 43.3046 618.268 43.2646C618.388 43.2246 618.502 43.2046 618.608 43.2046C618.795 43.2046 618.935 43.258 619.028 43.3646C619.122 43.458 619.168 43.598 619.168 43.7846C619.168 43.8913 619.148 43.9913 619.108 44.0846C619.082 44.178 619.022 44.2646 618.928 44.3446C618.728 44.5446 618.355 44.738 617.808 44.9246C617.275 45.1113 616.588 45.2046 615.748 45.2046C615.002 45.2046 614.328 45.098 613.728 44.8846C613.128 44.6713 612.622 44.358 612.208 43.9446C611.808 43.518 611.495 42.998 611.268 42.3846C611.055 41.7713 610.948 41.0713 610.948 40.2846C610.948 39.458 611.068 38.7113 611.308 38.0446C611.548 37.378 611.882 36.818 612.308 36.3646C612.748 35.898 613.262 35.538 613.848 35.2846C614.435 35.0313 615.075 34.9046 615.768 34.9046C616.955 34.9046 617.888 35.258 618.568 35.9646C619.248 36.658 619.588 37.6646 619.588 38.9846C619.588 39.438 619.482 39.778 619.268 40.0046C619.068 40.218 618.768 40.3246 618.368 40.3246H613.168ZM617.428 39.0246C617.402 38.1446 617.208 37.498 616.848 37.0846C616.488 36.6713 616.028 36.4646 615.468 36.4646C614.855 36.4646 614.348 36.6913 613.948 37.1446C613.548 37.598 613.302 38.2246 613.208 39.0246H617.428ZM627.112 36.7246L626.632 36.5446C626.352 36.4513 626.159 36.338 626.052 36.2046C625.959 36.058 625.912 35.8846 625.912 35.6846C625.912 35.5246 625.972 35.3913 626.092 35.2846C626.212 35.1646 626.385 35.1046 626.612 35.1046H629.952C630.179 35.1046 630.352 35.1646 630.472 35.2846C630.592 35.3913 630.652 35.5246 630.652 35.6846C630.652 35.8846 630.599 36.0446 630.492 36.1646C630.399 36.2713 630.212 36.3846 629.932 36.5046L629.372 36.7046L630.752 41.2246C630.819 41.4646 630.879 41.698 630.932 41.9246C630.999 42.138 631.052 42.3246 631.092 42.4846C631.132 42.6846 631.165 42.8713 631.192 43.0446H631.232C631.259 42.858 631.292 42.6646 631.332 42.4646C631.359 42.3046 631.392 42.118 631.432 41.9046C631.485 41.6913 631.545 41.4646 631.612 41.2246L632.892 36.4046C633.025 35.8713 633.212 35.5113 633.452 35.3246C633.705 35.1246 634.039 35.0246 634.452 35.0246C634.865 35.0246 635.192 35.118 635.432 35.3046C635.672 35.4913 635.859 35.8513 635.992 36.3846L637.292 41.2246C637.359 41.4646 637.412 41.698 637.452 41.9246C637.492 42.138 637.525 42.3313 637.552 42.5046C637.592 42.6913 637.625 42.8713 637.652 43.0446H637.692C637.719 42.8846 637.759 42.7046 637.812 42.5046C637.852 42.3313 637.899 42.138 637.952 41.9246C638.005 41.698 638.072 41.4646 638.152 41.2246L639.532 36.7046L638.972 36.5046C638.692 36.3846 638.499 36.2713 638.392 36.1646C638.285 36.0446 638.232 35.8846 638.232 35.6846C638.232 35.5246 638.292 35.3913 638.412 35.2846C638.532 35.1646 638.705 35.1046 638.932 35.1046H641.832C642.072 35.1046 642.252 35.1646 642.372 35.2846C642.492 35.3913 642.552 35.5246 642.552 35.6846C642.552 35.8846 642.499 36.058 642.392 36.2046C642.299 36.338 642.112 36.4513 641.832 36.5446L641.352 36.7246L639.052 43.7446C638.865 44.278 638.659 44.638 638.432 44.8246C638.205 45.0113 637.879 45.1046 637.452 45.1046C637.039 45.1046 636.712 45.0113 636.472 44.8246C636.245 44.638 636.065 44.278 635.932 43.7446L634.652 38.9046C634.585 38.678 634.525 38.4513 634.472 38.2246C634.419 37.998 634.379 37.7913 634.352 37.6046C634.312 37.4046 634.279 37.2113 634.252 37.0246H634.212C634.185 37.2113 634.152 37.4046 634.112 37.6046C634.072 37.7913 634.025 37.998 633.972 38.2246C633.932 38.4513 633.879 38.6846 633.812 38.9246L632.532 43.7446C632.399 44.278 632.205 44.638 631.952 44.8246C631.712 45.0113 631.405 45.1046 631.032 45.1046C630.805 45.1046 630.612 45.078 630.452 45.0246C630.292 44.9846 630.145 44.918 630.012 44.8246C629.892 44.718 629.785 44.578 629.692 44.4046C629.599 44.2313 629.505 44.0113 629.412 43.7446L627.112 36.7246ZM644.865 36.7646L643.805 36.5846C643.565 36.5313 643.398 36.458 643.305 36.3646C643.212 36.258 643.165 36.118 643.165 35.9446C643.165 35.7446 643.212 35.598 643.305 35.5046C643.398 35.398 643.572 35.3046 643.825 35.2246C644.078 35.158 644.372 35.1046 644.705 35.0646C645.038 35.0246 645.378 35.0046 645.725 35.0046C646.245 35.0046 646.598 35.098 646.785 35.2846C646.972 35.4713 647.065 35.818 647.065 36.3246V43.3846L648.005 43.6446C648.232 43.698 648.385 43.778 648.465 43.8846C648.545 43.978 648.585 44.1046 648.585 44.2646C648.585 44.4913 648.512 44.6713 648.365 44.8046C648.232 44.938 648.038 45.0046 647.785 45.0046H644.005C643.752 45.0046 643.558 44.9446 643.425 44.8246C643.292 44.6913 643.225 44.5246 643.225 44.3246C643.225 44.138 643.265 43.998 643.345 43.9046C643.438 43.8113 643.612 43.7313 643.865 43.6646L644.865 43.3846V36.7646ZM644.485 32.2446C644.485 31.8313 644.618 31.4913 644.885 31.2246C645.165 30.9446 645.512 30.8046 645.925 30.8046C646.338 30.8046 646.678 30.938 646.945 31.2046C647.212 31.458 647.345 31.7913 647.345 32.2046C647.345 32.6313 647.205 32.9846 646.925 33.2646C646.658 33.5313 646.318 33.6646 645.905 33.6646C645.492 33.6646 645.152 33.538 644.885 33.2846C644.618 33.018 644.485 32.6713 644.485 32.2446ZM650.815 36.6246H649.975C649.455 36.6246 649.195 36.4046 649.195 35.9646C649.195 35.7113 649.275 35.5046 649.435 35.3446C649.595 35.1846 649.828 35.1046 650.135 35.1046H650.835L651.155 33.6246C651.248 33.198 651.375 32.898 651.535 32.7246C651.708 32.538 651.948 32.4446 652.255 32.4446C652.495 32.4446 652.675 32.5046 652.795 32.6246C652.928 32.7446 652.995 32.9246 652.995 33.1646V35.1046H654.915C655.421 35.1046 655.675 35.3246 655.675 35.7646C655.675 36.0313 655.595 36.2446 655.435 36.4046C655.288 36.5513 655.055 36.6246 654.735 36.6246H652.995V41.7846C652.995 42.4246 653.088 42.8713 653.275 43.1246C653.475 43.378 653.768 43.5046 654.155 43.5046C654.435 43.5046 654.655 43.478 654.815 43.4246C654.975 43.3713 655.128 43.3446 655.275 43.3446C655.421 43.3446 655.535 43.3913 655.615 43.4846C655.708 43.578 655.755 43.7113 655.755 43.8846C655.755 44.0046 655.728 44.118 655.675 44.2246C655.635 44.318 655.575 44.4113 655.495 44.5046C655.388 44.598 655.161 44.7246 654.815 44.8846C654.481 45.0446 653.995 45.1246 653.355 45.1246C652.421 45.1246 651.761 44.878 651.375 44.3846C651.001 43.8913 650.815 43.2113 650.815 42.3446V36.6246ZM657.886 32.2646L656.946 32.0846C656.706 32.0446 656.54 31.9713 656.446 31.8646C656.353 31.758 656.306 31.618 656.306 31.4446C656.306 31.2446 656.353 31.098 656.446 31.0046C656.54 30.898 656.713 30.8046 656.966 30.7246C657.193 30.6713 657.473 30.618 657.806 30.5646C658.14 30.5113 658.453 30.4846 658.746 30.4846C659.266 30.4846 659.62 30.5846 659.806 30.7846C659.993 30.9713 660.086 31.318 660.086 31.8246V34.8446C660.086 35.098 660.073 35.358 660.046 35.6246C660.02 35.878 659.993 36.1246 659.966 36.3646L660.006 36.3846C660.18 36.118 660.406 35.8713 660.686 35.6446C660.926 35.4713 661.233 35.3113 661.606 35.1646C661.98 35.0046 662.453 34.9246 663.026 34.9246C664.186 34.9246 665.08 35.2446 665.706 35.8846C666.333 36.5113 666.646 37.458 666.646 38.7246V43.3846L667.546 43.6446C667.786 43.7113 667.946 43.798 668.026 43.9046C668.12 43.998 668.166 44.138 668.166 44.3246C668.166 44.5246 668.093 44.6913 667.946 44.8246C667.813 44.9446 667.62 45.0046 667.366 45.0046H663.746C663.493 45.0046 663.293 44.9446 663.146 44.8246C663.013 44.6913 662.946 44.5246 662.946 44.3246C662.946 44.138 662.986 43.998 663.066 43.9046C663.16 43.798 663.326 43.7113 663.566 43.6446L664.446 43.3846V39.2846C664.446 38.3113 664.26 37.618 663.886 37.2046C663.513 36.7913 662.973 36.5846 662.266 36.5846C661.906 36.5846 661.593 36.6446 661.326 36.7646C661.06 36.8713 660.833 36.998 660.646 37.1446C660.433 37.318 660.246 37.498 660.086 37.6846V43.3846L660.966 43.6446C661.206 43.7113 661.366 43.798 661.446 43.9046C661.54 43.998 661.586 44.138 661.586 44.3246C661.586 44.5246 661.513 44.6913 661.366 44.8246C661.233 44.9446 661.04 45.0046 660.786 45.0046H657.146C656.893 45.0046 656.7 44.9446 656.566 44.8246C656.433 44.6913 656.366 44.5246 656.366 44.3246C656.366 44.138 656.406 43.998 656.486 43.9046C656.566 43.798 656.72 43.7113 656.946 43.6446L657.886 43.3846V32.2646ZM679.042 32.8046C679.148 32.538 679.255 32.318 679.362 32.1446C679.468 31.9713 679.588 31.838 679.722 31.7446C679.868 31.638 680.022 31.5646 680.182 31.5246C680.355 31.4713 680.548 31.4446 680.762 31.4446C680.975 31.4446 681.168 31.4713 681.342 31.5246C681.515 31.5646 681.668 31.638 681.802 31.7446C681.935 31.838 682.055 31.9713 682.162 32.1446C682.268 32.318 682.375 32.538 682.482 32.8046L686.362 43.3646L687.022 43.6046C687.288 43.698 687.462 43.798 687.542 43.9046C687.635 43.998 687.682 44.138 687.682 44.3246C687.682 44.5246 687.615 44.6913 687.482 44.8246C687.348 44.9446 687.155 45.0046 686.902 45.0046H683.322C683.068 45.0046 682.875 44.9446 682.742 44.8246C682.608 44.6913 682.542 44.5246 682.542 44.3246C682.542 44.138 682.588 43.998 682.682 43.9046C682.788 43.8113 682.982 43.718 683.262 43.6246L684.002 43.3846L683.222 41.2046H677.922L677.142 43.3846L677.882 43.6246C678.162 43.718 678.348 43.8113 678.442 43.9046C678.548 43.998 678.602 44.138 678.602 44.3246C678.602 44.5246 678.535 44.6913 678.402 44.8246C678.268 44.9446 678.075 45.0046 677.822 45.0046H674.642C674.388 45.0046 674.188 44.9446 674.042 44.8246C673.908 44.6913 673.842 44.5246 673.842 44.3246C673.842 44.138 673.888 43.998 673.982 43.9046C674.075 43.798 674.248 43.698 674.502 43.6046L675.162 43.3646L679.042 32.8046ZM682.742 39.7446L681.282 35.6646C681.175 35.398 681.082 35.138 681.002 34.8846C680.922 34.618 680.848 34.3846 680.782 34.1846C680.715 33.958 680.655 33.738 680.602 33.5246H680.562C680.495 33.7246 680.428 33.9446 680.362 34.1846C680.295 34.3846 680.222 34.618 680.142 34.8846C680.062 35.138 679.968 35.398 679.862 35.6646L678.422 39.7446H682.742ZM690.002 36.7646L688.942 36.5846C688.702 36.5313 688.535 36.458 688.442 36.3646C688.348 36.258 688.302 36.118 688.302 35.9446C688.302 35.7446 688.348 35.598 688.442 35.5046C688.535 35.398 688.708 35.3046 688.962 35.2246C689.215 35.158 689.502 35.1046 689.822 35.0646C690.155 35.0246 690.475 35.0046 690.782 35.0046C691.235 35.0046 691.548 35.0913 691.722 35.2646C691.908 35.438 692.002 35.7446 692.002 36.1846V36.7646L692.042 36.7846C692.175 36.4913 692.335 36.2313 692.522 36.0046C692.708 35.7646 692.915 35.5646 693.142 35.4046C693.368 35.2313 693.608 35.098 693.862 35.0046C694.128 34.9113 694.408 34.8646 694.702 34.8646C695.022 34.8646 695.262 34.9513 695.422 35.1246C695.595 35.2846 695.682 35.5113 695.682 35.8046C695.682 36.0446 695.655 36.258 695.602 36.4446C695.548 36.618 695.475 36.7646 695.382 36.8846C695.302 37.0046 695.208 37.098 695.102 37.1646C694.995 37.2313 694.895 37.2646 694.802 37.2646C694.708 37.2646 694.628 37.2513 694.562 37.2246C694.495 37.198 694.428 37.1713 694.362 37.1446C694.308 37.118 694.242 37.098 694.162 37.0846C694.095 37.058 694.015 37.0446 693.922 37.0446C693.628 37.0446 693.335 37.1246 693.042 37.2846C692.748 37.4313 692.468 37.6846 692.202 38.0446V43.3846L693.322 43.6646C693.575 43.718 693.742 43.798 693.822 43.9046C693.915 43.998 693.962 44.138 693.962 44.3246C693.962 44.5246 693.888 44.6913 693.742 44.8246C693.608 44.9446 693.415 45.0046 693.162 45.0046H689.142C688.888 45.0046 688.695 44.9446 688.562 44.8246C688.428 44.6913 688.362 44.5246 688.362 44.3246C688.362 44.138 688.402 43.998 688.482 43.9046C688.575 43.8113 688.748 43.7313 689.002 43.6646L690.002 43.3846V36.7646ZM702.355 36.6046C702.289 36.5913 702.222 36.5713 702.155 36.5446C702.075 36.5313 701.982 36.518 701.875 36.5046C701.782 36.478 701.669 36.4646 701.535 36.4646C700.722 36.4646 700.049 36.7646 699.515 37.3646C698.995 37.9513 698.735 38.8646 698.735 40.1046C698.735 41.2646 699.002 42.138 699.535 42.7246C700.069 43.298 700.795 43.5846 701.715 43.5846C701.969 43.5846 702.189 43.5646 702.375 43.5246C702.575 43.4846 702.749 43.4513 702.895 43.4246C703.042 43.3846 703.169 43.3513 703.275 43.3246C703.382 43.2846 703.482 43.2646 703.575 43.2646C703.762 43.2646 703.902 43.318 703.995 43.4246C704.102 43.518 704.155 43.658 704.155 43.8446C704.155 44.0446 704.069 44.2313 703.895 44.4046C703.802 44.498 703.669 44.5913 703.495 44.6846C703.322 44.778 703.115 44.8646 702.875 44.9446C702.649 45.0246 702.382 45.0846 702.075 45.1246C701.782 45.178 701.462 45.2046 701.115 45.2046C699.689 45.2046 698.562 44.7846 697.735 43.9446C696.909 43.1046 696.495 41.9246 696.495 40.4046C696.495 39.578 696.622 38.8246 696.875 38.1446C697.142 37.4646 697.509 36.8846 697.975 36.4046C698.442 35.9246 698.995 35.558 699.635 35.3046C700.275 35.038 700.989 34.9046 701.775 34.9046C702.322 34.9046 702.762 34.958 703.095 35.0646C703.442 35.158 703.695 35.2846 703.855 35.4446C703.949 35.538 704.015 35.6646 704.055 35.8246C704.095 35.9846 704.115 36.2846 704.115 36.7246V36.8646C704.115 37.0513 704.115 37.218 704.115 37.3646C704.115 37.498 704.109 37.698 704.095 37.9646C704.082 38.2046 704.015 38.378 703.895 38.4846C703.789 38.5913 703.642 38.6446 703.455 38.6446C703.269 38.6446 703.115 38.5913 702.995 38.4846C702.889 38.378 702.802 38.2046 702.735 37.9646L702.355 36.6046ZM707.309 33.1846L706.309 32.9246C706.043 32.8313 705.856 32.7313 705.749 32.6246C705.656 32.5046 705.609 32.338 705.609 32.1246C705.609 31.9646 705.663 31.8313 705.769 31.7246C705.889 31.6046 706.069 31.5446 706.309 31.5446H711.169C711.996 31.5446 712.709 31.638 713.309 31.8246C713.909 31.998 714.403 32.2513 714.789 32.5846C715.176 32.9046 715.463 33.3046 715.649 33.7846C715.836 34.2646 715.929 34.8046 715.929 35.4046C715.929 36.0446 715.816 36.6446 715.589 37.2046C715.363 37.7513 715.023 38.2246 714.569 38.6246C714.129 39.0113 713.583 39.3113 712.929 39.5246C712.276 39.738 711.523 39.8446 710.669 39.8446H709.569V43.3446L710.809 43.6446C711.063 43.7113 711.236 43.798 711.329 43.9046C711.436 43.998 711.489 44.138 711.489 44.3246C711.489 44.5246 711.416 44.6913 711.269 44.8246C711.136 44.9446 710.943 45.0046 710.689 45.0046H706.389C706.136 45.0046 705.943 44.9446 705.809 44.8246C705.676 44.6913 705.609 44.5246 705.609 44.3246C705.609 44.138 705.649 43.998 705.729 43.9046C705.823 43.8113 705.989 43.7246 706.229 43.6446L707.309 43.3646V33.1846ZM710.889 38.3446C711.756 38.3446 712.423 38.118 712.889 37.6646C713.356 37.198 713.589 36.538 713.589 35.6846C713.589 34.8446 713.363 34.2113 712.909 33.7846C712.469 33.3446 711.789 33.1246 710.869 33.1246H709.569V38.3446H710.889ZM723.042 38.8846C723.042 38.0313 722.882 37.4313 722.562 37.0846C722.242 36.7246 721.715 36.5446 720.982 36.5446C720.582 36.5446 720.235 36.5713 719.942 36.6246C719.649 36.678 719.395 36.738 719.182 36.8046C718.969 36.858 718.789 36.9113 718.642 36.9646C718.495 37.018 718.369 37.0446 718.262 37.0446C718.075 37.0446 717.922 36.9846 717.802 36.8646C717.682 36.7446 717.622 36.5913 717.622 36.4046C717.622 36.218 717.695 36.0513 717.842 35.9046C717.949 35.798 718.115 35.6913 718.342 35.5846C718.569 35.4646 718.842 35.358 719.162 35.2646C719.495 35.1713 719.862 35.0913 720.262 35.0246C720.662 34.958 721.095 34.9246 721.562 34.9246C722.869 34.9246 723.802 35.198 724.362 35.7446C724.935 36.2913 725.222 37.1446 725.222 38.3046C725.222 39.118 725.215 39.9313 725.202 40.7446C725.189 41.5446 725.215 42.4246 725.282 43.3846L726.182 43.5046C726.409 43.5446 726.569 43.618 726.662 43.7246C726.755 43.818 726.802 43.958 726.802 44.1446C726.802 44.3313 726.749 44.478 726.642 44.5846C726.549 44.678 726.389 44.7646 726.162 44.8446C725.922 44.9246 725.649 44.9913 725.342 45.0446C725.049 45.098 724.735 45.1246 724.402 45.1246C723.989 45.1246 723.682 45.0246 723.482 44.8246C723.295 44.6246 723.202 44.3313 723.202 43.9446V43.7646L723.162 43.7446C723.002 44.0113 722.789 44.2513 722.522 44.4646C722.295 44.6513 721.995 44.8246 721.622 44.9846C721.249 45.1313 720.789 45.2046 720.242 45.2046C719.762 45.2046 719.322 45.1313 718.922 44.9846C718.522 44.8246 718.182 44.618 717.902 44.3646C717.622 44.1113 717.409 43.8113 717.262 43.4646C717.115 43.118 717.042 42.7513 717.042 42.3646C717.042 41.978 717.122 41.6246 717.282 41.3046C717.455 40.9713 717.715 40.6846 718.062 40.4446C718.422 40.2046 718.869 40.018 719.402 39.8846C719.935 39.7513 720.569 39.6846 721.302 39.6846C721.555 39.6846 721.782 39.698 721.982 39.7246C722.195 39.738 722.382 39.7513 722.542 39.7646C722.715 39.7913 722.882 39.8113 723.042 39.8246V38.8846ZM723.002 41.1246C722.882 41.1113 722.749 41.0913 722.602 41.0646C722.469 41.038 722.309 41.018 722.122 41.0046C721.935 40.9913 721.729 40.9846 721.502 40.9846C720.742 40.9846 720.189 41.0913 719.842 41.3046C719.495 41.5046 719.322 41.798 719.322 42.1846C719.322 42.558 719.469 42.8846 719.762 43.1646C720.055 43.4313 720.455 43.5646 720.962 43.5646C721.282 43.5646 721.569 43.518 721.822 43.4246C722.089 43.3313 722.309 43.2246 722.482 43.1046C722.682 42.9713 722.855 42.818 723.002 42.6446V41.1246ZM727.659 36.7246L727.179 36.5446C726.899 36.4513 726.705 36.338 726.599 36.2046C726.505 36.058 726.459 35.8846 726.459 35.6846C726.459 35.5246 726.519 35.3913 726.639 35.2846C726.759 35.1646 726.932 35.1046 727.159 35.1046H730.519C730.745 35.1046 730.919 35.1646 731.039 35.2846C731.159 35.3913 731.219 35.5246 731.219 35.6846C731.219 35.8846 731.165 36.0446 731.059 36.1646C730.952 36.2713 730.759 36.3846 730.479 36.5046L729.939 36.7046L731.699 41.2646C731.792 41.5046 731.872 41.7313 731.939 41.9446C732.005 42.1446 732.065 42.3313 732.119 42.5046C732.172 42.678 732.232 42.8446 732.299 43.0046H732.339C732.392 42.8446 732.445 42.678 732.499 42.5046C732.552 42.3313 732.612 42.1446 732.679 41.9446C732.745 41.7313 732.832 41.498 732.939 41.2446L734.699 36.7046L734.139 36.5046C733.859 36.3846 733.665 36.2713 733.559 36.1646C733.452 36.0446 733.399 35.8846 733.399 35.6846C733.399 35.5246 733.459 35.3913 733.579 35.2846C733.699 35.1646 733.879 35.1046 734.119 35.1046H737.059C737.285 35.1046 737.459 35.1646 737.579 35.2846C737.699 35.3913 737.759 35.5246 737.759 35.6846C737.759 35.8846 737.705 36.058 737.599 36.2046C737.505 36.338 737.319 36.4513 737.039 36.5446L736.559 36.7246L733.579 44.0046C733.099 45.178 732.625 46.1313 732.159 46.8646C731.705 47.6113 731.252 48.1913 730.799 48.6046C730.345 49.0313 729.892 49.318 729.439 49.4646C728.985 49.6246 728.539 49.7046 728.099 49.7046C727.579 49.7046 727.179 49.598 726.899 49.3846C726.632 49.1846 726.499 48.898 726.499 48.5246C726.499 48.2046 726.579 47.9513 726.739 47.7646C726.899 47.5913 727.092 47.5046 727.319 47.5046C727.439 47.5046 727.539 47.5113 727.619 47.5246C727.712 47.5513 727.805 47.578 727.899 47.6046C728.005 47.6313 728.119 47.6513 728.239 47.6646C728.359 47.6913 728.512 47.7046 728.699 47.7046C728.965 47.7046 729.205 47.6646 729.419 47.5846C729.632 47.5046 729.832 47.3713 730.019 47.1846C730.219 47.0113 730.405 46.7713 730.579 46.4646C730.765 46.158 730.959 45.7846 731.159 45.3446L727.659 36.7246ZM750.015 38.8846C750.015 38.0313 749.855 37.4313 749.535 37.0846C749.215 36.7246 748.688 36.5446 747.955 36.5446C747.555 36.5446 747.208 36.5713 746.915 36.6246C746.621 36.678 746.368 36.738 746.155 36.8046C745.941 36.858 745.761 36.9113 745.615 36.9646C745.468 37.018 745.341 37.0446 745.235 37.0446C745.048 37.0446 744.895 36.9846 744.775 36.8646C744.655 36.7446 744.595 36.5913 744.595 36.4046C744.595 36.218 744.668 36.0513 744.815 35.9046C744.921 35.798 745.088 35.6913 745.315 35.5846C745.541 35.4646 745.815 35.358 746.135 35.2646C746.468 35.1713 746.835 35.0913 747.235 35.0246C747.635 34.958 748.068 34.9246 748.535 34.9246C749.841 34.9246 750.775 35.198 751.335 35.7446C751.908 36.2913 752.195 37.1446 752.195 38.3046C752.195 39.118 752.188 39.9313 752.175 40.7446C752.161 41.5446 752.188 42.4246 752.255 43.3846L753.155 43.5046C753.381 43.5446 753.541 43.618 753.635 43.7246C753.728 43.818 753.775 43.958 753.775 44.1446C753.775 44.3313 753.721 44.478 753.615 44.5846C753.521 44.678 753.361 44.7646 753.135 44.8446C752.895 44.9246 752.621 44.9913 752.315 45.0446C752.021 45.098 751.708 45.1246 751.375 45.1246C750.961 45.1246 750.655 45.0246 750.455 44.8246C750.268 44.6246 750.175 44.3313 750.175 43.9446V43.7646L750.135 43.7446C749.975 44.0113 749.761 44.2513 749.495 44.4646C749.268 44.6513 748.968 44.8246 748.595 44.9846C748.221 45.1313 747.761 45.2046 747.215 45.2046C746.735 45.2046 746.295 45.1313 745.895 44.9846C745.495 44.8246 745.155 44.618 744.875 44.3646C744.595 44.1113 744.381 43.8113 744.235 43.4646C744.088 43.118 744.015 42.7513 744.015 42.3646C744.015 41.978 744.095 41.6246 744.255 41.3046C744.428 40.9713 744.688 40.6846 745.035 40.4446C745.395 40.2046 745.841 40.018 746.375 39.8846C746.908 39.7513 747.541 39.6846 748.275 39.6846C748.528 39.6846 748.755 39.698 748.955 39.7246C749.168 39.738 749.355 39.7513 749.515 39.7646C749.688 39.7913 749.855 39.8113 750.015 39.8246V38.8846ZM749.975 41.1246C749.855 41.1113 749.721 41.0913 749.575 41.0646C749.441 41.038 749.281 41.018 749.095 41.0046C748.908 40.9913 748.701 40.9846 748.475 40.9846C747.715 40.9846 747.161 41.0913 746.815 41.3046C746.468 41.5046 746.295 41.798 746.295 42.1846C746.295 42.558 746.441 42.8846 746.735 43.1646C747.028 43.4313 747.428 43.5646 747.935 43.5646C748.255 43.5646 748.541 43.518 748.795 43.4246C749.061 43.3313 749.281 43.2246 749.455 43.1046C749.655 42.9713 749.828 42.818 749.975 42.6446V41.1246ZM755.854 36.6246H755.014C754.494 36.6246 754.234 36.4046 754.234 35.9646C754.234 35.7113 754.314 35.5046 754.474 35.3446C754.634 35.1846 754.867 35.1046 755.174 35.1046H755.874L756.194 33.6246C756.287 33.198 756.414 32.898 756.574 32.7246C756.747 32.538 756.987 32.4446 757.294 32.4446C757.534 32.4446 757.714 32.5046 757.834 32.6246C757.967 32.7446 758.034 32.9246 758.034 33.1646V35.1046H759.954C760.46 35.1046 760.714 35.3246 760.714 35.7646C760.714 36.0313 760.634 36.2446 760.474 36.4046C760.327 36.5513 760.094 36.6246 759.774 36.6246H758.034V41.7846C758.034 42.4246 758.127 42.8713 758.314 43.1246C758.514 43.378 758.807 43.5046 759.194 43.5046C759.474 43.5046 759.694 43.478 759.854 43.4246C760.014 43.3713 760.167 43.3446 760.314 43.3446C760.46 43.3446 760.574 43.3913 760.654 43.4846C760.747 43.578 760.794 43.7113 760.794 43.8846C760.794 44.0046 760.767 44.118 760.714 44.2246C760.674 44.318 760.614 44.4113 760.534 44.5046C760.427 44.598 760.2 44.7246 759.854 44.8846C759.52 45.0446 759.034 45.1246 758.394 45.1246C757.46 45.1246 756.8 44.878 756.414 44.3846C756.04 43.8913 755.854 43.2113 755.854 42.3446V36.6246Z" fill="white"/>

<path d="M773.5 44.7157V32.175H776.69C777.79 32.175 778.647 32.3145 779.258 32.5932C779.871 32.8615 780.301 33.2895 780.551 33.878C780.799 34.4558 780.924 35.2096 780.924 36.1384V40.6903C780.924 41.6298 780.799 42.3984 780.551 42.9972C780.301 43.5853 779.871 44.0194 779.258 44.2975C778.657 44.5761 777.811 44.7157 776.722 44.7157H773.5ZM776.286 42.7961H776.722C777.147 42.7961 777.453 42.734 777.64 42.6103C777.827 42.4862 777.941 42.3004 777.982 42.0526C778.034 41.8052 778.06 41.4953 778.06 41.1238V35.6586C778.06 35.2871 778.029 34.9874 777.966 34.7606C777.915 34.5333 777.796 34.3686 777.609 34.265C777.422 34.1623 777.121 34.1105 776.706 34.1105H776.286V42.7961ZM783.397 44.7157V32.175H789.063V34.0638H786.183V37.1759H788.378V39.0955H786.183V42.8423H789.094V44.7157H783.397ZM792.817 44.7157L790.545 32.175H792.927L794.281 40.6903L795.541 32.175H798.062L795.759 44.7157H792.817ZM803.566 44.9015C802.611 44.9015 801.853 44.7311 801.293 44.3904C800.743 44.0394 800.354 43.5545 800.126 42.9352C799.898 42.3056 799.784 41.5677 799.784 40.7211V36.2004C799.784 35.3333 799.898 34.5903 800.126 33.9709C800.354 33.3413 800.743 32.8564 801.293 32.5157C801.854 32.175 802.611 32.0046 803.566 32.0046C804.499 32.0046 805.226 32.1596 805.745 32.469C806.274 32.7687 806.647 33.1915 806.865 33.7385C807.083 34.286 807.192 34.9156 807.192 35.6278V36.7115H804.468V35.4574C804.468 35.2096 804.452 34.972 804.421 34.7452C804.401 34.5179 804.328 34.3322 804.204 34.1875C804.079 34.033 803.866 33.9555 803.566 33.9555C803.275 33.9555 803.057 34.033 802.912 34.1875C802.777 34.3424 802.689 34.5384 802.647 34.776C802.616 35.0033 802.601 35.2455 802.601 35.5041V41.402C802.601 41.6806 802.621 41.9387 802.663 42.1763C802.715 42.4031 802.809 42.5889 802.943 42.7335C803.089 42.8675 803.296 42.9347 803.566 42.9347C803.856 42.9347 804.064 42.8624 804.188 42.7181C804.313 42.5632 804.39 42.3672 804.421 42.1301C804.453 41.8921 804.468 41.6494 804.468 41.402V40.0859H807.192V41.1696C807.192 41.8818 807.083 42.5221 806.865 43.0897C806.658 43.6469 806.289 44.0908 805.76 44.4212C805.241 44.7409 804.51 44.9015 803.566 44.9015ZM813.113 44.9015C812.169 44.9015 811.422 44.7362 810.872 44.4058C810.322 44.0758 809.928 43.6012 809.69 42.9818C809.45 42.3625 809.331 41.6246 809.331 40.7677V36.1076C809.331 35.2404 809.451 34.5025 809.689 33.8934C809.928 33.2844 810.323 32.82 810.872 32.5003C811.422 32.1699 812.169 32.0046 813.113 32.0046C814.068 32.0046 814.82 32.1699 815.37 32.5003C815.93 32.82 816.33 33.2844 816.569 33.8934C816.807 34.5025 816.927 35.2404 816.927 36.1076V40.7677C816.927 41.6242 816.807 42.3625 816.569 42.9818C816.33 43.6012 815.93 44.0758 815.37 44.4063C814.82 44.7362 814.068 44.9015 813.113 44.9015ZM813.113 42.9352C813.404 42.9352 813.617 42.8628 813.751 42.7186C813.886 42.5739 813.975 42.3882 814.016 42.1614C814.058 41.9341 814.078 41.7016 814.078 41.4645V35.4261C814.078 35.1788 814.058 34.9464 814.016 34.7298C813.975 34.5025 813.886 34.3168 813.751 34.1721C813.617 34.0274 813.404 33.9555 813.113 33.9555C812.843 33.9555 812.641 34.0279 812.507 34.1721C812.371 34.3168 812.283 34.5025 812.242 34.7298C812.199 34.9595 812.178 35.1926 812.18 35.4261V41.4645C812.18 41.7016 812.195 41.9341 812.226 42.1609C812.268 42.3882 812.351 42.5739 812.475 42.7186C812.61 42.8633 812.823 42.9352 813.113 42.9352ZM819.4 44.7157V32.175H821.361L823.945 38.2129V32.175H826.248V44.7157H824.365L821.781 38.2129V44.7157H819.4ZM828.902 44.7157V32.175H830.863L833.447 38.2129V32.175H835.75V44.7157H833.867L831.283 38.2129V44.7157H828.902ZM838.404 44.7157V32.175H844.069V34.0638H841.19V37.1759H843.384V39.0955H841.19V42.8423H844.1V44.7157H838.404ZM849.754 44.9015C848.799 44.9015 848.042 44.7311 847.482 44.3904C846.932 44.0394 846.543 43.5545 846.315 42.9352C846.086 42.3056 845.972 41.5677 845.972 40.7211V36.2004C845.972 35.3333 846.086 34.5903 846.315 33.9709C846.543 33.3413 846.932 32.8564 847.482 32.5157C848.042 32.175 848.799 32.0046 849.754 32.0046C850.688 32.0046 851.414 32.1596 851.933 32.469C852.462 32.7687 852.836 33.1915 853.054 33.7385C853.271 34.286 853.38 34.9156 853.38 35.6278V36.7115H850.657V35.4574C850.657 35.2096 850.641 34.972 850.61 34.7452C850.589 34.5179 850.517 34.3322 850.392 34.1875C850.268 34.033 850.055 33.9555 849.754 33.9555C849.464 33.9555 849.246 34.033 849.101 34.1875C848.966 34.3424 848.877 34.5384 848.836 34.776C848.805 35.0033 848.789 35.2455 848.789 35.5041V41.402C848.789 41.6806 848.81 41.9387 848.852 42.1763C848.903 42.4031 848.997 42.5889 849.132 42.7335C849.277 42.8675 849.484 42.9347 849.754 42.9347C850.045 42.9347 850.252 42.8624 850.377 42.7181C850.501 42.5632 850.579 42.3672 850.61 42.1301C850.641 41.8921 850.657 41.6494 850.657 41.402V40.0859H853.38V41.1696C853.38 41.8818 853.271 42.5221 853.054 43.0897C852.846 43.6469 852.478 44.0908 851.948 44.4212C851.43 44.7409 850.698 44.9015 849.754 44.9015ZM856.827 44.7157V34.2341H854.929V32.175H861.512V34.2341H859.629V44.7157H856.827Z" fill="white"/>
<path fill-rule="evenodd" clip-rule="evenodd" d="M861.764 48.3827H837.835V59.9946H861.764V48.3827ZM843.964 50.7261V58.2505H845.636V50.7261H843.964ZM848.052 58.111C848.37 58.2785 848.765 58.362 849.238 58.362C849.643 58.362 849.991 58.278 850.284 58.111C850.573 57.9533 850.813 57.7187 850.975 57.4333C851.138 57.1374 851.222 56.8046 851.218 56.4672C851.218 55.9468 851.103 55.5104 850.872 55.1571C850.645 54.801 850.365 54.4816 850.041 54.2097L849.416 53.6617C849.222 53.4951 849.044 53.3115 848.883 53.1133C848.752 52.9337 848.687 52.7045 848.687 52.4259C848.687 52.2961 848.721 52.1659 848.79 52.0357C848.864 51.9059 848.98 51.8411 849.135 51.8411C849.279 51.8411 849.384 51.8873 849.453 51.9802C849.521 52.067 849.565 52.1939 849.584 52.361C849.609 52.522 849.624 52.7138 849.63 52.9369L851.069 52.7605C851.061 52.5262 851.033 52.2931 850.984 52.0637C850.941 51.8173 850.853 51.5809 850.723 51.3669C850.598 51.1443 850.412 50.9646 850.163 50.8283C849.92 50.692 849.596 50.6239 849.191 50.6239C848.538 50.6239 848.021 50.7942 847.641 51.1349C847.261 51.4691 847.072 51.9554 847.072 52.5934C847.072 53.0452 847.168 53.426 847.361 53.7359C847.56 54.0393 847.803 54.3119 848.089 54.5532L848.743 55.1198C848.999 55.3368 849.201 55.5538 849.35 55.7704C849.5 55.9804 849.574 56.2408 849.574 56.5507C849.574 56.6805 849.546 56.8046 849.49 56.9222C849.441 57.0398 849.328 57.0986 849.154 57.0986C849.017 57.0986 848.899 57.0552 848.799 56.9684C848.706 56.8816 848.631 56.7397 848.575 56.5414C848.525 56.343 848.497 56.0831 848.491 55.761L847.062 55.9748C847.081 56.5321 847.171 56.9876 847.333 57.3399C847.495 57.6867 847.735 57.9439 848.052 58.111ZM853.176 51.9615V58.2505H854.857V51.9615H855.986V50.7261H852.036V51.9615H853.176Z" fill="white"/>
<defs>
<filter id="filter0_f_1_226" x="404.73" y="57.9161" width="37.0596" height="7.17358" filterUnits="userSpaceOnUse" color-interpolation-filters="sRGB">
<feFlood flood-opacity="0" result="BackgroundImageFix"/>
<feBlend mode="normal" in="SourceGraphic" in2="BackgroundImageFix" result="shape"/>
<feGaussianBlur stdDeviation="0.5" result="effect1_foregroundBlur_1_226"/>
</filter>
<filter id="filter1_f_1_226" x="437.226" y="-11.948" width="8.96384" height="31.4652" filterUnits="userSpaceOnUse" color-interpolation-filters="sRGB">
<feFlood flood-opacity="0" result="BackgroundImageFix"/>
<feBlend mode="normal" in="SourceGraphic" in2="BackgroundImageFix" result="shape"/>
<feGaussianBlur stdDeviation="0.5" result="effect1_foregroundBlur_1_226"/>
</filter>
<linearGradient id="paint0_linear_1_226" x1="423.253" y1="37.0296" x2="423.253" y2="68.2193" gradientUnits="userSpaceOnUse">
<stop stop-color="#FFCC32"/>
<stop offset="1" stop-color="#FFDD87"/>
</linearGradient>
<linearGradient id="paint1_linear_1_226" x1="443.579" y1="-10.9629" x2="439.934" y2="18.4889" gradientUnits="userSpaceOnUse">
<stop stop-color="#737373"/>
<stop offset="1" stop-color="white"/>
</linearGradient>
</defs>
</svg>
