<svg width="44" height="66" viewBox="0 0 44 66" fill="none" xmlns="http://www.w3.org/2000/svg">
<g opacity="0.7" filter="url(#filter0_f_20_26)">
<path d="M36.79 61.5029C36.79 62.9334 28.9426 64.0897 19.2603 64.0897C9.57796 64.0897 1.73047 62.9334 1.73047 61.5029C1.73047 60.0725 9.57796 58.9161 19.2603 58.9161C28.9426 58.9161 36.79 60.0753 36.79 61.5029Z" fill="#8B8B8B"/>
</g>
<path d="M35.1626 24.527L31.0632 60.0491C31.0632 61.632 25.8369 62.1012 19.387 62.1012C12.937 62.1012 7.71075 61.632 7.71075 60.0491L3.61133 24.527H35.1626Z" fill="#F1F1F1"/>
<path d="M34.6932 32.7594C34.5477 32.6329 34.3347 32.5594 34.1165 32.5594L4.38897 32.5594C4.17075 32.5594 3.95773 32.6329 3.81225 32.7594C3.66678 32.8858 3.59404 33.0572 3.61482 33.2285L5.79559 52.6381C5.83196 52.9522 6.16967 53.1929 6.56974 53.1929H31.8831C32.2832 53.1929 32.5314 53.0767 32.6573 52.6381L34.8907 33.2285C34.9114 33.0572 34.8387 32.8858 34.6932 32.7594Z" fill="white"/>
<path d="M34.6932 32.7594C34.5477 32.6329 34.3347 32.5594 34.1165 32.5594L4.38897 32.5594C4.17075 32.5594 3.95773 32.6329 3.81225 32.7594C3.66678 32.8858 3.59404 33.0572 3.61482 33.2285L5.79559 52.6381C5.83196 52.9522 6.16967 53.1929 6.56974 53.1929H31.8831C32.2832 53.1929 32.5314 53.0767 32.6573 52.6381L34.8907 33.2285C34.9114 33.0572 34.8387 32.8858 34.6932 32.7594Z" fill="url(#paint0_linear_20_26)"/>
<ellipse cx="2.88793" cy="2.87798" rx="2.88793" ry="2.87798" transform="matrix(1 -8.40036e-08 -8.45848e-08 -1 23.834 43.1322)" fill="#2F1931"/>
<ellipse cx="2.88793" cy="2.87798" rx="2.88793" ry="2.87798" transform="matrix(1 -8.36438e-08 -8.49486e-08 -1 8.89551 43.1322)" fill="#2F1931"/>
<path fill-rule="evenodd" clip-rule="evenodd" d="M19.2461 47.7604C21.2839 47.7628 23.2116 46.8542 24.7626 45.2304C25.0342 44.946 24.9897 44.4948 24.6862 44.2447L23.275 43.0821C22.9729 42.8333 22.5293 42.8797 22.2497 43.1536C21.2606 44.1224 20.2045 44.5189 19.2499 44.5178C18.295 44.5167 17.2408 44.1176 16.256 43.1535C15.9763 42.8797 15.5327 42.8333 15.2306 43.0821L13.8195 44.2447C13.5159 44.4948 13.4714 44.9461 13.7431 45.2304C15.2874 46.8468 17.2103 47.7581 19.2461 47.7604Z" fill="#2F1931"/>
<path fill-rule="evenodd" clip-rule="evenodd" d="M19.2461 47.7604C21.2839 47.7628 23.2116 46.8542 24.7626 45.2304C25.0342 44.946 24.9897 44.4948 24.6862 44.2447L23.275 43.0821C22.9729 42.8333 22.5293 42.8797 22.2497 43.1536C21.2606 44.1224 20.2045 44.5189 19.2499 44.5178C18.295 44.5167 17.2408 44.1176 16.256 43.1535C15.9763 42.8797 15.5327 42.8333 15.2306 43.0821L13.8195 44.2447C13.5159 44.4948 13.4714 44.9461 13.7431 45.2304C15.2874 46.8468 17.2103 47.7581 19.2461 47.7604Z" fill="#2F1931"/>
<path d="M2.21973 22.0477H36.5549C36.7788 22.0477 36.9602 22.2292 36.9602 22.453V25.7723C36.9602 25.9961 36.7788 26.1776 36.5549 26.1776H2.21973C1.9959 26.1776 1.81445 25.9961 1.81445 25.7723V22.453C1.81445 22.2292 1.9959 22.0477 2.21973 22.0477Z" fill="#CFCFCF" stroke="black" stroke-width="0.25"/>
<path d="M34.8316 21.9227H3.9483L4.55506 18.425C4.72842 17.2675 5.61561 16.4211 6.66086 16.4211H32.1191C33.1643 16.4211 34.0566 17.2675 34.2249 18.425L34.8316 21.9227Z" fill="#CFCFCF"/>
<path d="M31.3255 20.049C31.7662 20.049 32.1287 19.6928 32.1287 19.2459C32.1287 18.8053 31.7725 18.4427 31.3255 18.4427H27.2465C26.8059 18.4427 26.4434 18.7989 26.4434 19.2459C26.4434 19.6865 26.7995 20.049 27.2465 20.049H31.3255Z" stroke="black" stroke-width="0.25"/>
<g opacity="0.6" filter="url(#filter1_f_20_26)">
<path d="M39.6986 -10.948C39.6986 -10.948 39.4535 -10.4331 39.1168 -9.58515C38.79 -8.73596 38.3799 -7.53837 38.146 -6.21853C38.1058 -5.89349 38.0557 -5.56967 38.002 -5.21759C37.9998 -4.87351 37.9496 -4.54969 37.9573 -4.20437C37.9644 -3.5291 38.013 -2.86305 38.131 -2.18841C38.2298 -1.84617 38.2176 -1.50331 38.3461 -1.15739C38.4547 -0.813931 38.5219 -0.461247 38.6387 -0.102424C38.7655 0.257627 38.9056 0.590642 39.0108 0.962369C39.1475 1.32365 39.3256 1.67571 39.4722 2.03821L39.5796 2.30979L39.6334 2.44557L39.6497 2.47629C39.6953 2.59672 39.5826 2.36755 39.6007 2.38413L39.6398 2.47507C39.7916 2.79518 39.9189 3.06921 40.0282 3.32665C40.2548 3.85689 40.4166 4.42216 40.5901 4.97453C40.9154 6.09094 41.096 7.31858 41.1774 8.53394C41.2156 9.77265 41.1726 11.0157 40.9084 12.1739C40.6856 13.3229 40.2947 14.3651 39.8523 15.1713C39.6493 15.5909 39.4135 15.9492 39.1649 16.2484C38.9162 16.5477 38.7254 16.8684 38.4791 17.0676C38.0046 17.4823 37.6264 17.8517 37.2627 18.0219C36.5599 18.4084 36.1636 18.5172 36.1636 18.5172C36.1636 18.5172 36.3643 17.9538 36.719 17.1224C36.9087 16.7298 37.0318 16.1423 37.2173 15.62C37.32 15.3601 37.3503 15.0339 37.4284 14.7279C37.4967 14.4206 37.5731 14.1288 37.5836 13.8C37.6139 13.4738 37.6803 13.1807 37.6511 12.847C37.6499 12.5312 37.6784 12.2191 37.6293 11.883C37.6169 11.2501 37.4574 10.5847 37.3195 9.90757C37.1419 9.22555 36.9247 8.53863 36.6677 7.84679C36.5292 7.49964 36.3792 7.1654 36.2372 6.84652C36.1572 6.67878 36.0854 6.52641 36.0363 6.43425L35.9955 6.35745L35.9236 6.20507L35.8991 6.15899L35.8208 5.97712L35.6562 5.59803C35.4576 5.0856 35.2374 4.58485 35.0505 4.05952C34.8788 3.49302 34.7385 2.91607 34.5966 2.35326C34.3512 1.16065 34.2021 -0.0774381 34.2287 -1.35118C34.2436 -2.61201 34.4489 -3.86365 34.7458 -4.96046C34.9051 -5.5147 35.1087 -6.0204 35.289 -6.5003C35.5172 -6.95992 35.722 -7.39374 35.9496 -7.76734C36.4246 -8.51208 36.8904 -9.10015 37.3468 -9.53153C37.7933 -9.96414 38.2124 -10.2566 38.5597 -10.4576C39.2561 -10.8736 39.6752 -10.9222 39.6752 -10.9222L39.6986 -10.948Z" fill="url(#paint1_linear_20_26)"/>
</g>
<defs>
<filter id="filter0_f_20_26" x="0.730469" y="57.9161" width="37.0596" height="7.17358" filterUnits="userSpaceOnUse" color-interpolation-filters="sRGB">
<feFlood flood-opacity="0" result="BackgroundImageFix"/>
<feBlend mode="normal" in="SourceGraphic" in2="BackgroundImageFix" result="shape"/>
<feGaussianBlur stdDeviation="0.5" result="effect1_foregroundBlur_20_26"/>
</filter>
<filter id="filter1_f_20_26" x="33.2256" y="-11.948" width="8.96384" height="31.4652" filterUnits="userSpaceOnUse" color-interpolation-filters="sRGB">
<feFlood flood-opacity="0" result="BackgroundImageFix"/>
<feBlend mode="normal" in="SourceGraphic" in2="BackgroundImageFix" result="shape"/>
<feGaussianBlur stdDeviation="0.5" result="effect1_foregroundBlur_20_26"/>
</filter>
<linearGradient id="paint0_linear_20_26" x1="19.2527" y1="37.0296" x2="19.2527" y2="68.2193" gradientUnits="userSpaceOnUse">
<stop stop-color="#FFCC32"/>
<stop offset="1" stop-color="#FFDD87"/>
</linearGradient>
<linearGradient id="paint1_linear_20_26" x1="39.5785" y1="-10.9629" x2="35.9344" y2="18.4889" gradientUnits="userSpaceOnUse">
<stop stop-color="#737373"/>
<stop offset="1" stop-color="white"/>
</linearGradient>
</defs>
</svg>
