<svg width="79" height="28" viewBox="0 0 89 28" fill="none" xmlns="http://www.w3.org/2000/svg">
<g id="devconnect ist">
<path id="Vector" d="M0.5 12.7157V0.174991H3.6903C4.79048 0.174991 5.6467 0.314539 6.25849 0.59317C6.87074 0.861532 7.30143 1.28951 7.55056 1.87804C7.79921 2.45584 7.92401 3.20959 7.92401 4.13836V8.69026C7.92401 9.62976 7.79921 10.3984 7.55056 10.9972C7.30143 11.5853 6.87074 12.0194 6.25849 12.2975C5.65702 12.5761 4.81112 12.7157 3.72173 12.7157H0.5ZM3.28588 10.7961H3.7222C4.14726 10.7961 4.45315 10.734 4.63988 10.6103C4.82661 10.4862 4.94108 10.3004 4.98237 10.0526C5.03398 9.80525 5.06025 9.49535 5.06025 9.12384V3.65857C5.06025 3.28706 5.02928 2.98743 4.96642 2.76061C4.91481 2.53332 4.79564 2.36856 4.60892 2.26495C4.42219 2.16227 4.12099 2.11047 3.70625 2.11047H3.28588V10.7961ZM10.3974 12.7157V0.174991H16.0625V2.0638H13.1833V5.17587H15.378V7.09548H13.1833V10.8423H16.0935V12.7157H10.3974ZM19.8172 12.7157L17.5451 0.174991H19.9266L21.2806 8.69026L22.5412 0.174991H25.0625L22.7589 12.7157H19.8172ZM30.5657 12.9015C29.611 12.9015 28.8533 12.7311 28.2931 12.3904C27.7433 12.0394 27.3543 11.5545 27.1263 10.9352C26.8978 10.3056 26.7838 9.56769 26.7838 8.72106V4.20043C26.7838 3.33327 26.8978 2.59025 27.1263 1.97092C27.3543 1.34132 27.7433 0.856398 28.2931 0.515694C28.8538 0.17499 29.6115 0.00463867 30.5657 0.00463867C31.4994 0.00463867 32.2256 0.159589 32.7445 0.469023C33.2737 0.768656 33.6472 1.1915 33.8649 1.73849C34.083 2.28595 34.1919 2.91556 34.1919 3.62777V4.71149H31.4684V3.45742C31.4684 3.20959 31.4525 2.97203 31.4215 2.7452C31.4008 2.51791 31.3281 2.33216 31.2038 2.18748C31.079 2.03299 30.8665 1.95552 30.5657 1.95552C30.2749 1.95552 30.0572 2.03299 29.9117 2.18748C29.7771 2.34243 29.6889 2.53845 29.6471 2.77601C29.6161 3.0033 29.6007 3.24553 29.6007 3.50409V9.402C29.6007 9.68063 29.6213 9.93873 29.6631 10.1763C29.7147 10.4031 29.8085 10.5889 29.9432 10.7335C30.0886 10.8675 30.296 10.9347 30.5657 10.9347C30.8561 10.9347 31.0635 10.8624 31.1883 10.7181C31.3126 10.5632 31.3901 10.3672 31.4215 10.1301C31.4529 9.89205 31.4684 9.64936 31.4684 9.402V8.08586H34.1919V9.16958C34.1919 9.88179 34.083 10.5221 33.8649 11.0897C33.6575 11.6469 33.2892 12.0908 32.76 12.4212C32.2411 12.7409 31.5097 12.9015 30.5657 12.9015ZM40.1132 12.9015C39.1692 12.9015 38.4223 12.7362 37.872 12.4058C37.3221 12.0758 36.928 11.6012 36.6897 10.9818C36.4504 10.3625 36.3313 9.62463 36.3313 8.76773V4.10755C36.3313 3.24039 36.4509 2.50251 36.6892 1.89345C36.928 1.28438 37.3226 0.819994 37.872 0.500293C38.4223 0.169856 39.1692 0.00463867 40.1132 0.00463867C41.0679 0.00463867 41.82 0.169856 42.3698 0.500293C42.9305 0.819994 43.3297 1.28438 43.5685 1.89345C43.8069 2.50251 43.9265 3.24039 43.9265 4.10755V8.76773C43.9265 9.62416 43.8069 10.3625 43.5685 10.9818C43.3297 11.6012 42.9305 12.0758 42.3698 12.4063C41.82 12.7362 41.0679 12.9015 40.1132 12.9015ZM40.1132 10.9352C40.404 10.9352 40.6166 10.8628 40.7512 10.7186C40.8863 10.5739 40.9745 10.3882 41.0158 10.1614C41.0576 9.93406 41.0782 9.70163 41.0782 9.46454V3.42615C41.0782 3.17879 41.0576 2.94636 41.0158 2.7298C40.9745 2.50251 40.8863 2.31676 40.7512 2.17208C40.6166 2.02739 40.404 1.95552 40.1132 1.95552C39.8434 1.95552 39.6412 2.02786 39.5065 2.17208C39.3714 2.31676 39.2832 2.50251 39.2419 2.7298C39.1992 2.95946 39.1783 3.1926 39.1795 3.42615V9.46454C39.1795 9.70163 39.195 9.93406 39.2265 10.1609C39.2677 10.3882 39.3508 10.5739 39.4751 10.7186C39.6102 10.8633 39.8228 10.9352 40.1132 10.9352ZM46.3999 12.7157V0.174991H48.361L50.9447 6.21292V0.174991H53.2478V12.7157H51.3646L48.7814 6.21292V12.7157H46.3999ZM55.9023 12.7157V0.174991H57.863L60.4466 6.21292V0.174991H62.7502V12.7157H60.867L58.2833 6.21292V12.7157H55.9023ZM65.4042 12.7157V0.174991H71.0694V2.0638H68.1901V5.17587H70.3844V7.09548H68.1901V10.8423H71.1003V12.7157H65.4042ZM76.7542 12.9015C75.7995 12.9015 75.0422 12.7311 74.482 12.3904C73.9322 12.0394 73.5428 11.5545 73.3148 10.9352C73.0863 10.3056 72.9723 9.56769 72.9723 8.72106V4.20043C72.9723 3.33327 73.0863 2.59025 73.3148 1.97092C73.5428 1.34132 73.9322 0.856398 74.482 0.515694C75.0422 0.17499 75.7995 0.00463867 76.7542 0.00463867C77.6878 0.00463867 78.4141 0.159589 78.933 0.469023C79.4622 0.768656 79.8356 1.1915 80.0538 1.73849C80.2715 2.28595 80.3803 2.91556 80.3803 3.62777V4.71149H77.6569V3.45742C77.6569 3.20959 77.6414 2.97203 77.6099 2.7452C77.5893 2.51791 77.5166 2.33216 77.3923 2.18748C77.2679 2.03299 77.0549 1.95552 76.7542 1.95552C76.4638 1.95552 76.2456 2.03299 76.1007 2.18748C75.9655 2.34243 75.8773 2.53845 75.836 2.77601C75.8046 3.0033 75.7891 3.24553 75.7891 3.50409V9.402C75.7891 9.68063 75.8098 9.93873 75.8515 10.1763C75.9031 10.4031 75.997 10.5889 76.1316 10.7335C76.2771 10.8675 76.4844 10.9347 76.7542 10.9347C77.0446 10.9347 77.252 10.8624 77.3768 10.7181C77.5011 10.5632 77.579 10.3672 77.6099 10.1301C77.6414 9.89205 77.6569 9.64936 77.6569 9.402V8.08586H80.3803V9.16958C80.3803 9.88179 80.2715 10.5221 80.0538 11.0897C79.846 11.6469 79.4777 12.0908 78.9485 12.4212C78.43 12.7409 77.6981 12.9015 76.7542 12.9015ZM83.8273 12.7157V2.23415H81.9286V0.174991H88.5118V2.23415H86.6286V12.7157H83.8273Z" fill="white"/>
<path id="Vector_2" fill-rule="evenodd" clip-rule="evenodd" d="M88.7641 16.3827H64.835V27.9946H88.7641V16.3827ZM70.9641 18.7261V26.2505H72.6357V18.7261H70.9641ZM75.0524 26.111C75.3695 26.2785 75.765 26.362 76.2379 26.362C76.6428 26.362 76.9914 26.278 77.2842 26.111C77.5733 25.9533 77.8127 25.7187 77.9752 25.4333C78.1383 25.1374 78.2218 24.8046 78.2178 24.4672C78.2178 23.9468 78.1028 23.5104 77.8725 23.1571C77.6454 22.801 77.3651 22.4816 77.0411 22.2097L76.4157 21.6617C76.2222 21.4951 76.044 21.3115 75.8832 21.1133C75.7524 20.9337 75.6871 20.7045 75.6871 20.4259C75.6871 20.2961 75.7214 20.1659 75.7899 20.0357C75.8645 19.9059 75.9799 19.8411 76.1352 19.8411C76.2787 19.8411 76.3843 19.8873 76.4528 19.9802C76.5213 20.067 76.5649 20.1939 76.5837 20.361C76.6086 20.522 76.6241 20.7138 76.6301 20.9369L78.0686 20.7605C78.0609 20.5262 78.0327 20.2931 77.9841 20.0637C77.9414 19.8173 77.8528 19.5809 77.7228 19.3669C77.5985 19.1443 77.4118 18.9646 77.1626 18.8283C76.9196 18.692 76.5959 18.6239 76.1915 18.6239C75.5379 18.6239 75.0209 18.7942 74.6414 19.1349C74.2614 19.4691 74.0718 19.9554 74.0718 20.5934C74.0718 21.0452 74.168 21.426 74.3613 21.7359C74.5602 22.0393 74.8032 22.3119 75.0894 22.5532L75.7434 23.1198C75.9987 23.3368 76.2009 23.5538 76.3501 23.7704C76.4997 23.9804 76.5743 24.2408 76.5743 24.5507C76.5743 24.6805 76.5462 24.8046 76.4903 24.9222C76.4406 25.0398 76.3285 25.0986 76.154 25.0986C76.017 25.0986 75.8987 25.0552 75.7993 24.9684C75.7059 24.8816 75.6313 24.7397 75.575 24.5414C75.5253 24.343 75.4971 24.0831 75.491 23.761L74.0624 23.9748C74.0812 24.5321 74.1713 24.9876 74.3331 25.3399C74.495 25.6867 74.7347 25.9439 75.0524 26.111ZM80.1756 19.9615V26.2505H81.8566V19.9615H82.9863V18.7261H79.0365V19.9615H80.1756Z" fill="white"/>
</g>
</svg>
