<svg width="163" height="66" viewBox="0 0 163 66" fill="none" xmlns="http://www.w3.org/2000/svg">
<g clip-path="url(#clip0_1_164)" filter="url(#filter0_d_1_164)">
<path d="M145.009 12.4418H17.2817C14.46 12.4418 12.1726 14.749 12.1726 17.595V48.5139C12.1726 51.3599 14.46 53.667 17.2817 53.667H145.009C147.831 53.667 150.118 51.3599 150.118 48.5139V17.595C150.118 14.749 147.831 12.4418 145.009 12.4418Z" fill="#2F1931"/>
<path d="M145.009 13.2663C147.38 13.2663 149.301 15.2039 149.301 17.595V48.5139C149.301 50.905 147.38 52.8425 145.009 52.8425H17.2817C14.9111 52.8425 12.9901 50.905 12.9901 48.5139V17.595C12.9901 15.2039 14.9111 13.2663 17.2817 13.2663H145.009ZM145.009 12.4418H17.2817C14.4717 12.4418 12.1726 14.7608 12.1726 17.595V48.5139C12.1726 51.3481 14.4717 53.667 17.2817 53.667H145.009C147.819 53.667 150.118 51.3481 150.118 48.5139V17.595C150.118 14.7608 147.819 12.4418 145.009 12.4418Z" fill="#2F1931"/>
<path d="M33.3453 32.4567L22.4629 44.1028C22.8001 45.3705 23.9445 46.298 25.3036 46.298C25.8451 46.298 26.356 46.1538 26.7954 45.8858L26.8261 45.8652L39.0675 38.7435L33.3351 32.4464L33.3453 32.4567Z" fill="#D75532"/>
<path d="M44.3499 30.4779H44.3396L39.0568 27.3757L33.0996 32.7246L39.0773 38.7538L44.3396 35.6929C45.2593 35.1878 45.8826 34.2087 45.8826 33.0854C45.8826 31.962 45.2695 30.9829 44.3499 30.4882V30.4779Z" fill="#FFCC32"/>
<path d="M22.4625 22.0061C22.4012 22.2535 22.3604 22.5008 22.3604 22.7688V43.3505C22.3604 43.6184 22.391 43.8658 22.4625 44.1132L33.7128 32.7659L22.4625 22.0061Z" fill="#0075BC"/>
<path d="M33.427 33.0545L39.0573 27.3757L26.8261 20.2231C26.3867 19.9552 25.8656 19.8006 25.3036 19.8006C23.9445 19.8006 22.8001 20.7384 22.4629 21.9958L33.427 33.0442V33.0545Z" fill="#00A176"/>
<path d="M60.6275 22.9956C60.6275 23.8613 60.372 24.5518 59.8611 25.0568C59.2889 25.6649 58.5328 25.9741 57.6131 25.9741C56.6935 25.9741 55.9782 25.6649 55.3549 25.0465C54.7316 24.4281 54.425 23.6552 54.425 22.7482C54.425 21.8413 54.7316 21.0683 55.3549 20.4499C55.9782 19.8315 56.7241 19.5223 57.6131 19.5223C58.0525 19.5223 58.4715 19.6048 58.87 19.78C59.2685 19.9552 59.5852 20.1819 59.8305 20.4705L59.2889 21.0168C58.8802 20.5324 58.3284 20.285 57.6131 20.285C56.9694 20.285 56.4074 20.5117 55.9373 20.9755C55.4673 21.429 55.2323 22.0268 55.2323 22.7585C55.2323 23.4903 55.4673 24.088 55.9373 24.5415C56.4074 24.995 56.9694 25.232 57.6131 25.232C58.2978 25.232 58.87 25.0053 59.3298 24.5415C59.6261 24.2426 59.7998 23.8201 59.8407 23.2841H57.6131V22.5421H60.5866C60.6173 22.707 60.6275 22.8616 60.6275 23.0059V22.9956Z" fill="white" stroke="white" stroke-width="0.158558" stroke-miterlimit="10"/>
<path d="M65.3381 20.4189H62.5485V22.3771H65.0622V23.1192H62.5485V25.0774H65.3381V25.84H61.7617V19.6562H65.3381V20.4189Z" fill="white" stroke="white" stroke-width="0.158558" stroke-miterlimit="10"/>
<path d="M68.6587 25.84H67.8719V20.4189H66.1553V19.6562H70.3652V20.4189H68.6485V25.84H68.6587Z" fill="white" stroke="white" stroke-width="0.158558" stroke-miterlimit="10"/>
<path d="M73.4209 25.84V19.6562H74.2077V25.84H73.4209Z" fill="white" stroke="white" stroke-width="0.158558" stroke-miterlimit="10"/>
<path d="M77.7019 25.84H76.9151V20.4189H75.1985V19.6562H79.4084V20.4189H77.6917V25.84H77.7019Z" fill="white" stroke="white" stroke-width="0.158558" stroke-miterlimit="10"/>
<path d="M87.3894 25.0362C86.7865 25.6649 86.0406 25.9741 85.1414 25.9741C84.2421 25.9741 83.4962 25.6649 82.8933 25.0362C82.2905 24.4075 81.9941 23.6448 81.9941 22.7482C81.9941 21.8515 82.2905 21.0786 82.8933 20.4602C83.4962 19.8315 84.2421 19.5223 85.1414 19.5223C86.0406 19.5223 86.7763 19.8315 87.3894 20.4602C87.9922 21.0889 88.2988 21.8515 88.2988 22.7482C88.2988 23.6448 87.9922 24.4178 87.3996 25.0362H87.3894ZM83.4758 24.5209C83.9254 24.9846 84.4874 25.2114 85.1414 25.2114C85.7953 25.2114 86.3573 24.9846 86.8069 24.5209C87.2565 24.0571 87.4915 23.4696 87.4915 22.7482C87.4915 22.0267 87.2667 21.4393 86.8069 20.9755C86.3573 20.5117 85.7953 20.285 85.1414 20.285C84.4874 20.285 83.9254 20.5117 83.4758 20.9755C83.0262 21.4393 82.7912 22.0267 82.7912 22.7482C82.7912 23.4696 83.016 24.0571 83.4758 24.5209Z" fill="white" stroke="white" stroke-width="0.158558" stroke-miterlimit="10"/>
<path d="M89.4023 25.8401V19.6563H90.3629L93.3466 24.4693H93.3772L93.3466 23.2738V19.6563H94.1334V25.8401H93.3159L90.1994 20.8003H90.1687L90.1994 21.9958V25.8504H89.4126L89.4023 25.8401Z" fill="white" stroke="white" stroke-width="0.158558" stroke-miterlimit="10"/>
<path d="M81.7993 34.8581C79.398 34.8581 77.4361 36.7029 77.4361 39.2382C77.4361 41.7736 79.398 43.6184 81.7993 43.6184C84.2006 43.6184 86.1625 41.7633 86.1625 39.2382C86.1625 36.7132 84.2006 34.8581 81.7993 34.8581ZM81.7993 41.8973C80.4812 41.8973 79.3469 40.8048 79.3469 39.2382C79.3469 37.6717 80.4812 36.5792 81.7993 36.5792C83.1175 36.5792 84.2517 37.6614 84.2517 39.2382C84.2517 40.8151 83.1175 41.8973 81.7993 41.8973ZM72.2861 34.8581C69.8849 34.8581 67.923 36.7029 67.923 39.2382C67.923 41.7736 69.8849 43.6184 72.2861 43.6184C74.6874 43.6184 76.6493 41.7633 76.6493 39.2382C76.6493 36.7132 74.6874 34.8581 72.2861 34.8581ZM72.2861 41.8973C70.968 41.8973 69.8338 40.8048 69.8338 39.2382C69.8338 37.6717 70.968 36.5792 72.2861 36.5792C73.6043 36.5792 74.7385 37.6614 74.7385 39.2382C74.7385 40.8151 73.6043 41.8973 72.2861 41.8973ZM60.9644 36.1979V38.053H65.3786C65.2458 39.1042 64.8984 39.8669 64.3773 40.3925C63.7335 41.0418 62.7321 41.753 60.9746 41.753C58.2565 41.753 56.1312 39.5474 56.1312 36.8059C56.1312 34.0645 58.2565 31.8589 60.9746 31.8589C62.4358 31.8589 63.5087 32.4361 64.2955 33.1884L65.5932 31.8795C64.4897 30.818 63.0284 30.0038 60.9644 30.0038C57.2449 30.0038 54.1182 33.0544 54.1182 36.8162C54.1182 40.578 57.2449 43.6287 60.9644 43.6287C62.9774 43.6287 64.4897 42.9691 65.675 41.722C66.8909 40.4956 67.269 38.7641 67.269 37.3728C67.269 36.9399 67.2384 36.538 67.1668 36.2082H60.9644V36.1979ZM107.263 37.6408C106.905 36.6617 105.802 34.8477 103.544 34.8477C101.285 34.8477 99.4462 36.6204 99.4462 39.2279C99.4462 41.6808 101.285 43.6081 103.758 43.6081C105.751 43.6081 106.905 42.3817 107.375 41.6705L105.894 40.6708C105.403 41.4026 104.729 41.8869 103.758 41.8869C102.788 41.8869 102.093 41.4335 101.653 40.5574L107.467 38.1355L107.273 37.6408H107.263ZM101.337 39.1042C101.285 37.414 102.634 36.5483 103.605 36.5483C104.361 36.5483 105.005 36.9296 105.219 37.4759L101.337 39.1042ZM96.6157 43.3504H98.5265V30.4676H96.6157V43.3504ZM93.4889 35.8268H93.4276C92.9985 35.3115 92.181 34.8477 91.1388 34.8477C88.9623 34.8477 86.9697 36.775 86.9697 39.2485C86.9697 41.722 88.9623 43.6184 91.1388 43.6184C92.181 43.6184 92.9985 43.1546 93.4276 42.6187H93.4889V43.2474C93.4889 44.9273 92.6 45.824 91.1694 45.824C90.0045 45.824 89.279 44.9788 88.9827 44.2677L87.3171 44.9685C87.7974 46.1331 89.0645 47.5554 91.1694 47.5554C93.4072 47.5554 95.2976 46.2259 95.2976 42.9897V35.1157H93.4889V35.8268ZM91.3022 41.8869C89.9841 41.8869 88.8805 40.7739 88.8805 39.2485C88.8805 37.7232 89.9841 36.5792 91.3022 36.5792C92.6204 36.5792 93.6218 37.7129 93.6218 39.2485C93.6218 40.7842 92.6 41.8869 91.3022 41.8869ZM116.214 30.4676H111.647V43.3504H113.558V38.4653H116.224C118.34 38.4653 120.414 36.9193 120.414 34.4664C120.414 32.0135 118.34 30.4676 116.224 30.4676H116.214ZM116.265 36.6823H113.558V32.2609H116.265C117.696 32.2609 118.503 33.4564 118.503 34.4664C118.503 35.4764 117.696 36.672 116.265 36.672V36.6823ZM128.047 34.8271C126.667 34.8271 125.237 35.4455 124.644 36.7956L126.341 37.5068C126.698 36.7956 127.373 36.5586 128.078 36.5586C129.059 36.5586 130.07 37.1564 130.08 38.2179V38.3519C129.733 38.1561 128.997 37.8572 128.088 37.8572C126.259 37.8572 124.409 38.8672 124.409 40.7533C124.409 42.4744 125.901 43.5875 127.577 43.5875C128.854 43.5875 129.569 43.0103 130.009 42.3301H130.07V43.3298H131.909V38.3931C131.909 36.1051 130.213 34.8271 128.027 34.8271H128.047ZM127.812 41.8869C127.189 41.8869 126.32 41.5675 126.32 40.7945C126.32 39.8051 127.403 39.4237 128.343 39.4237C129.181 39.4237 129.58 39.6093 130.08 39.8566C129.937 41.0521 128.915 41.8973 127.812 41.8973V41.8869ZM138.623 35.1054L136.436 40.6914H136.375L134.106 35.1054H132.052L135.455 42.9176L133.514 47.2565H135.506L140.748 35.1054H138.633H138.623ZM121.446 43.3504H123.357V30.4676H121.446V43.3504Z" fill="white"/>
</g>
<defs>
<filter id="filter0_d_1_164" x="0.280965" y="0.549977" width="161.73" height="65.009" filterUnits="userSpaceOnUse" color-interpolation-filters="sRGB">
<feFlood flood-opacity="0" result="BackgroundImageFix"/>
<feColorMatrix in="SourceAlpha" type="matrix" values="0 0 0 0 0 0 0 0 0 0 0 0 0 0 0 0 0 0 127 0" result="hardAlpha"/>
<feOffset/>
<feGaussianBlur stdDeviation="5.94594"/>
<feComposite in2="hardAlpha" operator="out"/>
<feColorMatrix type="matrix" values="0 0 0 0 1 0 0 0 0 1 0 0 0 0 1 0 0 0 0.5 0"/>
<feBlend mode="normal" in2="BackgroundImageFix" result="effect1_dropShadow_1_164"/>
<feBlend mode="normal" in="SourceGraphic" in2="effect1_dropShadow_1_164" result="shape"/>
</filter>
<clipPath id="clip0_1_164">
<rect width="137.946" height="41.2252" fill="white" transform="translate(12.1729 12.4419)"/>
</clipPath>
</defs>
</svg>
