<svg width="44" height="43" viewBox="0 0 44 43" fill="none" xmlns="http://www.w3.org/2000/svg">
<path d="M24.6548 25.7376L24.6359 26.7374L24.6359 26.7374L24.6548 25.7376ZM25.1109 25.6036L24.5544 24.7727L24.5544 24.7727L25.1109 25.6036ZM21.7217 25.6822L21.7406 24.6824L21.7406 24.6824L21.7217 25.6822ZM20.9853 26.114L20.1171 25.6178L20.9853 26.114ZM13.3006 30.6059L13.3006 31.6059L13.3006 31.6059V30.6059ZM9.79183 29.8764L9.3979 30.7955L9.4051 30.7986L9.79183 29.8764ZM4.47655 21.7818L5.47655 21.7818L5.47655 21.7818H4.47655ZM13.3006 12.9578L13.3006 13.9578L13.3006 12.9578ZM21.0638 17.5769L21.9442 17.1026L21.9442 17.1026L21.0638 17.5769ZM21.7976 18.0289L21.7956 17.0289L21.7956 17.0289L21.7976 18.0289ZM38.4556 17.9957L38.4536 16.9957L38.4536 16.9957L38.4556 17.9957ZM38.9793 18.192L39.638 17.4396L39.638 17.4395L38.9793 18.192ZM42.5078 21.2807L43.1665 20.5282L43.1665 20.5282L42.5078 21.2807ZM42.5336 22.4502L43.2248 23.1728L42.5336 22.4502ZM38.8744 25.9498L39.5656 26.6725L38.8744 25.9498ZM37.7758 25.9473L37.0812 26.6667L37.7758 25.9473ZM36.5813 24.794L35.8867 25.5135L36.5813 24.794ZM26.5861 24.6155L27.1426 25.4463L27.1426 25.4463L26.5861 24.6155ZM13.3016 21.8368H14.3016H13.3016ZM11.0907 19.626V20.626L11.0907 20.626L11.0907 19.626ZM11.0907 24.0477L11.0907 23.0477L11.0907 23.0477V24.0477ZM24.6359 26.7374C25.0027 26.7443 25.3627 26.6386 25.6674 26.4344L24.5544 24.7727C24.5896 24.7492 24.6313 24.7369 24.6736 24.7377L24.6359 26.7374ZM21.7028 26.682L24.6359 26.7374L24.6736 24.7377L21.7406 24.6824L21.7028 26.682ZM21.8536 26.6101C21.8395 26.6347 21.7933 26.6837 21.7028 26.682L21.7406 24.6824C21.0388 24.6692 20.4344 25.0624 20.1171 25.6178L21.8536 26.6101ZM13.3006 31.6059C16.9757 31.6059 20.1554 29.582 21.8536 26.6101L20.1171 25.6178C18.7546 28.0023 16.2177 29.6059 13.3006 29.6059V31.6059ZM9.4051 30.7986C10.5876 31.2944 11.9 31.6059 13.3006 31.6059L13.3006 29.6059C12.1999 29.6059 11.15 29.3615 10.1786 28.9542L9.4051 30.7986ZM3.47655 21.7818C3.47655 25.8018 5.87524 29.2858 9.39791 30.7955L10.1858 28.9572C7.38567 27.7572 5.47655 24.9879 5.47655 21.7818L3.47655 21.7818ZM13.3006 11.9578C7.88467 11.9578 3.47655 16.3659 3.47655 21.7818H5.47655C5.47655 17.4705 8.98924 13.9578 13.3006 13.9578L13.3006 11.9578ZM21.9442 17.1026C20.2977 14.0462 17.0419 11.9578 13.3006 11.9578L13.3006 13.9578C16.2824 13.9578 18.8743 15.621 20.1834 18.0512L21.9442 17.1026ZM21.7956 17.0289C21.8876 17.0287 21.9318 17.0797 21.9442 17.1026L20.1834 18.0512C20.4888 18.6181 21.0898 19.0303 21.7996 19.0289L21.7956 17.0289ZM38.4536 16.9957L21.7956 17.0289L21.7996 19.0289L38.4576 18.9957L38.4536 16.9957ZM39.638 17.4395C39.3102 17.1526 38.8892 16.9949 38.4536 16.9957L38.4576 18.9957C38.4072 18.9958 38.3586 18.9776 38.3207 18.9444L39.638 17.4395ZM43.1665 20.5282L39.638 17.4396L38.3207 18.9444L41.8492 22.0331L43.1665 20.5282ZM43.2248 23.1728C43.9856 22.4452 43.9587 21.2217 43.1665 20.5282L41.8492 22.0331C41.7576 21.953 41.7545 21.8116 41.8425 21.7275L43.2248 23.1728ZM39.5656 26.6725L43.2248 23.1728L41.8425 21.7275L38.1832 25.2272L39.5656 26.6725ZM37.0812 26.6667C37.7736 27.3351 38.8701 27.3377 39.5656 26.6725L38.1832 25.2272C38.2636 25.1503 38.3903 25.1506 38.4704 25.2278L37.0812 26.6667ZM35.8867 25.5135L37.0812 26.6667L38.4704 25.2278L37.2758 24.0746L35.8867 25.5135ZM36.1771 25.5109C36.0972 25.5908 35.968 25.592 35.8867 25.5135L37.2758 24.0746C36.5723 23.3954 35.4544 23.4053 34.7629 24.0967L36.1771 25.5109ZM35.0651 26.6229L36.1771 25.5109L34.7629 24.0967L33.6509 25.2087L35.0651 26.6229ZM32.5298 26.6229C33.2299 27.323 34.365 27.323 35.0651 26.6229L33.6509 25.2087C33.7319 25.1278 33.8631 25.1278 33.944 25.2087L32.5298 26.6229ZM31.4276 25.5207L32.5298 26.6229L33.944 25.2087L32.8418 24.1065L31.4276 25.5207ZM31.7206 25.5207C31.6397 25.6016 31.5085 25.6016 31.4276 25.5207L32.8418 24.1065C32.1416 23.4063 31.0065 23.4063 30.3064 24.1065L31.7206 25.5207ZM30.6184 26.6229L31.7206 25.5207L30.3064 24.1065L29.2042 25.2087L30.6184 26.6229ZM28.083 26.6229C28.7831 27.323 29.9182 27.323 30.6184 26.6229L29.2042 25.2087C29.2851 25.1278 29.4163 25.1278 29.4972 25.2087L28.083 26.6229ZM26.8808 25.4207L28.083 26.6229L29.4972 25.2087L28.295 24.0065L26.8808 25.4207ZM27.1426 25.4463C27.0604 25.5014 26.9507 25.4907 26.8808 25.4207L28.295 24.0065C27.6897 23.4011 26.7408 23.3082 26.0296 23.7846L27.1426 25.4463ZM25.6674 26.4344L27.1426 25.4463L26.0296 23.7846L24.5544 24.7727L25.6674 26.4344ZM14.3016 21.8368C14.3016 20.0635 12.864 18.626 11.0907 18.626L11.0907 20.626C11.7595 20.626 12.3016 21.1681 12.3016 21.8368H14.3016ZM11.0907 25.0477C12.864 25.0477 14.3016 23.6101 14.3016 21.8368H12.3016C12.3016 22.5056 11.7595 23.0477 11.0907 23.0477L11.0907 25.0477ZM7.87988 21.8368C7.87988 23.6101 9.31743 25.0477 11.0907 25.0477V23.0477C10.422 23.0477 9.87988 22.5056 9.87988 21.8368H7.87988ZM11.0907 18.626C9.31743 18.626 7.87988 20.0635 7.87988 21.8368H9.87988C9.87988 21.1681 10.422 20.626 11.0907 20.626V18.626Z" fill="#2F1931"/>
<path d="M21.9658 21.4443L37.5622 21.4443" stroke="#2F1931" stroke-width="0.792792" strokeLinecap="round"/>
</svg>
