<svg width="34" height="35" viewBox="0 0 34 35" fill="none" xmlns="http://www.w3.org/2000/svg">
<path d="M16.0699 1.98557C14.878 2.05835 13.7223 2.26251 12.6168 2.58362C5.95036 4.52011 1.11226 10.71 1.19451 17.9906C1.24832 22.7535 3.39671 27.0021 6.75429 29.8708C7.31364 30.3487 7.90656 30.7883 8.52894 31.1857M25.5267 4.40996C26.3131 4.90842 27.0528 5.47426 27.7376 6.09947C30.8689 8.95826 32.8525 13.0582 32.9042 17.6324C32.9861 24.8835 28.1875 31.0526 21.563 33.0156C20.4567 33.3434 19.2995 33.5539 18.1056 33.6326" stroke="#2F1931" stroke-width="2" strokeLinecap="round"/>
<path d="M15.139 22.1557C15.2695 21.6535 14.8905 21.1634 14.3717 21.1634H7.56663C6.89729 21.1634 6.52917 20.3852 6.95374 19.8678L19.7798 4.23601C20.3189 3.57896 21.3738 4.11578 21.1599 4.93836L18.9593 13.4036C18.8288 13.9057 19.2078 14.3959 19.7266 14.3959H26.5317C27.201 14.3959 27.5691 15.1741 27.1446 15.6915L14.3186 31.3233C13.7794 31.9803 12.7245 31.4435 12.9384 30.6209L15.139 22.1557Z" fill="white"/>
<path d="M15.139 22.1557C15.2695 21.6535 14.8905 21.1634 14.3717 21.1634H7.56663C6.89729 21.1634 6.52917 20.3852 6.95374 19.8678L19.7798 4.23601C20.3189 3.57896 21.3738 4.11578 21.1599 4.93836L18.9593 13.4036C18.8288 13.9057 19.2078 14.3959 19.7266 14.3959H26.5317C27.201 14.3959 27.5691 15.1741 27.1446 15.6915L14.3186 31.3233C13.7794 31.9803 12.7245 31.4435 12.9384 30.6209L15.139 22.1557Z" fill="#2F1931"/>
</svg>
