<svg xmlns="http://www.w3.org/2000/svg" width="61" height="61" viewBox="0 0 61 61" fill="none"><path d="M0.558594 13.2942C0.558594 6.1618 6.36043 0.379883 13.5174 0.379883H48.192C55.349 0.379883 61.1508 6.16181 61.1508 13.2942V47.8499C61.1508 54.9823 55.349 60.7642 48.192 60.7642H13.5173C6.36042 60.7642 0.558594 54.9823 0.558594 47.8499V13.2942Z" fill="white"></path><path d="M0.558594 13.2942C0.558594 6.1618 6.36043 0.379883 13.5174 0.379883H48.192C55.349 0.379883 61.1508 6.16181 61.1508 13.2942V47.8499C61.1508 54.9823 55.349 60.7642 48.192 60.7642H13.5173C6.36042 60.7642 0.558594 54.9823 0.558594 47.8499V13.2942Z" fill="url(#paint0_linear_1_70)"></path><ellipse cx="5.77586" cy="5.75595" rx="5.77586" ry="5.75595" transform="matrix(1 -8.40036e-08 -8.45848e-08 -1 40.0178 32.1215)" fill="#2F1931"></ellipse><ellipse cx="5.77586" cy="5.75595" rx="5.77586" ry="5.75595" transform="matrix(1 -8.36438e-08 -8.49486e-08 -1 10.1394 32.1215)" fill="#2F1931"></ellipse><path fill-rule="evenodd" clip-rule="evenodd" d="M30.8409 41.378C35.1306 41.3829 39.1766 39.3696 42.3566 35.7942C42.6179 35.5004 42.5747 35.05 42.2711 34.7999L38.3522 31.5713C38.0501 31.3224 37.6048 31.3666 37.3403 31.6552C35.2237 33.9642 32.9169 34.8952 30.8484 34.8928C28.7786 34.8904 26.4752 33.9529 24.3683 31.6551C24.1038 31.3666 23.6585 31.3224 23.3564 31.5713L19.4374 34.7999C19.1339 35.05 19.0906 35.5004 19.352 35.7942C22.5179 39.3532 26.5541 41.373 30.8409 41.378Z" fill="#2F1931"></path><path fill-rule="evenodd" clip-rule="evenodd" d="M30.8409 41.378C35.1306 41.3829 39.1766 39.3696 42.3566 35.7942C42.6179 35.5004 42.5747 35.05 42.2711 34.7999L38.3522 31.5713C38.0501 31.3224 37.6048 31.3666 37.3403 31.6552C35.2237 33.9642 32.9169 34.8952 30.8484 34.8928C28.7786 34.8904 26.4752 33.9529 24.3683 31.6551C24.1038 31.3666 23.6585 31.3224 23.3564 31.5713L19.4374 34.7999C19.1339 35.05 19.0906 35.5004 19.352 35.7942C22.5179 39.3532 26.5541 41.373 30.8409 41.378Z" fill="#2F1931"></path><defs><linearGradient id="paint0_linear_1_70" x1="30.8547" y1="13.4619" x2="30.8547" y2="104.739" gradientUnits="userSpaceOnUse"><stop stop-color="#FFB800"></stop><stop offset="1" stop-color="#FFB800" stop-opacity="0"></stop></linearGradient></defs></svg>