<svg width="358" height="662" viewBox="0 0 358 662" fill="none" xmlns="http://www.w3.org/2000/svg">
<mask id="mask0_1_27" style="mask-type:alpha" maskUnits="userSpaceOnUse" x="19" y="26" width="294" height="626">
<path d="M19.3809 43.3731C19.3809 34.2805 26.7518 26.9096 35.8443 26.9096H295.572C304.664 26.9096 312.035 34.2806 312.035 43.3731V635.387C312.035 644.479 304.664 651.85 295.572 651.85H35.8443C26.7518 651.85 19.3809 644.479 19.3809 635.387V43.3731Z" fill="white"/>
</mask>
<g mask="url(#mask0_1_27)">
<rect x="9.24414" y="0.0653076" width="336.744" height="661.461" fill="white"/>
<rect x="0.68457" y="11.9454" width="356.419" height="64.5061" fill="#F8F8F8"/>
<line x1="58.6541" y1="43.7175" x2="37.2699" y2="43.7175" stroke="#232323" stroke-width="1.64494" stroke-linecap="round"/>
<line x1="58.6541" y1="50.6179" x2="37.2699" y2="50.6179" stroke="#232323" stroke-width="1.64494" stroke-linecap="round"/>
<line x1="58.6541" y1="57.5183" x2="37.2699" y2="57.5183" stroke="#232323" stroke-width="1.64494" stroke-linecap="round"/>
</g>
<rect x="105.771" y="495.909" width="117.613" height="44.4134" rx="8.2247" fill="white"/>
<path d="M151.353 516.896H149.306C149.269 516.631 149.193 516.396 149.077 516.19C148.962 515.981 148.814 515.804 148.634 515.657C148.453 515.511 148.244 515.399 148.007 515.321C147.774 515.243 147.52 515.204 147.246 515.204C146.75 515.204 146.319 515.327 145.951 515.573C145.584 515.816 145.298 516.171 145.096 516.639C144.893 517.103 144.792 517.667 144.792 518.33C144.792 519.013 144.893 519.586 145.096 520.05C145.302 520.514 145.588 520.865 145.956 521.101C146.323 521.338 146.749 521.457 147.232 521.457C147.503 521.457 147.753 521.421 147.984 521.349C148.218 521.277 148.425 521.173 148.606 521.036C148.786 520.896 148.936 520.726 149.054 520.527C149.176 520.327 149.26 520.1 149.306 519.844L151.353 519.854C151.3 520.293 151.168 520.717 150.956 521.125C150.747 521.53 150.465 521.893 150.11 522.214C149.758 522.531 149.338 522.784 148.849 522.971C148.362 523.155 147.813 523.246 147.199 523.246C146.345 523.246 145.582 523.053 144.909 522.667C144.239 522.281 143.71 521.721 143.32 520.989C142.934 520.257 142.741 519.371 142.741 518.33C142.741 517.287 142.937 516.399 143.33 515.667C143.722 514.934 144.255 514.377 144.928 513.994C145.601 513.607 146.358 513.414 147.199 513.414C147.753 513.414 148.267 513.492 148.741 513.648C149.218 513.804 149.64 514.031 150.007 514.33C150.375 514.626 150.674 514.989 150.905 515.419C151.138 515.849 151.288 516.341 151.353 516.896ZM154.814 523.251C154.356 523.251 153.948 523.172 153.589 523.013C153.231 522.851 152.948 522.612 152.739 522.298C152.533 521.98 152.43 521.584 152.43 521.111C152.43 520.712 152.504 520.377 152.65 520.106C152.797 519.835 152.996 519.617 153.248 519.452C153.501 519.287 153.787 519.162 154.108 519.078C154.432 518.994 154.772 518.935 155.127 518.9C155.544 518.857 155.881 518.816 156.136 518.779C156.392 518.738 156.577 518.679 156.692 518.601C156.808 518.523 156.865 518.408 156.865 518.256V518.227C156.865 517.932 156.772 517.703 156.585 517.541C156.401 517.379 156.139 517.298 155.8 517.298C155.442 517.298 155.156 517.377 154.945 517.536C154.733 517.692 154.593 517.888 154.524 518.125L152.683 517.975C152.776 517.539 152.96 517.162 153.234 516.844C153.508 516.523 153.862 516.277 154.295 516.106C154.731 515.931 155.236 515.844 155.809 515.844C156.208 515.844 156.59 515.891 156.954 515.984C157.322 516.078 157.647 516.223 157.931 516.419C158.217 516.615 158.443 516.868 158.608 517.176C158.773 517.481 158.856 517.847 158.856 518.274V523.116H156.968V522.12H156.912C156.797 522.345 156.642 522.542 156.449 522.714C156.256 522.882 156.024 523.014 155.753 523.111C155.482 523.204 155.169 523.251 154.814 523.251ZM155.384 521.877C155.677 521.877 155.935 521.82 156.16 521.704C156.384 521.586 156.56 521.427 156.688 521.228C156.815 521.028 156.879 520.802 156.879 520.55V519.788C156.817 519.829 156.731 519.866 156.622 519.9C156.516 519.932 156.396 519.961 156.262 519.989C156.128 520.014 155.994 520.038 155.861 520.059C155.727 520.078 155.605 520.095 155.496 520.111C155.262 520.145 155.058 520.2 154.884 520.274C154.709 520.349 154.574 520.45 154.477 520.578C154.381 520.703 154.332 520.858 154.332 521.045C154.332 521.316 154.431 521.524 154.627 521.667C154.826 521.807 155.079 521.877 155.384 521.877ZM162.391 518.966V523.116H160.4V515.938H162.298V517.204H162.382C162.541 516.787 162.807 516.456 163.181 516.213C163.555 515.967 164.008 515.844 164.541 515.844C165.039 515.844 165.474 515.953 165.845 516.171C166.215 516.389 166.504 516.701 166.709 517.106C166.915 517.508 167.018 517.988 167.018 518.545V523.116H165.027V518.9C165.03 518.461 164.918 518.118 164.69 517.872C164.463 517.623 164.15 517.498 163.751 517.498C163.483 517.498 163.246 517.556 163.041 517.671C162.838 517.787 162.679 517.955 162.564 518.176C162.452 518.394 162.394 518.657 162.391 518.966ZM171.83 523.256C171.095 523.256 170.462 523.1 169.932 522.788C169.406 522.474 169.001 522.038 168.717 521.48C168.437 520.922 168.297 520.281 168.297 519.555C168.297 518.819 168.439 518.175 168.722 517.62C169.009 517.062 169.415 516.628 169.942 516.316C170.468 516.002 171.095 515.844 171.82 515.844C172.447 515.844 172.995 515.958 173.465 516.185C173.936 516.413 174.308 516.732 174.582 517.143C174.856 517.555 175.007 518.037 175.036 518.592H173.157C173.104 518.234 172.964 517.946 172.736 517.727C172.512 517.506 172.218 517.396 171.853 517.396C171.545 517.396 171.275 517.48 171.045 517.648C170.817 517.813 170.64 518.055 170.512 518.372C170.384 518.69 170.32 519.075 170.32 519.527C170.32 519.985 170.383 520.374 170.507 520.695C170.635 521.016 170.814 521.26 171.045 521.429C171.275 521.597 171.545 521.681 171.853 521.681C172.081 521.681 172.285 521.634 172.465 521.541C172.649 521.447 172.8 521.312 172.919 521.134C173.04 520.953 173.12 520.737 173.157 520.485H175.036C175.004 521.033 174.855 521.516 174.587 521.933C174.322 522.348 173.956 522.672 173.489 522.905C173.021 523.139 172.468 523.256 171.83 523.256ZM179.581 523.256C178.843 523.256 178.207 523.106 177.675 522.807C177.145 522.505 176.737 522.078 176.45 521.527C176.164 520.972 176.02 520.316 176.02 519.559C176.02 518.821 176.164 518.173 176.45 517.615C176.737 517.058 177.14 516.623 177.661 516.312C178.184 516 178.798 515.844 179.502 515.844C179.975 515.844 180.416 515.921 180.824 516.073C181.236 516.223 181.594 516.449 181.899 516.751C182.208 517.053 182.447 517.433 182.619 517.891C182.79 518.346 182.876 518.879 182.876 519.489V520.036H176.815V518.802H181.002C181.002 518.516 180.94 518.262 180.815 518.041C180.69 517.819 180.517 517.646 180.296 517.522C180.078 517.394 179.824 517.33 179.535 517.33C179.232 517.33 178.964 517.4 178.731 517.541C178.5 517.678 178.32 517.863 178.189 518.097C178.058 518.327 177.991 518.584 177.988 518.868V520.041C177.988 520.396 178.053 520.703 178.184 520.961C178.318 521.22 178.506 521.419 178.749 521.559C178.992 521.7 179.281 521.77 179.614 521.77C179.835 521.77 180.038 521.739 180.222 521.676C180.405 521.614 180.563 521.52 180.693 521.396C180.824 521.271 180.924 521.119 180.993 520.938L182.834 521.059C182.74 521.502 182.549 521.888 182.259 522.218C181.972 522.545 181.602 522.801 181.147 522.985C180.695 523.165 180.173 523.256 179.581 523.256ZM186.166 513.545V523.116H184.175V513.545H186.166Z" fill="#8B8B8B"/>
<rect x="97.5459" y="433.401" width="138.997" height="48.0291" rx="8.2247" fill="#9747FF"/>
<path d="M150.947 453.605C150.842 453.566 150.71 453.52 150.552 453.467C150.407 453.441 150.23 453.414 150.019 453.388C149.822 453.349 149.572 453.329 149.269 453.329C148.611 453.329 148.124 453.467 147.808 453.743C147.506 454.007 147.354 454.342 147.354 454.75C147.354 455.211 147.506 455.579 147.808 455.856C148.124 456.132 148.512 456.375 148.973 456.586C149.434 456.783 149.934 456.981 150.473 457.178C151.013 457.375 151.513 457.632 151.973 457.948C152.434 458.251 152.816 458.645 153.118 459.132C153.434 459.619 153.592 460.251 153.592 461.027C153.592 461.606 153.48 462.146 153.256 462.646C153.033 463.146 152.697 463.58 152.25 463.949C151.815 464.304 151.269 464.587 150.611 464.797C149.953 465.008 149.19 465.113 148.322 465.113C147.453 465.113 146.742 465.047 146.19 464.916C145.637 464.771 145.255 464.593 145.045 464.383C144.979 464.317 144.92 464.245 144.867 464.166C144.828 464.087 144.795 463.995 144.769 463.889C144.742 463.771 144.722 463.639 144.709 463.495C144.709 463.337 144.709 463.146 144.709 462.922V462.626C144.709 462.337 144.709 462.119 144.709 461.975C144.709 461.83 144.716 461.665 144.729 461.481C144.755 461.205 144.834 461.007 144.966 460.889C145.111 460.757 145.295 460.692 145.519 460.692C145.953 460.692 146.256 460.948 146.427 461.461L146.92 462.902C147.052 462.955 147.21 463.008 147.394 463.06C147.552 463.1 147.743 463.139 147.966 463.179C148.203 463.205 148.486 463.218 148.815 463.218C149.473 463.218 149.973 463.06 150.315 462.745C150.671 462.416 150.848 462.014 150.848 461.54C150.848 461.172 150.756 460.869 150.572 460.632C150.401 460.382 150.164 460.165 149.861 459.981C149.572 459.797 149.243 459.632 148.874 459.488C148.506 459.343 148.124 459.198 147.729 459.053C147.335 458.895 146.953 458.718 146.585 458.52C146.216 458.323 145.88 458.079 145.578 457.79C145.288 457.5 145.051 457.152 144.867 456.744C144.696 456.336 144.611 455.842 144.611 455.263C144.611 454.724 144.716 454.224 144.926 453.763C145.137 453.289 145.453 452.881 145.874 452.539C146.308 452.197 146.848 451.927 147.493 451.73C148.151 451.533 148.927 451.434 149.822 451.434C150.611 451.434 151.25 451.5 151.736 451.631C152.237 451.763 152.592 451.934 152.802 452.145C152.868 452.21 152.921 452.283 152.96 452.362C153.013 452.441 153.052 452.539 153.079 452.658C153.105 452.763 153.118 452.895 153.118 453.053C153.131 453.197 153.138 453.382 153.138 453.605V453.842C153.138 454.105 153.138 454.316 153.138 454.474C153.138 454.619 153.131 454.783 153.118 454.967C153.092 455.244 153.006 455.448 152.862 455.579C152.73 455.698 152.552 455.757 152.329 455.757C152.105 455.757 151.921 455.698 151.776 455.579C151.631 455.448 151.513 455.25 151.421 454.987L150.947 453.605ZM158.006 460.435C158.099 461.33 158.388 462.014 158.875 462.488C159.375 462.948 160.073 463.179 160.967 463.179C161.27 463.179 161.527 463.159 161.737 463.12C161.961 463.08 162.152 463.041 162.31 463.001C162.481 462.962 162.625 462.922 162.744 462.883C162.875 462.843 163.001 462.823 163.119 462.823C163.329 462.823 163.494 462.889 163.612 463.021C163.731 463.139 163.79 463.31 163.79 463.534C163.79 463.666 163.764 463.784 163.711 463.889C163.672 463.995 163.599 464.1 163.494 464.205C163.27 464.429 162.882 464.639 162.329 464.837C161.79 465.034 161.086 465.133 160.217 465.133C159.441 465.133 158.743 465.028 158.125 464.817C157.52 464.593 157.006 464.278 156.585 463.87C156.177 463.449 155.861 462.935 155.638 462.33C155.427 461.725 155.322 461.034 155.322 460.257C155.322 459.415 155.44 458.665 155.677 458.007C155.927 457.336 156.269 456.77 156.704 456.31C157.138 455.849 157.658 455.494 158.263 455.244C158.868 454.994 159.54 454.869 160.276 454.869C161.513 454.869 162.474 455.217 163.158 455.915C163.856 456.612 164.205 457.619 164.205 458.935C164.205 459.435 164.086 459.81 163.849 460.06C163.612 460.31 163.277 460.435 162.843 460.435H158.006ZM161.579 458.915C161.553 458.139 161.388 457.579 161.086 457.237C160.796 456.895 160.415 456.724 159.941 456.724C159.428 456.724 159.007 456.915 158.678 457.296C158.349 457.678 158.138 458.218 158.046 458.915H161.579ZM167.071 457.06L166.163 456.862C165.9 456.796 165.709 456.704 165.591 456.586C165.486 456.467 165.433 456.296 165.433 456.073C165.433 455.836 165.486 455.658 165.591 455.54C165.709 455.408 165.9 455.303 166.163 455.224C166.44 455.145 166.755 455.079 167.111 455.026C167.466 454.974 167.808 454.948 168.137 454.948C168.637 454.948 168.986 455.046 169.183 455.244C169.381 455.441 169.479 455.77 169.479 456.231V456.487L169.519 456.507C169.677 456.204 169.894 455.934 170.17 455.698C170.407 455.5 170.716 455.316 171.098 455.145C171.493 454.974 171.986 454.888 172.579 454.888C173.723 454.888 174.605 455.211 175.224 455.856C175.842 456.487 176.151 457.428 176.151 458.678V463.021L176.901 463.258C177.178 463.35 177.369 463.455 177.474 463.574C177.579 463.692 177.632 463.863 177.632 464.087C177.632 464.324 177.546 464.521 177.375 464.679C177.204 464.837 176.967 464.916 176.665 464.916H172.993C172.69 464.916 172.454 464.837 172.282 464.679C172.111 464.521 172.026 464.324 172.026 464.087C172.026 463.863 172.078 463.692 172.184 463.574C172.289 463.455 172.48 463.35 172.756 463.258L173.467 463.021V459.31C173.467 458.428 173.309 457.81 172.993 457.454C172.677 457.086 172.217 456.902 171.611 456.902C171.309 456.902 171.039 456.954 170.802 457.06C170.578 457.152 170.387 457.257 170.23 457.375C170.045 457.52 169.887 457.672 169.756 457.829V463.021L170.466 463.258C170.743 463.35 170.934 463.455 171.039 463.574C171.144 463.692 171.197 463.863 171.197 464.087C171.197 464.324 171.111 464.521 170.94 464.679C170.769 464.837 170.532 464.916 170.23 464.916H166.44C166.137 464.916 165.9 464.837 165.729 464.679C165.558 464.521 165.472 464.324 165.472 464.087C165.472 463.863 165.525 463.699 165.63 463.593C165.736 463.475 165.933 463.37 166.222 463.277L167.071 463.021V457.06ZM185.28 452.697L184.372 452.5C184.108 452.434 183.917 452.342 183.799 452.223C183.694 452.105 183.641 451.934 183.641 451.71C183.641 451.473 183.694 451.296 183.799 451.177C183.917 451.046 184.108 450.94 184.372 450.861C184.648 450.783 184.964 450.717 185.319 450.664C185.674 450.611 186.043 450.585 186.424 450.585C187.017 450.585 187.418 450.697 187.628 450.921C187.852 451.131 187.964 451.533 187.964 452.125V462.981L188.773 463.12C189.037 463.172 189.221 463.258 189.326 463.376C189.431 463.495 189.484 463.666 189.484 463.889C189.484 464.113 189.425 464.291 189.306 464.422C189.188 464.541 189.004 464.646 188.754 464.738C188.49 464.83 188.201 464.903 187.885 464.955C187.569 465.021 187.234 465.054 186.878 465.054C186.418 465.054 186.082 464.949 185.872 464.738C185.661 464.514 185.556 464.192 185.556 463.771V463.514L185.516 463.495C185.358 463.797 185.141 464.067 184.865 464.304C184.628 464.514 184.312 464.705 183.917 464.876C183.536 465.034 183.049 465.113 182.457 465.113C181.299 465.113 180.371 464.732 179.674 463.968C178.976 463.192 178.627 462.001 178.627 460.396C178.627 459.527 178.752 458.751 179.002 458.066C179.252 457.382 179.614 456.803 180.088 456.329C180.562 455.856 181.141 455.494 181.825 455.244C182.523 454.994 183.312 454.869 184.194 454.869C184.352 454.869 184.49 454.875 184.608 454.888C184.74 454.901 184.858 454.915 184.964 454.928C185.082 454.954 185.187 454.974 185.28 454.987L185.319 454.948C185.306 454.803 185.293 454.658 185.28 454.513C185.28 454.355 185.28 454.165 185.28 453.941V452.697ZM185.28 457.139C185.174 457.073 185.049 457.014 184.904 456.961C184.773 456.908 184.615 456.862 184.431 456.823C184.246 456.783 184.036 456.764 183.799 456.764C183.062 456.764 182.477 457.02 182.042 457.533C181.608 458.033 181.391 458.882 181.391 460.08C181.391 461.159 181.582 461.935 181.963 462.409C182.358 462.87 182.845 463.1 183.424 463.1C183.727 463.1 183.99 463.054 184.214 462.962C184.45 462.87 184.648 462.764 184.806 462.646C184.99 462.501 185.148 462.343 185.28 462.172V457.139Z" fill="white"/>
<path d="M250.114 298.362L257.766 304.273L265.418 298.362" stroke="#2F1931" stroke-width="1.64494" stroke-linecap="round" stroke-linejoin="round"/>
<path d="M69.6258 314.205C69.1182 314.203 68.6844 314.069 68.3246 313.804C67.9648 313.538 67.6895 313.151 67.4989 312.644C67.3083 312.136 67.213 311.525 67.213 310.809C67.213 310.096 67.3083 309.487 67.4989 308.981C67.6917 308.476 67.968 308.09 68.3278 307.825C68.6898 307.559 69.1224 307.426 69.6258 307.426C70.1291 307.426 70.5607 307.56 70.9205 307.828C71.2803 308.093 71.5556 308.479 71.7462 308.984C71.939 309.488 72.0353 310.096 72.0353 310.809C72.0353 311.527 71.94 312.139 71.7494 312.647C71.5588 313.153 71.2836 313.539 70.9237 313.807C70.5639 314.072 70.1312 314.205 69.6258 314.205ZM69.6258 313.347C70.0713 313.347 70.4193 313.13 70.6699 312.695C70.9227 312.26 71.049 311.632 71.049 310.809C71.049 310.263 70.9912 309.802 70.8755 309.425C70.762 309.046 70.5982 308.759 70.384 308.564C70.1719 308.367 69.9192 308.268 69.6258 308.268C69.1824 308.268 68.8344 308.487 68.5816 308.923C68.3289 309.36 68.2014 309.989 68.1993 310.809C68.1993 311.358 68.2561 311.821 68.3696 312.2C68.4852 312.577 68.6491 312.863 68.8611 313.058C69.0732 313.251 69.3281 313.347 69.6258 313.347ZM73.9461 309.161L75.0353 311.082L76.134 309.161H77.1846L75.6457 311.629L77.1975 314.096H76.1469L75.0353 312.252L73.9269 314.096H72.8731L74.4088 311.629L72.8924 309.161H73.9461ZM79.5982 314.205C79.2855 314.205 79.0028 314.147 78.75 314.032C78.4973 313.914 78.297 313.744 78.1493 313.521C78.0036 313.298 77.9308 313.025 77.9308 312.702C77.9308 312.423 77.9843 312.194 78.0914 312.014C78.1985 311.834 78.3431 311.692 78.5251 311.587C78.7072 311.482 78.9107 311.403 79.1356 311.349C79.3605 311.296 79.5896 311.255 79.8231 311.227C80.1187 311.193 80.3586 311.165 80.5428 311.143C80.727 311.12 80.8608 311.082 80.9444 311.031C81.0279 310.98 81.0697 310.896 81.0697 310.78V310.758C81.0697 310.477 80.9904 310.26 80.8319 310.106C80.6756 309.952 80.4421 309.874 80.1315 309.874C79.8081 309.874 79.5532 309.946 79.3669 310.09C79.1827 310.231 79.0553 310.388 78.9846 310.562L78.0818 310.356C78.1889 310.056 78.3452 309.814 78.5509 309.63C78.7586 309.444 78.9974 309.309 79.2673 309.225C79.5372 309.14 79.821 309.097 80.1187 309.097C80.3157 309.097 80.5246 309.12 80.7452 309.168C80.9679 309.213 81.1757 309.296 81.3685 309.418C81.5634 309.54 81.7229 309.715 81.8472 309.942C81.9714 310.167 82.0335 310.459 82.0335 310.819V314.096H81.0954V313.421H81.0568C80.9947 313.546 80.9015 313.668 80.7773 313.788C80.6531 313.908 80.4935 314.007 80.2986 314.086C80.1037 314.166 79.8702 314.205 79.5982 314.205ZM79.807 313.434C80.0726 313.434 80.2997 313.382 80.4882 313.277C80.6788 313.172 80.8234 313.035 80.9219 312.866C81.0225 312.694 81.0729 312.511 81.0729 312.316V311.68C81.0386 311.714 80.9722 311.746 80.8737 311.776C80.7773 311.804 80.667 311.829 80.5428 311.85C80.4185 311.87 80.2975 311.888 80.1797 311.905C80.0619 311.92 79.9634 311.933 79.8842 311.943C79.6978 311.967 79.5275 312.007 79.3733 312.062C79.2212 312.118 79.0992 312.198 79.0071 312.303C78.9171 312.406 78.8721 312.543 78.8721 312.715C78.8721 312.952 78.9599 313.132 79.1356 313.254C79.3112 313.374 79.535 313.434 79.807 313.434ZM83.3901 314.096V307.516H84.3507V309.961H84.4085C84.4642 309.858 84.5445 309.739 84.6495 309.605C84.7544 309.47 84.9001 309.352 85.0864 309.251C85.2728 309.148 85.5191 309.097 85.8254 309.097C86.2238 309.097 86.5793 309.198 86.892 309.399C87.2047 309.6 87.45 309.89 87.6277 310.27C87.8077 310.649 87.8976 311.105 87.8976 311.638C87.8976 312.172 87.8087 312.629 87.6309 313.01C87.4532 313.389 87.209 313.682 86.8984 313.887C86.5879 314.091 86.2334 314.192 85.835 314.192C85.5351 314.192 85.2899 314.142 85.0993 314.041C84.9108 313.941 84.763 313.823 84.6559 313.688C84.5488 313.553 84.4664 313.433 84.4085 313.328H84.3282V314.096H83.3901ZM84.3314 311.629C84.3314 311.976 84.3818 312.28 84.4824 312.541C84.5831 312.802 84.7287 313.007 84.9194 313.155C85.11 313.3 85.3435 313.373 85.6198 313.373C85.9068 313.373 86.1466 313.297 86.3394 313.145C86.5322 312.991 86.6778 312.782 86.7764 312.519C86.877 312.255 86.9274 311.958 86.9274 311.629C86.9274 311.303 86.8781 311.011 86.7796 310.752C86.6832 310.492 86.5375 310.288 86.3426 310.138C86.1499 309.988 85.9089 309.913 85.6198 309.913C85.3413 309.913 85.1057 309.985 84.9129 310.128C84.7223 310.272 84.5777 310.472 84.4792 310.729C84.3807 310.986 84.3314 311.286 84.3314 311.629ZM91.055 314.196C90.5773 314.196 90.1661 314.087 89.8213 313.871C89.4786 313.653 89.2151 313.352 89.0309 312.968C88.8467 312.585 88.7546 312.146 88.7546 311.651C88.7546 311.15 88.8489 310.708 89.0373 310.324C89.2258 309.939 89.4914 309.638 89.8341 309.421C90.1768 309.205 90.5805 309.097 91.0453 309.097C91.4201 309.097 91.7543 309.167 92.0477 309.306C92.3411 309.443 92.5778 309.636 92.7577 309.884C92.9398 310.133 93.0479 310.423 93.0822 310.755H92.1473C92.0959 310.523 91.9781 310.324 91.7939 310.157C91.6118 309.99 91.3677 309.907 91.0614 309.907C90.7937 309.907 90.5591 309.977 90.3578 310.119C90.1586 310.258 90.0033 310.457 89.8919 310.716C89.7806 310.973 89.7249 311.277 89.7249 311.629C89.7249 311.988 89.7795 312.299 89.8887 312.56C89.998 312.822 90.1522 313.024 90.3514 313.168C90.5527 313.311 90.7894 313.383 91.0614 313.383C91.2434 313.383 91.4084 313.35 91.5562 313.283C91.7061 313.215 91.8314 313.117 91.932 312.991C92.0349 312.864 92.1066 312.712 92.1473 312.535H93.0822C93.0479 312.854 92.9441 313.139 92.7706 313.389C92.5971 313.64 92.3647 313.837 92.0734 313.98C91.7843 314.124 91.4448 314.196 91.055 314.196ZM96.593 307.516V314.096H95.597V308.512H95.5585L93.9842 309.54V308.589L95.6259 307.516H96.593ZM98.3729 314.096V313.376L100.599 311.07C100.837 310.819 101.033 310.599 101.187 310.411C101.344 310.22 101.46 310.039 101.537 309.868C101.615 309.697 101.653 309.515 101.653 309.322C101.653 309.103 101.602 308.915 101.499 308.756C101.396 308.596 101.256 308.473 101.078 308.387C100.9 308.299 100.7 308.255 100.477 308.255C100.242 308.255 100.036 308.303 99.8604 308.4C99.6847 308.496 99.5498 308.632 99.4556 308.808C99.3613 308.983 99.3142 309.189 99.3142 309.425H98.3664C98.3664 309.024 98.4585 308.674 98.6427 308.374C98.8269 308.074 99.0797 307.842 99.4009 307.677C99.7222 307.51 100.087 307.426 100.496 307.426C100.91 307.426 101.274 307.509 101.589 307.674C101.906 307.836 102.153 308.059 102.331 308.342C102.509 308.623 102.598 308.94 102.598 309.293C102.598 309.537 102.552 309.776 102.459 310.009C102.37 310.243 102.212 310.503 101.987 310.79C101.762 311.075 101.45 311.421 101.049 311.828L99.7415 313.196V313.245H102.704V314.096H98.3729ZM106.212 314.186C105.771 314.186 105.377 314.11 105.03 313.958C104.685 313.806 104.412 313.595 104.21 313.325C104.011 313.053 103.904 312.738 103.889 312.38H104.898C104.911 312.575 104.976 312.745 105.094 312.888C105.214 313.029 105.37 313.139 105.563 313.216C105.756 313.293 105.97 313.331 106.206 313.331C106.465 313.331 106.694 313.286 106.893 313.196C107.094 313.106 107.252 312.981 107.365 312.821C107.479 312.658 107.536 312.47 107.536 312.258C107.536 312.038 107.479 311.844 107.365 311.677C107.254 311.508 107.09 311.375 106.874 311.278C106.66 311.182 106.4 311.134 106.096 311.134H105.541V310.324H106.096C106.341 310.324 106.555 310.28 106.739 310.192C106.925 310.105 107.071 309.983 107.176 309.826C107.281 309.668 107.333 309.482 107.333 309.27C107.333 309.067 107.287 308.89 107.195 308.74C107.105 308.588 106.977 308.469 106.81 308.384C106.645 308.298 106.45 308.255 106.225 308.255C106.011 308.255 105.81 308.295 105.624 308.374C105.44 308.451 105.29 308.563 105.174 308.708C105.059 308.852 104.997 309.024 104.988 309.225H104.027C104.038 308.87 104.143 308.557 104.342 308.287C104.544 308.017 104.809 307.806 105.139 307.654C105.469 307.502 105.835 307.426 106.238 307.426C106.66 307.426 107.024 307.509 107.33 307.674C107.638 307.836 107.876 308.054 108.043 308.326C108.212 308.598 108.296 308.896 108.294 309.219C108.296 309.587 108.193 309.9 107.985 310.157C107.78 310.414 107.506 310.587 107.163 310.674V310.726C107.6 310.792 107.938 310.966 108.178 311.246C108.42 311.527 108.54 311.875 108.538 312.29C108.54 312.652 108.44 312.977 108.236 313.264C108.035 313.551 107.759 313.777 107.41 313.942C107.061 314.105 106.662 314.186 106.212 314.186ZM109.614 312.811V312.008L112.458 307.516H113.091V308.699H112.689L110.655 311.918V311.969H114.552V312.811H109.614ZM112.734 314.096V312.567L112.74 312.2V307.516H113.682V314.096H112.734ZM117.532 314.192C117.134 314.192 116.778 314.091 116.466 313.887C116.155 313.682 115.911 313.389 115.733 313.01C115.557 312.629 115.47 312.172 115.47 311.638C115.47 311.105 115.559 310.649 115.736 310.27C115.916 309.89 116.163 309.6 116.475 309.399C116.788 309.198 117.142 309.097 117.539 309.097C117.845 309.097 118.091 309.148 118.278 309.251C118.466 309.352 118.612 309.47 118.715 309.605C118.819 309.739 118.901 309.858 118.959 309.961H119.017V307.516H119.977V314.096H119.039V313.328H118.959C118.901 313.433 118.817 313.553 118.708 313.688C118.601 313.823 118.453 313.941 118.265 314.041C118.076 314.142 117.832 314.192 117.532 314.192ZM117.744 313.373C118.021 313.373 118.254 313.3 118.445 313.155C118.637 313.007 118.783 312.802 118.882 312.541C118.982 312.28 119.033 311.976 119.033 311.629C119.033 311.286 118.983 310.986 118.885 310.729C118.786 310.472 118.642 310.272 118.451 310.128C118.26 309.985 118.025 309.913 117.744 309.913C117.455 309.913 117.214 309.988 117.021 310.138C116.829 310.288 116.683 310.492 116.584 310.752C116.488 311.011 116.44 311.303 116.44 311.629C116.44 311.958 116.489 312.255 116.588 312.519C116.686 312.782 116.832 312.991 117.025 313.145C117.22 313.297 117.459 313.373 117.744 313.373ZM123.475 314.196C122.989 314.196 122.57 314.092 122.219 313.884C121.87 313.674 121.6 313.38 121.409 313C121.221 312.619 121.127 312.173 121.127 311.661C121.127 311.155 121.221 310.71 121.409 310.324C121.6 309.939 121.865 309.638 122.206 309.421C122.549 309.205 122.949 309.097 123.408 309.097C123.686 309.097 123.956 309.143 124.217 309.235C124.478 309.327 124.713 309.472 124.921 309.669C125.129 309.866 125.292 310.122 125.412 310.437C125.532 310.749 125.592 311.13 125.592 311.577V311.918H121.669V311.198H124.651C124.651 310.945 124.6 310.722 124.497 310.527C124.394 310.33 124.249 310.174 124.063 310.061C123.879 309.947 123.662 309.89 123.414 309.89C123.144 309.89 122.909 309.957 122.707 310.09C122.508 310.22 122.354 310.392 122.245 310.604C122.137 310.814 122.084 311.042 122.084 311.288V311.85C122.084 312.18 122.142 312.461 122.257 312.692C122.375 312.923 122.539 313.1 122.749 313.222C122.959 313.342 123.204 313.402 123.485 313.402C123.667 313.402 123.833 313.376 123.983 313.325C124.133 313.271 124.262 313.192 124.371 313.087C124.481 312.982 124.564 312.853 124.622 312.698L125.531 312.862C125.458 313.13 125.328 313.365 125.139 313.566C124.953 313.765 124.718 313.92 124.436 314.032C124.155 314.141 123.835 314.196 123.475 314.196ZM129.007 309.161V309.932H126.218V309.161H129.007ZM126.983 314.096V308.589C126.983 308.281 127.05 308.025 127.185 307.821C127.32 307.616 127.499 307.463 127.722 307.362C127.944 307.259 128.186 307.208 128.448 307.208C128.64 307.208 128.805 307.224 128.942 307.256C129.079 307.286 129.181 307.314 129.248 307.34L129.023 308.117C128.978 308.104 128.92 308.089 128.849 308.072C128.779 308.053 128.693 308.043 128.592 308.043C128.359 308.043 128.192 308.101 128.091 308.217C127.992 308.332 127.943 308.499 127.943 308.718V314.096H126.983ZM130.118 314.157C129.943 314.157 129.792 314.095 129.665 313.971C129.539 313.844 129.476 313.692 129.476 313.514C129.476 313.339 129.539 313.189 129.665 313.065C129.792 312.938 129.943 312.875 130.118 312.875C130.294 312.875 130.445 312.938 130.571 313.065C130.698 313.189 130.761 313.339 130.761 313.514C130.761 313.632 130.731 313.74 130.671 313.839C130.613 313.935 130.536 314.012 130.44 314.07C130.343 314.128 130.236 314.157 130.118 314.157ZM132.68 314.157C132.505 314.157 132.354 314.095 132.227 313.971C132.101 313.844 132.038 313.692 132.038 313.514C132.038 313.339 132.101 313.189 132.227 313.065C132.354 312.938 132.505 312.875 132.68 312.875C132.856 312.875 133.007 312.938 133.133 313.065C133.26 313.189 133.323 313.339 133.323 313.514C133.323 313.632 133.293 313.74 133.233 313.839C133.175 313.935 133.098 314.012 133.002 314.07C132.905 314.128 132.798 314.157 132.68 314.157ZM135.243 314.157C135.067 314.157 134.916 314.095 134.79 313.971C134.663 313.844 134.6 313.692 134.6 313.514C134.6 313.339 134.663 313.189 134.79 313.065C134.916 312.938 135.067 312.875 135.243 312.875C135.418 312.875 135.569 312.938 135.696 313.065C135.822 313.189 135.885 313.339 135.885 313.514C135.885 313.632 135.855 313.74 135.795 313.839C135.737 313.935 135.66 314.012 135.564 314.07C135.468 314.128 135.36 314.157 135.243 314.157Z" fill="#8B8B8B"/>
<path d="M67.1942 299.712V287.749H71.5753C72.4242 287.749 73.1271 287.889 73.684 288.169C74.2409 288.446 74.6576 288.821 74.9341 289.297C75.2106 289.768 75.3488 290.299 75.3488 290.891C75.3488 291.39 75.2573 291.81 75.0743 292.153C74.8912 292.492 74.6459 292.764 74.3382 292.971C74.0345 293.173 73.6996 293.321 73.3335 293.415V293.532C73.7307 293.551 74.1182 293.68 74.496 293.917C74.8776 294.151 75.193 294.484 75.4423 294.916C75.6915 295.348 75.8161 295.874 75.8161 296.493C75.8161 297.105 75.672 297.654 75.3838 298.14C75.0996 298.623 74.6595 299.007 74.0637 299.291C73.4679 299.572 72.7065 299.712 71.7797 299.712H67.1942ZM68.9992 298.164H71.6045C72.469 298.164 73.0882 297.996 73.462 297.661C73.8359 297.327 74.0228 296.908 74.0228 296.406C74.0228 296.028 73.9274 295.681 73.7366 295.366C73.5458 295.05 73.2732 294.799 72.9188 294.612C72.5683 294.425 72.1516 294.332 71.6687 294.332H68.9992V298.164ZM68.9992 292.924H71.4175C71.8225 292.924 72.1867 292.846 72.5099 292.69C72.837 292.535 73.096 292.317 73.2868 292.036C73.4815 291.752 73.5789 291.417 73.5789 291.031C73.5789 290.537 73.4056 290.122 73.059 289.787C72.7124 289.452 72.1808 289.285 71.4643 289.285H68.9992V292.924ZM79.5634 287.749V299.712H77.8168V287.749H79.5634ZM85.6925 299.893C84.8513 299.893 84.1172 299.7 83.4903 299.315C82.8633 298.929 82.3765 298.39 82.0299 297.697C81.6833 297.003 81.51 296.193 81.51 295.266C81.51 294.336 81.6833 293.522 82.0299 292.825C82.3765 292.128 82.8633 291.586 83.4903 291.201C84.1172 290.815 84.8513 290.623 85.6925 290.623C86.5336 290.623 87.2677 290.815 87.8947 291.201C88.5216 291.586 89.0084 292.128 89.355 292.825C89.7016 293.522 89.8749 294.336 89.8749 295.266C89.8749 296.193 89.7016 297.003 89.355 297.697C89.0084 298.39 88.5216 298.929 87.8947 299.315C87.2677 299.7 86.5336 299.893 85.6925 299.893ZM85.6983 298.427C86.2435 298.427 86.6952 298.283 87.0535 297.994C87.4118 297.706 87.6766 297.323 87.8479 296.844C88.0232 296.365 88.1108 295.837 88.1108 295.261C88.1108 294.688 88.0232 294.162 87.8479 293.683C87.6766 293.201 87.4118 292.813 87.0535 292.521C86.6952 292.229 86.2435 292.083 85.6983 292.083C85.1492 292.083 84.6936 292.229 84.3314 292.521C83.9731 292.813 83.7064 293.201 83.5311 293.683C83.3598 294.162 83.2741 294.688 83.2741 295.261C83.2741 295.837 83.3598 296.365 83.5311 296.844C83.7064 297.323 83.9731 297.706 84.3314 297.994C84.6936 298.283 85.1492 298.427 85.6983 298.427ZM95.6039 299.893C94.7354 299.893 93.9877 299.696 93.3608 299.303C92.7377 298.906 92.2587 298.359 91.9238 297.661C91.5889 296.964 91.4214 296.166 91.4214 295.266C91.4214 294.355 91.5928 293.551 91.9355 292.854C92.2782 292.153 92.761 291.606 93.3841 291.213C94.0072 290.819 94.7413 290.623 95.5863 290.623C96.2678 290.623 96.8753 290.749 97.4089 291.002C97.9424 291.251 98.3727 291.602 98.6998 292.054C99.0308 292.505 99.2275 293.033 99.2898 293.637H97.5899C97.4965 293.216 97.2823 292.854 96.9474 292.55C96.6164 292.246 96.1724 292.095 95.6155 292.095C95.1288 292.095 94.7023 292.223 94.3363 292.48C93.9741 292.733 93.6918 293.095 93.4893 293.567C93.2868 294.034 93.1855 294.587 93.1855 295.226C93.1855 295.88 93.2848 296.445 93.4834 296.92C93.682 297.395 93.9624 297.763 94.3246 298.024C94.6907 298.285 95.121 298.415 95.6155 298.415C95.9466 298.415 96.2464 298.355 96.5151 298.234C96.7877 298.109 97.0155 297.932 97.1986 297.702C97.3855 297.473 97.516 297.196 97.5899 296.873H99.2898C99.2275 297.453 99.0386 297.971 98.7232 298.427C98.4077 298.882 97.9852 299.241 97.4556 299.502C96.9299 299.762 96.3126 299.893 95.6039 299.893ZM102.764 296.668L102.752 294.536H103.056L106.631 290.739H108.722L104.645 295.062H104.37L102.764 296.668ZM101.158 299.712V287.749H102.904V299.712H101.158ZM106.824 299.712L103.611 295.448L104.814 294.227L108.968 299.712H106.824ZM113.303 299.887C112.579 299.887 111.933 299.702 111.364 299.332C110.799 298.958 110.355 298.427 110.032 297.737C109.713 297.044 109.553 296.213 109.553 295.243C109.553 294.273 109.715 293.444 110.038 292.755C110.365 292.065 110.813 291.538 111.381 291.172C111.95 290.806 112.595 290.623 113.315 290.623C113.872 290.623 114.32 290.716 114.659 290.903C115.001 291.086 115.266 291.3 115.453 291.546C115.644 291.791 115.792 292.007 115.897 292.194H116.002V287.749H117.749V299.712H116.043V298.316H115.897C115.792 298.507 115.64 298.725 115.441 298.97C115.247 299.215 114.978 299.429 114.635 299.612C114.292 299.796 113.849 299.887 113.303 299.887ZM113.689 298.397C114.191 298.397 114.616 298.265 114.962 298C115.313 297.732 115.578 297.36 115.757 296.885C115.94 296.409 116.031 295.856 116.031 295.226C116.031 294.603 115.942 294.057 115.763 293.59C115.583 293.123 115.321 292.759 114.974 292.498C114.627 292.237 114.199 292.106 113.689 292.106C113.163 292.106 112.725 292.243 112.375 292.515C112.024 292.788 111.759 293.16 111.58 293.631C111.405 294.102 111.317 294.634 111.317 295.226C111.317 295.825 111.407 296.365 111.586 296.844C111.765 297.323 112.03 297.702 112.38 297.983C112.735 298.259 113.171 298.397 113.689 298.397ZM124.108 299.893C123.224 299.893 122.463 299.704 121.824 299.326C121.19 298.945 120.699 298.409 120.352 297.72C120.01 297.027 119.838 296.215 119.838 295.284C119.838 294.365 120.01 293.555 120.352 292.854C120.699 292.153 121.182 291.606 121.801 291.213C122.424 290.819 123.152 290.623 123.986 290.623C124.492 290.623 124.983 290.706 125.458 290.874C125.933 291.041 126.359 291.304 126.737 291.662C127.115 292.021 127.413 292.486 127.631 293.058C127.849 293.627 127.958 294.318 127.958 295.132V295.751H120.826V294.443H126.246C126.246 293.983 126.153 293.576 125.966 293.222C125.779 292.864 125.516 292.581 125.177 292.375C124.843 292.169 124.449 292.065 123.997 292.065C123.507 292.065 123.078 292.186 122.712 292.428C122.35 292.665 122.07 292.977 121.871 293.362C121.676 293.744 121.579 294.159 121.579 294.606V295.629C121.579 296.228 121.684 296.739 121.895 297.159C122.109 297.58 122.407 297.901 122.788 298.123C123.17 298.341 123.616 298.45 124.126 298.45C124.457 298.45 124.759 298.403 125.031 298.31C125.304 298.212 125.54 298.068 125.738 297.878C125.937 297.687 126.089 297.451 126.194 297.171L127.847 297.469C127.715 297.955 127.477 298.382 127.134 298.748C126.795 299.11 126.369 299.392 125.855 299.595C125.345 299.794 124.763 299.893 124.108 299.893ZM137.314 290.739L134.061 299.712H132.191L128.932 290.739H130.807L133.079 297.644H133.173L135.439 290.739H137.314Z" fill="black"/>
<rect x="56.422" y="275.076" width="221.244" height="49.3482" rx="7.81346" stroke="#AAAAAA" stroke-width="0.82247"/>
<path d="M63.1043 259.224C63.0545 258.782 62.8489 258.439 62.4875 258.196C62.1261 257.95 61.6712 257.827 61.1229 257.827C60.7304 257.827 60.3908 257.889 60.1042 258.014C59.8176 258.135 59.5948 258.303 59.4359 258.518C59.2802 258.73 59.2023 258.972 59.2023 259.243C59.2023 259.47 59.2552 259.666 59.3612 259.831C59.4702 259.997 59.612 260.135 59.7864 260.247C59.964 260.356 60.154 260.448 60.3565 260.523C60.559 260.595 60.7538 260.654 60.9407 260.701L61.8753 260.944C62.1806 261.018 62.4937 261.12 62.8146 261.247C63.1355 261.375 63.433 261.543 63.7072 261.752C63.9813 261.961 64.2025 262.219 64.3708 262.528C64.5421 262.836 64.6278 263.205 64.6278 263.635C64.6278 264.177 64.4876 264.659 64.2072 265.079C63.9299 265.5 63.5265 265.832 62.9969 266.075C62.4704 266.318 61.8332 266.439 61.0855 266.439C60.369 266.439 59.749 266.326 59.2256 266.098C58.7023 265.871 58.2926 265.548 57.9966 265.131C57.7007 264.71 57.5371 264.212 57.5059 263.635H58.9546C58.9826 263.981 59.0948 264.269 59.2911 264.5C59.4905 264.727 59.7444 264.897 60.0528 265.009C60.3643 265.118 60.7055 265.173 61.0762 265.173C61.4843 265.173 61.8473 265.109 62.165 264.981C62.4859 264.85 62.7383 264.67 62.9221 264.439C63.1059 264.206 63.1978 263.933 63.1978 263.621C63.1978 263.338 63.1168 263.106 62.9548 262.925C62.7959 262.744 62.5794 262.595 62.3052 262.476C62.0342 262.358 61.7273 262.254 61.3846 262.163L60.2537 261.855C59.4873 261.646 58.8798 261.339 58.4312 260.934C57.9857 260.529 57.763 259.993 57.763 259.327C57.763 258.775 57.9125 258.294 58.2116 257.883C58.5107 257.472 58.9157 257.152 59.4266 256.925C59.9375 256.694 60.5139 256.579 61.1556 256.579C61.8037 256.579 62.3753 256.693 62.8707 256.92C63.3691 257.148 63.7617 257.461 64.0483 257.859C64.3349 258.255 64.4845 258.71 64.4969 259.224H63.1043ZM69.3348 266.425C68.6276 266.425 68.0185 266.274 67.5076 265.972C66.9998 265.667 66.6072 265.238 66.33 264.687C66.0558 264.132 65.9187 263.483 65.9187 262.738C65.9187 262.003 66.0558 261.355 66.33 260.794C66.6072 260.233 66.9935 259.796 67.4889 259.481C67.9874 259.166 68.5699 259.009 69.2366 259.009C69.6416 259.009 70.0342 259.076 70.4143 259.21C70.7944 259.344 71.1355 259.554 71.4377 259.841C71.7399 260.127 71.9782 260.5 72.1527 260.958C72.3271 261.413 72.4144 261.966 72.4144 262.617V263.112H66.7085V262.065H71.0451C71.0451 261.698 70.9704 261.372 70.8208 261.089C70.6713 260.802 70.461 260.576 70.19 260.411C69.922 260.246 69.6074 260.163 69.246 260.163C68.8534 260.163 68.5108 260.26 68.2179 260.453C67.9282 260.643 67.7039 260.892 67.545 261.201C67.3892 261.506 67.3113 261.838 67.3113 262.196V263.014C67.3113 263.494 67.3954 263.902 67.5637 264.238C67.735 264.575 67.9733 264.832 68.2787 265.009C68.584 265.184 68.9407 265.271 69.3488 265.271C69.6136 265.271 69.8551 265.234 70.0731 265.159C70.2912 265.081 70.4797 264.966 70.6386 264.813C70.7975 264.66 70.919 264.472 71.0031 264.248L72.3256 264.486C72.2197 264.875 72.0296 265.216 71.7555 265.509C71.4844 265.799 71.1433 266.025 70.732 266.187C70.3239 266.346 69.8582 266.425 69.3348 266.425ZM75.3619 262.019V266.28H73.9647V259.102H75.3059V260.271H75.3947C75.5598 259.891 75.8183 259.585 76.1704 259.355C76.5255 259.124 76.9726 259.009 77.5116 259.009C78.0007 259.009 78.4291 259.112 78.7967 259.317C79.1643 259.52 79.4494 259.822 79.6519 260.224C79.8544 260.626 79.9556 261.123 79.9556 261.715V266.28H78.5584V261.883C78.5584 261.363 78.4228 260.956 78.1518 260.663C77.8808 260.367 77.5085 260.219 77.0349 260.219C76.7109 260.219 76.4227 260.289 76.1704 260.43C75.9212 260.57 75.7233 260.775 75.5769 261.046C75.4336 261.314 75.3619 261.638 75.3619 262.019ZM84.5166 266.421C83.9371 266.421 83.42 266.273 82.9651 265.977C82.5134 265.678 82.1582 265.252 81.8996 264.701C81.6442 264.146 81.5164 263.481 81.5164 262.705C81.5164 261.93 81.6457 261.266 81.9043 260.715C82.166 260.163 82.5243 259.741 82.9791 259.448C83.434 259.155 83.9496 259.009 84.5259 259.009C84.9714 259.009 85.3297 259.084 85.6008 259.233C85.8749 259.38 86.0868 259.551 86.2363 259.747C86.389 259.944 86.5073 260.117 86.5915 260.266H86.6756V256.71H88.0728V266.28H86.7083V265.164H86.5915C86.5073 265.316 86.3858 265.491 86.2269 265.687C86.0712 265.883 85.8562 266.055 85.5821 266.201C85.3079 266.347 84.9527 266.421 84.5166 266.421ZM84.825 265.229C85.2269 265.229 85.5665 265.123 85.8438 264.911C86.1241 264.696 86.336 264.399 86.4793 264.019C86.6257 263.639 86.6989 263.196 86.6989 262.691C86.6989 262.193 86.6273 261.757 86.484 261.383C86.3407 261.009 86.1304 260.718 85.8531 260.509C85.5758 260.3 85.2331 260.196 84.825 260.196C84.4044 260.196 84.0539 260.305 83.7736 260.523C83.4932 260.741 83.2813 261.039 83.138 261.416C82.9978 261.793 82.9277 262.218 82.9277 262.691C82.9277 263.171 82.9994 263.603 83.1427 263.986C83.286 264.369 83.4978 264.673 83.7782 264.897C84.0617 265.118 84.4107 265.229 84.825 265.229ZM96.9004 259.102V260.224H92.9796V259.102H96.9004ZM94.0311 257.383H95.4283V264.173C95.4283 264.444 95.4688 264.648 95.5498 264.785C95.6308 264.919 95.7352 265.011 95.8629 265.061C95.9938 265.107 96.1355 265.131 96.2882 265.131C96.4003 265.131 96.4985 265.123 96.5826 265.107C96.6667 265.092 96.7321 265.079 96.7789 265.07L97.0312 266.224C96.9502 266.255 96.8349 266.287 96.6854 266.318C96.5359 266.352 96.3489 266.371 96.1246 266.374C95.757 266.38 95.4143 266.315 95.0965 266.178C94.7788 266.041 94.5217 265.829 94.3255 265.542C94.1292 265.255 94.0311 264.896 94.0311 264.463V257.383ZM101.392 266.425C100.719 266.425 100.132 266.271 99.6306 265.963C99.1291 265.654 98.7396 265.223 98.4624 264.668C98.1851 264.114 98.0464 263.466 98.0464 262.724C98.0464 261.98 98.1851 261.328 98.4624 260.771C98.7396 260.213 99.1291 259.78 99.6306 259.472C100.132 259.163 100.719 259.009 101.392 259.009C102.065 259.009 102.653 259.163 103.154 259.472C103.656 259.78 104.045 260.213 104.322 260.771C104.6 261.328 104.738 261.98 104.738 262.724C104.738 263.466 104.6 264.114 104.322 264.668C104.045 265.223 103.656 265.654 103.154 265.963C102.653 266.271 102.065 266.425 101.392 266.425ZM101.397 265.252C101.833 265.252 102.195 265.137 102.481 264.906C102.768 264.676 102.98 264.369 103.117 263.986C103.257 263.603 103.327 263.181 103.327 262.719C103.327 262.262 103.257 261.841 103.117 261.458C102.98 261.071 102.768 260.761 102.481 260.528C102.195 260.294 101.833 260.177 101.397 260.177C100.958 260.177 100.593 260.294 100.304 260.528C100.017 260.761 99.8035 261.071 99.6633 261.458C99.5263 261.841 99.4577 262.262 99.4577 262.719C99.4577 263.181 99.5263 263.603 99.6633 263.986C99.8035 264.369 100.017 264.676 100.304 264.906C100.593 265.137 100.958 265.252 101.397 265.252Z" fill="#8B8B8B"/>
<path d="M60.1605 347.705H57.0622V338.134H60.2586C61.1964 338.134 62.0017 338.326 62.6746 338.709C63.3475 339.089 63.8631 339.636 64.2214 340.349C64.5828 341.06 64.7635 341.912 64.7635 342.906C64.7635 343.903 64.5812 344.759 64.2167 345.476C63.8554 346.192 63.332 346.744 62.6466 347.13C61.9612 347.513 61.1325 347.705 60.1605 347.705ZM58.5062 346.443H60.081C60.81 346.443 61.416 346.306 61.8989 346.032C62.3818 345.755 62.7432 345.354 62.983 344.831C63.2229 344.304 63.3429 343.663 63.3429 342.906C63.3429 342.155 63.2229 341.518 62.983 340.994C62.7463 340.471 62.3927 340.074 61.9222 339.803C61.4518 339.532 60.8677 339.396 60.1698 339.396H58.5062V346.443ZM69.5406 347.85C68.8334 347.85 68.2243 347.699 67.7134 347.396C67.2056 347.091 66.8131 346.663 66.5358 346.111C66.2616 345.557 66.1245 344.907 66.1245 344.163C66.1245 343.427 66.2616 342.779 66.5358 342.219C66.8131 341.658 67.1994 341.22 67.6947 340.906C68.1932 340.591 68.7758 340.434 69.4425 340.434C69.8475 340.434 70.24 340.5 70.6201 340.634C71.0002 340.768 71.3413 340.979 71.6435 341.265C71.9457 341.552 72.184 341.924 72.3585 342.382C72.533 342.837 72.6202 343.39 72.6202 344.041V344.537H66.9143V343.49H71.251C71.251 343.122 71.1762 342.797 71.0267 342.513C70.8771 342.226 70.6668 342.001 70.3958 341.835C70.1279 341.67 69.8132 341.588 69.4518 341.588C69.0593 341.588 68.7166 341.684 68.4237 341.878C68.134 342.068 67.9097 342.317 67.7508 342.625C67.595 342.931 67.5171 343.262 67.5171 343.621V344.438C67.5171 344.918 67.6013 345.326 67.7695 345.663C67.9408 345.999 68.1792 346.256 68.4845 346.434C68.7898 346.608 69.1465 346.696 69.5546 346.696C69.8194 346.696 70.0609 346.658 70.279 346.583C70.497 346.505 70.6855 346.39 70.8444 346.238C71.0033 346.085 71.1248 345.896 71.2089 345.672L72.5314 345.91C72.4255 346.3 72.2354 346.641 71.9613 346.934C71.6902 347.224 71.3491 347.449 70.9379 347.611C70.5297 347.77 70.064 347.85 69.5406 347.85ZM77.5211 340.527V341.649H73.6004V340.527H77.5211ZM74.6518 338.807H76.0491V345.597C76.0491 345.868 76.0896 346.072 76.1706 346.209C76.2516 346.343 76.356 346.435 76.4837 346.485C76.6145 346.532 76.7563 346.555 76.9089 346.555C77.0211 346.555 77.1192 346.548 77.2034 346.532C77.2875 346.516 77.3529 346.504 77.3996 346.495L77.652 347.649C77.571 347.68 77.4557 347.711 77.3062 347.742C77.1566 347.777 76.9697 347.795 76.7454 347.798C76.3778 347.805 76.0351 347.739 75.7173 347.602C75.3995 347.465 75.1425 347.253 74.9462 346.967C74.75 346.68 74.6518 346.32 74.6518 345.887V338.807ZM81.1556 347.864C80.7008 347.864 80.2896 347.78 79.9219 347.611C79.5543 347.44 79.263 347.192 79.0481 346.868C78.8362 346.544 78.7303 346.147 78.7303 345.677C78.7303 345.272 78.8082 344.938 78.964 344.677C79.1197 344.415 79.33 344.208 79.5948 344.055C79.8596 343.903 80.1556 343.787 80.4827 343.709C80.8098 343.631 81.1432 343.572 81.4828 343.532C81.9127 343.482 82.2616 343.441 82.5295 343.41C82.7975 343.376 82.9922 343.322 83.1137 343.247C83.2352 343.172 83.2959 343.05 83.2959 342.882V342.85C83.2959 342.441 83.1807 342.125 82.9501 341.901C82.7227 341.677 82.3831 341.564 81.9314 341.564C81.461 341.564 81.0902 341.669 80.8192 341.878C80.5513 342.083 80.3659 342.312 80.2631 342.564L78.9499 342.265C79.1057 341.829 79.3331 341.477 79.6322 341.209C79.9344 340.938 80.2818 340.742 80.6743 340.62C81.0669 340.496 81.4797 340.434 81.9127 340.434C82.1993 340.434 82.5031 340.468 82.824 340.536C83.148 340.602 83.4502 340.723 83.7305 340.901C84.014 341.078 84.2461 341.332 84.4268 341.663C84.6075 341.99 84.6979 342.415 84.6979 342.938V347.705H83.3333V346.724H83.2772C83.1869 346.904 83.0514 347.082 82.8707 347.256C82.69 347.431 82.4579 347.576 82.1744 347.691C81.8909 347.806 81.5513 347.864 81.1556 347.864ZM81.4594 346.742C81.8457 346.742 82.1759 346.666 82.4501 346.513C82.7274 346.361 82.9377 346.161 83.081 345.915C83.2274 345.666 83.3006 345.399 83.3006 345.116V344.191C83.2508 344.241 83.1542 344.287 83.0109 344.331C82.8707 344.371 82.7102 344.407 82.5295 344.438C82.3489 344.466 82.1728 344.493 82.0015 344.518C81.8301 344.54 81.6868 344.558 81.5716 344.574C81.3005 344.608 81.0528 344.666 80.8285 344.747C80.6073 344.828 80.4298 344.945 80.2958 345.097C80.1649 345.247 80.0995 345.446 80.0995 345.695C80.0995 346.041 80.2273 346.303 80.4827 346.481C80.7382 346.655 81.0637 346.742 81.4594 346.742ZM86.5589 347.705V340.527H87.9562V347.705H86.5589ZM87.2646 339.419C87.0216 339.419 86.8129 339.338 86.6384 339.176C86.467 339.011 86.3814 338.815 86.3814 338.588C86.3814 338.357 86.467 338.161 86.6384 337.999C86.8129 337.834 87.0216 337.751 87.2646 337.751C87.5076 337.751 87.7148 337.834 87.8861 337.999C88.0606 338.161 88.1478 338.357 88.1478 338.588C88.1478 338.815 88.0606 339.011 87.8861 339.176C87.7148 339.338 87.5076 339.419 87.2646 339.419ZM91.2332 338.134V347.705H89.836V338.134H91.2332ZM98.4918 342.279L97.2253 342.504C97.1724 342.342 97.0883 342.187 96.973 342.041C96.8608 341.895 96.7082 341.775 96.515 341.681C96.3219 341.588 96.0804 341.541 95.7907 341.541C95.395 341.541 95.0648 341.63 94.8 341.807C94.5352 341.982 94.4028 342.208 94.4028 342.485C94.4028 342.725 94.4916 342.918 94.6691 343.064C94.8467 343.211 95.1333 343.331 95.529 343.424L96.6692 343.686C97.3297 343.839 97.822 344.074 98.146 344.392C98.47 344.709 98.632 345.122 98.632 345.63C98.632 346.06 98.5073 346.443 98.2581 346.78C98.012 347.113 97.6677 347.375 97.2253 347.565C96.7861 347.755 96.2767 347.85 95.6972 347.85C94.8935 347.85 94.2377 347.678 93.7299 347.336C93.222 346.99 92.9105 346.499 92.7952 345.864L94.1458 345.658C94.2299 346.01 94.4028 346.276 94.6645 346.457C94.9262 346.635 95.2673 346.724 95.6879 346.724C96.1459 346.724 96.5119 346.629 96.7861 346.438C97.0602 346.245 97.1973 346.01 97.1973 345.733C97.1973 345.509 97.1132 345.32 96.945 345.167C96.7798 345.015 96.5259 344.899 96.1832 344.822L94.9682 344.555C94.2984 344.403 93.8031 344.16 93.4822 343.826C93.1644 343.493 93.0055 343.071 93.0055 342.56C93.0055 342.136 93.1239 341.765 93.3607 341.448C93.5974 341.13 93.9246 340.882 94.342 340.705C94.7595 340.524 95.2377 340.434 95.7767 340.434C96.5524 340.434 97.163 340.602 97.6085 340.938C98.054 341.272 98.3485 341.719 98.4918 342.279Z" fill="#8B8B8B"/>
<path d="M57.0622 365.799V356.229H62.9971V357.472H58.5062V360.388H62.5718V361.626H58.5062V365.799H57.0622ZM67.1573 365.944C66.4844 365.944 65.8971 365.79 65.3955 365.481C64.894 365.173 64.5045 364.742 64.2273 364.187C63.95 363.632 63.8114 362.984 63.8114 362.243C63.8114 361.498 63.95 360.847 64.2273 360.29C64.5045 359.732 64.894 359.299 65.3955 358.991C65.8971 358.682 66.4844 358.528 67.1573 358.528C67.8302 358.528 68.4175 358.682 68.9191 358.991C69.4207 359.299 69.8101 359.732 70.0874 360.29C70.3646 360.847 70.5033 361.498 70.5033 362.243C70.5033 362.984 70.3646 363.632 70.0874 364.187C69.8101 364.742 69.4207 365.173 68.9191 365.481C68.4175 365.79 67.8302 365.944 67.1573 365.944ZM67.162 364.771C67.5981 364.771 67.9595 364.656 68.2461 364.425C68.5328 364.195 68.7446 363.888 68.8817 363.505C69.0219 363.122 69.092 362.699 69.092 362.238C69.092 361.78 69.0219 361.36 68.8817 360.977C68.7446 360.59 68.5328 360.28 68.2461 360.047C67.9595 359.813 67.5981 359.696 67.162 359.696C66.7227 359.696 66.3582 359.813 66.0685 360.047C65.7819 360.28 65.5684 360.59 65.4283 360.977C65.2912 361.36 65.2226 361.78 65.2226 362.238C65.2226 362.699 65.2912 363.122 65.4283 363.505C65.5684 363.888 65.7819 364.195 66.0685 364.425C66.3582 364.656 66.7227 364.771 67.162 364.771ZM72.0629 365.799V358.621H73.4135V359.762H73.4882C73.6191 359.375 73.8496 359.072 74.1798 358.85C74.5132 358.626 74.8902 358.514 75.3107 358.514C75.398 358.514 75.5008 358.517 75.6192 358.523C75.7407 358.529 75.8357 358.537 75.9042 358.547V359.883C75.8481 359.868 75.7485 359.85 75.6051 359.832C75.4618 359.81 75.3185 359.799 75.1752 359.799C74.845 359.799 74.5506 359.869 74.292 360.009C74.0365 360.146 73.834 360.338 73.6845 360.584C73.535 360.827 73.4602 361.104 73.4602 361.416V365.799H72.0629ZM85.9748 360.374L84.7084 360.598C84.6554 360.436 84.5713 360.282 84.456 360.135C84.3439 359.989 84.1912 359.869 83.9981 359.776C83.8049 359.682 83.5635 359.635 83.2737 359.635C82.8781 359.635 82.5478 359.724 82.283 359.902C82.0182 360.076 81.8858 360.302 81.8858 360.579C81.8858 360.819 81.9746 361.012 82.1522 361.159C82.3298 361.305 82.6164 361.425 83.012 361.519L84.1523 361.78C84.8128 361.933 85.305 362.168 85.629 362.486C85.953 362.804 86.115 363.217 86.115 363.724C86.115 364.154 85.9904 364.538 85.7411 364.874C85.495 365.207 85.1508 365.469 84.7084 365.659C84.2691 365.849 83.7597 365.944 83.1803 365.944C82.3765 365.944 81.7207 365.773 81.2129 365.43C80.7051 365.084 80.3935 364.594 80.2783 363.958L81.6288 363.752C81.7129 364.104 81.8858 364.371 82.1475 364.552C82.4092 364.729 82.7504 364.818 83.1709 364.818C83.6289 364.818 83.995 364.723 84.2691 364.533C84.5433 364.34 84.6804 364.104 84.6804 363.827C84.6804 363.603 84.5962 363.414 84.428 363.262C84.2629 363.109 84.009 362.994 83.6663 362.916L82.4513 362.65C81.7815 362.497 81.2861 362.254 80.9652 361.921C80.6474 361.587 80.4886 361.165 80.4886 360.654C80.4886 360.23 80.6069 359.86 80.8437 359.542C81.0805 359.224 81.4076 358.976 81.8251 358.799C82.2425 358.618 82.7208 358.528 83.2597 358.528C84.0355 358.528 84.6461 358.696 85.0916 359.033C85.5371 359.366 85.8315 359.813 85.9748 360.374ZM90.6748 365.944C90.0019 365.944 89.4146 365.79 88.913 365.481C88.4114 365.173 88.022 364.742 87.7448 364.187C87.4675 363.632 87.3288 362.984 87.3288 362.243C87.3288 361.498 87.4675 360.847 87.7448 360.29C88.022 359.732 88.4114 359.299 88.913 358.991C89.4146 358.682 90.0019 358.528 90.6748 358.528C91.3477 358.528 91.935 358.682 92.4366 358.991C92.9381 359.299 93.3276 359.732 93.6048 360.29C93.8821 360.847 94.0208 361.498 94.0208 362.243C94.0208 362.984 93.8821 363.632 93.6048 364.187C93.3276 364.742 92.9381 365.173 92.4366 365.481C91.935 365.79 91.3477 365.944 90.6748 365.944ZM90.6795 364.771C91.1156 364.771 91.477 364.656 91.7636 364.425C92.0503 364.195 92.2621 363.888 92.3992 363.505C92.5394 363.122 92.6095 362.699 92.6095 362.238C92.6095 361.78 92.5394 361.36 92.3992 360.977C92.2621 360.59 92.0503 360.28 91.7636 360.047C91.477 359.813 91.1156 359.696 90.6795 359.696C90.2402 359.696 89.8757 359.813 89.586 360.047C89.2993 360.28 89.0859 360.59 88.9457 360.977C88.8087 361.36 88.7401 361.78 88.7401 362.238C88.7401 362.699 88.8087 363.122 88.9457 363.505C89.0859 363.888 89.2993 364.195 89.586 364.425C89.8757 364.656 90.2402 364.771 90.6795 364.771ZM95.5804 365.799V358.621H96.9216V359.79H97.0104C97.1599 359.394 97.4045 359.086 97.7441 358.864C98.0836 358.64 98.4902 358.528 98.9637 358.528C99.4435 358.528 99.8454 358.64 100.169 358.864C100.497 359.089 100.738 359.397 100.894 359.79H100.969C101.14 359.406 101.412 359.101 101.786 358.874C102.16 358.643 102.606 358.528 103.123 358.528C103.774 358.528 104.305 358.732 104.716 359.14C105.131 359.548 105.338 360.163 105.338 360.986V365.799H103.941V361.117C103.941 360.631 103.808 360.279 103.543 360.061C103.279 359.843 102.962 359.734 102.595 359.734C102.14 359.734 101.786 359.874 101.534 360.154C101.282 360.431 101.155 360.788 101.155 361.224V365.799H99.7629V361.028C99.7629 360.639 99.6414 360.325 99.3983 360.089C99.1553 359.852 98.8391 359.734 98.4497 359.734C98.1849 359.734 97.9403 359.804 97.716 359.944C97.4948 360.081 97.3157 360.273 97.1786 360.519C97.0447 360.765 96.9777 361.05 96.9777 361.374V365.799H95.5804ZM110.304 365.944C109.597 365.944 108.988 365.793 108.477 365.491C107.969 365.186 107.577 364.757 107.299 364.206C107.025 363.651 106.888 363.002 106.888 362.257C106.888 361.522 107.025 360.874 107.299 360.313C107.577 359.752 107.963 359.315 108.458 359C108.957 358.685 109.539 358.528 110.206 358.528C110.611 358.528 111.004 358.595 111.384 358.729C111.764 358.863 112.105 359.073 112.407 359.36C112.709 359.646 112.948 360.019 113.122 360.477C113.297 360.931 113.384 361.484 113.384 362.136V362.631H107.678V361.584H112.015C112.015 361.216 111.94 360.891 111.79 360.607C111.641 360.321 111.43 360.095 111.159 359.93C110.892 359.765 110.577 359.682 110.215 359.682C109.823 359.682 109.48 359.779 109.187 359.972C108.898 360.162 108.673 360.411 108.514 360.72C108.359 361.025 108.281 361.357 108.281 361.715V362.533C108.281 363.013 108.365 363.421 108.533 363.757C108.704 364.094 108.943 364.351 109.248 364.528C109.553 364.703 109.91 364.79 110.318 364.79C110.583 364.79 110.825 364.752 111.043 364.678C111.261 364.6 111.449 364.485 111.608 364.332C111.767 364.179 111.888 363.991 111.973 363.766L113.295 364.005C113.189 364.394 112.999 364.735 112.725 365.028C112.454 365.318 112.113 365.544 111.702 365.706C111.293 365.865 110.828 365.944 110.304 365.944ZM121.44 365.944C120.746 365.944 120.147 365.787 119.646 365.472C119.147 365.154 118.764 364.717 118.496 364.159C118.228 363.601 118.094 362.963 118.094 362.243C118.094 361.514 118.231 360.871 118.506 360.313C118.78 359.752 119.166 359.315 119.665 359C120.163 358.685 120.75 358.528 121.426 358.528C121.971 358.528 122.457 358.629 122.884 358.832C123.311 359.031 123.655 359.311 123.917 359.673C124.182 360.034 124.339 360.456 124.389 360.939H123.029C122.954 360.603 122.783 360.313 122.515 360.07C122.25 359.827 121.895 359.706 121.45 359.706C121.06 359.706 120.719 359.808 120.426 360.014C120.137 360.216 119.911 360.506 119.749 360.883C119.587 361.257 119.506 361.699 119.506 362.21C119.506 362.734 119.585 363.185 119.744 363.566C119.903 363.946 120.127 364.24 120.417 364.449C120.71 364.657 121.054 364.762 121.45 364.762C121.714 364.762 121.954 364.714 122.169 364.617C122.387 364.517 122.57 364.376 122.716 364.192C122.866 364.008 122.97 363.787 123.029 363.528H124.389C124.339 363.992 124.188 364.407 123.936 364.771C123.683 365.136 123.345 365.422 122.922 365.631C122.501 365.84 122.007 365.944 121.44 365.944ZM128.907 365.944C128.234 365.944 127.647 365.79 127.145 365.481C126.643 365.173 126.254 364.742 125.977 364.187C125.699 363.632 125.561 362.984 125.561 362.243C125.561 361.498 125.699 360.847 125.977 360.29C126.254 359.732 126.643 359.299 127.145 358.991C127.647 358.682 128.234 358.528 128.907 358.528C129.58 358.528 130.167 358.682 130.669 358.991C131.17 359.299 131.56 359.732 131.837 360.29C132.114 360.847 132.253 361.498 132.253 362.243C132.253 362.984 132.114 363.632 131.837 364.187C131.56 364.742 131.17 365.173 130.669 365.481C130.167 365.79 129.58 365.944 128.907 365.944ZM128.911 364.771C129.348 364.771 129.709 364.656 129.996 364.425C130.282 364.195 130.494 363.888 130.631 363.505C130.771 363.122 130.841 362.699 130.841 362.238C130.841 361.78 130.771 361.36 130.631 360.977C130.494 360.59 130.282 360.28 129.996 360.047C129.709 359.813 129.348 359.696 128.911 359.696C128.472 359.696 128.108 359.813 127.818 360.047C127.531 360.28 127.318 360.59 127.178 360.977C127.041 361.36 126.972 361.78 126.972 362.238C126.972 362.699 127.041 363.122 127.178 363.505C127.318 363.888 127.531 364.195 127.818 364.425C128.108 364.656 128.472 364.771 128.911 364.771ZM137.228 358.621V359.743H133.172V358.621H137.228ZM134.284 365.799V357.79C134.284 357.341 134.383 356.969 134.579 356.673C134.775 356.374 135.035 356.151 135.359 356.004C135.683 355.855 136.035 355.78 136.415 355.78C136.696 355.78 136.936 355.803 137.135 355.85C137.334 355.894 137.482 355.934 137.579 355.972L137.252 357.103C137.186 357.084 137.102 357.062 136.999 357.037C136.897 357.009 136.772 356.995 136.626 356.995C136.286 356.995 136.043 357.079 135.897 357.247C135.753 357.416 135.682 357.659 135.682 357.976V365.799H134.284ZM142.086 358.621V359.743H138.03V358.621H142.086ZM139.142 365.799V357.79C139.142 357.341 139.24 356.969 139.436 356.673C139.633 356.374 139.893 356.151 140.217 356.004C140.541 355.855 140.893 355.78 141.273 355.78C141.553 355.78 141.793 355.803 141.993 355.85C142.192 355.894 142.34 355.934 142.437 355.972L142.11 357.103C142.044 357.084 141.96 357.062 141.857 357.037C141.754 357.009 141.63 356.995 141.483 356.995C141.144 356.995 140.901 357.079 140.754 357.247C140.611 357.416 140.539 357.659 140.539 357.976V365.799H139.142ZM146.339 365.944C145.631 365.944 145.022 365.793 144.512 365.491C144.004 365.186 143.611 364.757 143.334 364.206C143.06 363.651 142.923 363.002 142.923 362.257C142.923 361.522 143.06 360.874 143.334 360.313C143.611 359.752 143.997 359.315 144.493 359C144.991 358.685 145.574 358.528 146.241 358.528C146.646 358.528 147.038 358.595 147.418 358.729C147.798 358.863 148.139 359.073 148.442 359.36C148.744 359.646 148.982 360.019 149.157 360.477C149.331 360.931 149.418 361.484 149.418 362.136V362.631H143.712V361.584H148.049C148.049 361.216 147.974 360.891 147.825 360.607C147.675 360.321 147.465 360.095 147.194 359.93C146.926 359.765 146.611 359.682 146.25 359.682C145.857 359.682 145.515 359.779 145.222 359.972C144.932 360.162 144.708 360.411 144.549 360.72C144.393 361.025 144.315 361.357 144.315 361.715V362.533C144.315 363.013 144.399 363.421 144.568 363.757C144.739 364.094 144.977 364.351 145.283 364.528C145.588 364.703 145.945 364.79 146.353 364.79C146.618 364.79 146.859 364.752 147.077 364.678C147.295 364.6 147.484 364.485 147.642 364.332C147.801 364.179 147.923 363.991 148.007 363.766L149.329 364.005C149.224 364.394 149.034 364.735 148.759 365.028C148.488 365.318 148.147 365.544 147.736 365.706C147.328 365.865 146.862 365.944 146.339 365.944ZM154.062 365.944C153.355 365.944 152.746 365.793 152.235 365.491C151.727 365.186 151.335 364.757 151.057 364.206C150.783 363.651 150.646 363.002 150.646 362.257C150.646 361.522 150.783 360.874 151.057 360.313C151.335 359.752 151.721 359.315 152.216 359C152.715 358.685 153.297 358.528 153.964 358.528C154.369 358.528 154.762 358.595 155.142 358.729C155.522 358.863 155.863 359.073 156.165 359.36C156.467 359.646 156.706 360.019 156.88 360.477C157.055 360.931 157.142 361.484 157.142 362.136V362.631H151.436V361.584H155.773C155.773 361.216 155.698 360.891 155.548 360.607C155.399 360.321 155.188 360.095 154.917 359.93C154.649 359.765 154.335 359.682 153.973 359.682C153.581 359.682 153.238 359.779 152.945 359.972C152.656 360.162 152.431 360.411 152.272 360.72C152.117 361.025 152.039 361.357 152.039 361.715V362.533C152.039 363.013 152.123 363.421 152.291 363.757C152.462 364.094 152.701 364.351 153.006 364.528C153.311 364.703 153.668 364.79 154.076 364.79C154.341 364.79 154.582 364.752 154.801 364.678C155.019 364.6 155.207 364.485 155.366 364.332C155.525 364.179 155.646 363.991 155.731 363.766L157.053 364.005C156.947 364.394 156.757 364.735 156.483 365.028C156.212 365.318 155.871 365.544 155.459 365.706C155.051 365.865 154.586 365.944 154.062 365.944Z" fill="black"/>
<path d="M56.0107 379.795L275.313 379.795" stroke="#AAAAAA" stroke-width="0.82247"/>
<path d="M164.988 191.94L164.193 191.653C163.898 191.535 163.678 191.395 163.53 191.233C163.383 191.071 163.31 190.851 163.31 190.571C163.31 190.35 163.391 190.166 163.552 190.019C163.714 189.857 163.95 189.776 164.259 189.776H168.918C169.227 189.776 169.463 189.857 169.625 190.019C169.786 190.166 169.867 190.35 169.867 190.571C169.867 190.851 169.801 191.071 169.669 191.233C169.536 191.395 169.301 191.535 168.962 191.653L168.079 191.94V198.63C168.079 200.028 168.366 201.059 168.94 201.721C169.529 202.369 170.309 202.693 171.281 202.693C172.252 202.693 173.003 202.398 173.533 201.81C174.077 201.221 174.35 200.279 174.35 198.983V191.94L173.466 191.653C173.128 191.535 172.892 191.395 172.76 191.233C172.627 191.071 172.561 190.851 172.561 190.571C172.561 190.35 172.642 190.166 172.804 190.019C172.966 189.857 173.201 189.776 173.511 189.776H177.772C178.081 189.776 178.317 189.857 178.479 190.019C178.641 190.166 178.721 190.35 178.721 190.571C178.721 190.851 178.648 191.071 178.501 191.233C178.353 191.395 178.133 191.535 177.838 191.653L177.043 191.94V198.652C177.043 200.757 176.536 202.325 175.52 203.355C174.519 204.371 172.995 204.879 170.949 204.879C168.918 204.879 167.417 204.4 166.445 203.443C165.473 202.472 164.988 200.993 164.988 199.005V191.94ZM187.112 191.984C186.994 191.94 186.847 191.888 186.67 191.829C186.509 191.8 186.31 191.771 186.074 191.741C185.853 191.697 185.574 191.675 185.235 191.675C184.499 191.675 183.955 191.829 183.601 192.139C183.263 192.433 183.093 192.808 183.093 193.265C183.093 193.78 183.263 194.192 183.601 194.501C183.955 194.81 184.389 195.083 184.904 195.318C185.419 195.539 185.979 195.76 186.582 195.98C187.186 196.201 187.745 196.488 188.26 196.842C188.775 197.18 189.202 197.622 189.541 198.166C189.894 198.711 190.071 199.418 190.071 200.286C190.071 200.934 189.946 201.537 189.695 202.097C189.445 202.656 189.07 203.142 188.569 203.554C188.084 203.951 187.473 204.268 186.737 204.503C186.001 204.739 185.147 204.857 184.175 204.857C183.204 204.857 182.409 204.783 181.791 204.636C181.173 204.474 180.746 204.275 180.51 204.04C180.437 203.966 180.37 203.885 180.311 203.797C180.267 203.708 180.23 203.605 180.201 203.488C180.172 203.355 180.149 203.208 180.135 203.046C180.135 202.869 180.135 202.656 180.135 202.406V202.075C180.135 201.751 180.135 201.508 180.135 201.346C180.135 201.184 180.142 201 180.157 200.794C180.186 200.485 180.275 200.264 180.422 200.131C180.584 199.984 180.79 199.911 181.04 199.911C181.526 199.911 181.864 200.198 182.056 200.772L182.608 202.384C182.755 202.443 182.932 202.501 183.138 202.56C183.314 202.604 183.528 202.649 183.778 202.693C184.043 202.722 184.359 202.737 184.727 202.737C185.463 202.737 186.023 202.56 186.405 202.207C186.803 201.839 187.002 201.39 187.002 200.86C187.002 200.448 186.899 200.109 186.693 199.844C186.501 199.565 186.236 199.322 185.898 199.116C185.574 198.91 185.206 198.726 184.794 198.564C184.381 198.402 183.955 198.24 183.513 198.078C183.071 197.901 182.645 197.703 182.232 197.482C181.82 197.261 181.445 196.989 181.106 196.665C180.782 196.341 180.517 195.951 180.311 195.495C180.12 195.038 180.024 194.486 180.024 193.839C180.024 193.235 180.142 192.676 180.378 192.161C180.613 191.631 180.966 191.174 181.437 190.792C181.923 190.409 182.527 190.107 183.248 189.886C183.984 189.666 184.853 189.555 185.853 189.555C186.737 189.555 187.451 189.629 187.995 189.776C188.555 189.923 188.952 190.115 189.188 190.35C189.261 190.424 189.32 190.505 189.364 190.593C189.423 190.681 189.467 190.792 189.497 190.924C189.526 191.042 189.541 191.189 189.541 191.366C189.556 191.528 189.563 191.734 189.563 191.984V192.249C189.563 192.543 189.563 192.779 189.563 192.955C189.563 193.117 189.556 193.301 189.541 193.507C189.511 193.817 189.416 194.045 189.254 194.192C189.107 194.324 188.908 194.391 188.658 194.391C188.407 194.391 188.201 194.324 188.039 194.192C187.877 194.045 187.745 193.824 187.642 193.53L187.112 191.984ZM193.485 191.94L192.514 191.631C192.175 191.513 191.94 191.38 191.807 191.233C191.675 191.071 191.608 190.851 191.608 190.571C191.608 190.35 191.689 190.166 191.851 190.019C192.013 189.857 192.249 189.776 192.558 189.776H198.144C199.469 189.776 200.617 189.931 201.589 190.24C202.575 190.549 203.392 191.005 204.039 191.609C204.687 192.197 205.166 192.933 205.475 193.817C205.799 194.685 205.96 195.679 205.96 196.797C205.96 197.99 205.769 199.072 205.386 200.043C205.018 201.015 204.474 201.839 203.752 202.516C203.031 203.193 202.141 203.716 201.081 204.084C200.021 204.452 198.807 204.636 197.438 204.636H192.69C192.352 204.636 192.087 204.547 191.895 204.371C191.704 204.194 191.608 203.973 191.608 203.708C191.608 203.458 191.667 203.274 191.785 203.156C191.903 203.024 192.124 202.906 192.447 202.803L193.485 202.472V191.94ZM197.791 202.45C199.351 202.45 200.558 202.008 201.412 201.125C202.28 200.227 202.715 198.902 202.715 197.151C202.715 195.399 202.295 194.096 201.456 193.243C200.632 192.389 199.41 191.962 197.791 191.962H196.576V202.45H197.791Z" fill="#232323"/>
<path d="M132.508 192.691C132.376 192.646 132.221 192.602 132.044 192.558C131.882 192.529 131.684 192.499 131.448 192.47C131.213 192.426 130.94 192.403 130.631 192.403C129.881 192.403 129.351 192.536 129.042 192.801C128.732 193.066 128.578 193.419 128.578 193.861C128.578 194.332 128.74 194.715 129.064 195.009C129.387 195.289 129.792 195.546 130.278 195.782C130.778 196.003 131.316 196.223 131.89 196.444C132.464 196.65 132.994 196.915 133.48 197.239C133.98 197.563 134.392 197.968 134.716 198.453C135.04 198.939 135.202 199.565 135.202 200.33C135.202 200.845 135.121 201.324 134.959 201.765C134.797 202.207 134.554 202.612 134.23 202.98C133.906 203.333 133.502 203.642 133.016 203.907C132.53 204.157 131.963 204.349 131.316 204.481V206.733C131.316 207.072 131.235 207.33 131.073 207.506C130.911 207.683 130.668 207.771 130.344 207.771C130.02 207.771 129.778 207.683 129.616 207.506C129.454 207.33 129.373 207.072 129.373 206.733V204.614C128.49 204.584 127.783 204.489 127.253 204.327C126.723 204.165 126.362 203.988 126.171 203.797C126.112 203.738 126.061 203.679 126.017 203.62C125.972 203.547 125.936 203.458 125.906 203.355C125.891 203.237 125.877 203.098 125.862 202.936C125.847 202.774 125.84 202.568 125.84 202.317V202.008C125.84 201.802 125.84 201.611 125.84 201.434C125.84 201.258 125.847 201.044 125.862 200.794C125.877 200.485 125.958 200.264 126.105 200.131C126.252 199.984 126.451 199.911 126.701 199.911C126.951 199.911 127.15 199.984 127.297 200.131C127.459 200.279 127.592 200.499 127.695 200.794L128.158 202.251C128.32 202.325 128.504 202.391 128.71 202.45C128.887 202.494 129.1 202.538 129.351 202.582C129.601 202.612 129.881 202.627 130.19 202.627C130.97 202.627 131.529 202.472 131.868 202.163C132.206 201.854 132.376 201.442 132.376 200.926C132.376 200.47 132.214 200.102 131.89 199.822C131.566 199.543 131.154 199.292 130.653 199.072C130.168 198.836 129.638 198.615 129.064 198.409C128.49 198.188 127.952 197.916 127.452 197.592C126.966 197.254 126.561 196.842 126.237 196.356C125.914 195.855 125.752 195.222 125.752 194.457C125.752 193.441 126.083 192.587 126.745 191.896C127.422 191.189 128.394 190.733 129.66 190.527V188.341C129.66 188.002 129.741 187.745 129.903 187.568C130.065 187.391 130.307 187.303 130.631 187.303C130.955 187.303 131.198 187.391 131.36 187.568C131.522 187.745 131.603 188.002 131.603 188.341V190.416C132.471 190.46 133.119 190.549 133.546 190.681C133.973 190.814 134.267 190.961 134.429 191.123C134.547 191.241 134.628 191.395 134.672 191.587C134.731 191.763 134.76 192.102 134.76 192.602V192.801C134.76 193.007 134.76 193.198 134.76 193.375C134.76 193.552 134.753 193.765 134.738 194.015C134.723 194.324 134.642 194.553 134.495 194.7C134.348 194.832 134.149 194.899 133.899 194.899C133.649 194.899 133.443 194.825 133.281 194.678C133.119 194.531 132.994 194.31 132.906 194.015L132.508 192.691ZM139.378 192.403L138.23 192.646C138.127 192.676 138.024 192.698 137.921 192.713C137.818 192.727 137.7 192.735 137.567 192.735C137.302 192.735 137.089 192.661 136.927 192.514C136.78 192.352 136.706 192.146 136.706 191.896C136.706 191.66 136.817 191.432 137.037 191.211C137.17 191.079 137.391 190.924 137.7 190.747C138.024 190.556 138.377 190.387 138.76 190.24C139.157 190.078 139.547 189.945 139.93 189.842C140.327 189.724 140.673 189.666 140.968 189.666C141.91 189.666 142.381 190.137 142.381 191.079V202.428L143.75 202.781C144.132 202.884 144.383 203.009 144.5 203.156C144.618 203.304 144.677 203.488 144.677 203.708C144.677 203.973 144.581 204.194 144.39 204.371C144.199 204.547 143.934 204.636 143.595 204.636H137.943C137.604 204.636 137.339 204.547 137.148 204.371C136.956 204.194 136.861 203.973 136.861 203.708C136.861 203.473 136.927 203.282 137.06 203.134C137.192 202.987 137.42 202.877 137.744 202.803L139.378 202.428V192.403ZM149.464 198.542C149.905 198.056 150.281 197.607 150.59 197.195C150.914 196.783 151.171 196.393 151.363 196.025C151.554 195.642 151.694 195.274 151.782 194.921C151.87 194.567 151.915 194.207 151.915 193.839C151.915 193.53 151.863 193.25 151.76 193C151.657 192.735 151.502 192.514 151.296 192.337C151.105 192.161 150.862 192.028 150.568 191.94C150.273 191.837 149.927 191.785 149.53 191.785C149.25 191.785 148.993 191.815 148.757 191.874C148.536 191.918 148.33 191.969 148.139 192.028C147.947 192.087 147.771 192.146 147.609 192.205C147.462 192.249 147.322 192.271 147.189 192.271C146.939 192.271 146.733 192.19 146.571 192.028C146.409 191.866 146.328 191.66 146.328 191.41C146.328 191.16 146.424 190.939 146.615 190.747C146.777 190.586 146.983 190.438 147.234 190.306C147.499 190.159 147.793 190.034 148.117 189.931C148.441 189.827 148.787 189.747 149.155 189.688C149.537 189.629 149.942 189.599 150.369 189.599C151.164 189.599 151.856 189.695 152.444 189.886C153.033 190.063 153.519 190.321 153.902 190.659C154.299 190.983 154.594 191.38 154.785 191.851C154.976 192.323 155.072 192.838 155.072 193.397C155.072 194.001 154.991 194.56 154.829 195.075C154.667 195.576 154.424 196.069 154.1 196.555C153.791 197.04 153.401 197.541 152.93 198.056C152.474 198.571 151.951 199.145 151.363 199.778L149.044 202.207H153.416L153.835 200.948C153.939 200.654 154.056 200.433 154.189 200.286C154.336 200.139 154.527 200.065 154.763 200.065C154.998 200.065 155.197 200.139 155.359 200.286C155.521 200.419 155.609 200.639 155.624 200.948C155.624 201.125 155.624 201.302 155.624 201.478C155.639 201.64 155.646 201.802 155.646 201.964C155.646 202.126 155.646 202.288 155.646 202.45C155.646 202.597 155.646 202.737 155.646 202.869V203.046C155.646 203.399 155.624 203.664 155.58 203.841C155.536 204.018 155.455 204.165 155.337 204.283C155.219 204.4 155.079 204.489 154.917 204.547C154.77 204.606 154.571 204.636 154.321 204.636H147.543C147.013 204.636 146.601 204.503 146.306 204.238C146.027 203.959 145.887 203.591 145.887 203.134C145.887 202.869 145.938 202.634 146.041 202.428C146.144 202.207 146.336 201.949 146.615 201.655L149.464 198.542Z" fill="#232323"/>
<path d="M116.96 162.462C116.96 161.53 117.267 160.757 117.88 160.144C118.518 159.506 119.303 159.187 120.235 159.187C121.167 159.187 121.928 159.494 122.517 160.107C123.13 160.696 123.437 161.456 123.437 162.389C123.437 163.321 123.118 164.106 122.48 164.744C121.867 165.357 121.094 165.664 120.161 165.664C119.229 165.664 118.456 165.369 117.843 164.781C117.254 164.167 116.96 163.394 116.96 162.462ZM126.405 153.041C126.405 150.907 126.662 149.042 127.177 147.448C127.717 145.829 128.441 144.479 129.349 143.4C130.256 142.296 131.323 141.474 132.55 140.934C133.777 140.37 135.089 140.088 136.488 140.088C137.984 140.088 139.334 140.333 140.536 140.824C141.738 141.29 142.756 142.038 143.59 143.069C144.424 144.074 145.062 145.375 145.504 146.969C145.97 148.564 146.203 150.465 146.203 152.673C146.203 154.808 145.933 156.685 145.393 158.304C144.878 159.923 144.167 161.285 143.259 162.389C142.351 163.468 141.284 164.29 140.057 164.854C138.831 165.394 137.518 165.664 136.12 165.664C134.623 165.664 133.274 165.431 132.072 164.965C130.87 164.474 129.851 163.726 129.017 162.72C128.183 161.689 127.533 160.377 127.067 158.782C126.625 157.188 126.405 155.274 126.405 153.041ZM131.52 152.784C131.52 154.526 131.655 155.998 131.925 157.2C132.194 158.377 132.55 159.334 132.992 160.07C133.458 160.806 133.973 161.334 134.537 161.653C135.126 161.972 135.739 162.131 136.377 162.131C136.991 162.131 137.579 161.984 138.144 161.689C138.733 161.37 139.235 160.855 139.653 160.144C140.094 159.432 140.438 158.488 140.683 157.31C140.953 156.133 141.088 154.673 141.088 152.931C141.088 151.189 140.953 149.729 140.683 148.552C140.413 147.35 140.045 146.393 139.579 145.681C139.137 144.945 138.622 144.418 138.033 144.099C137.445 143.78 136.843 143.621 136.23 143.621C135.592 143.621 134.991 143.78 134.427 144.099C133.863 144.393 133.36 144.896 132.918 145.608C132.501 146.319 132.158 147.264 131.888 148.441C131.642 149.594 131.52 151.042 131.52 152.784ZM150.195 153.041C150.195 150.907 150.453 149.042 150.968 147.448C151.508 145.829 152.231 144.479 153.139 143.4C154.047 142.296 155.114 141.474 156.341 140.934C157.567 140.37 158.88 140.088 160.278 140.088C161.775 140.088 163.124 140.333 164.326 140.824C165.529 141.29 166.547 142.038 167.381 143.069C168.215 144.074 168.853 145.375 169.294 146.969C169.761 148.564 169.994 150.465 169.994 152.673C169.994 154.808 169.724 156.685 169.184 158.304C168.669 159.923 167.957 161.285 167.05 162.389C166.142 163.468 165.075 164.29 163.848 164.854C162.621 165.394 161.309 165.664 159.91 165.664C158.414 165.664 157.065 165.431 155.862 164.965C154.66 164.474 153.642 163.726 152.808 162.72C151.974 161.689 151.324 160.377 150.858 158.782C150.416 157.188 150.195 155.274 150.195 153.041ZM155.31 152.784C155.31 154.526 155.445 155.998 155.715 157.2C155.985 158.377 156.341 159.334 156.782 160.07C157.249 160.806 157.764 161.334 158.328 161.653C158.917 161.972 159.53 162.131 160.168 162.131C160.781 162.131 161.37 161.984 161.934 161.689C162.523 161.37 163.026 160.855 163.443 160.144C163.885 159.432 164.228 158.488 164.474 157.31C164.743 156.133 164.878 154.673 164.878 152.931C164.878 151.189 164.743 149.729 164.474 148.552C164.204 147.35 163.836 146.393 163.37 145.681C162.928 144.945 162.413 144.418 161.824 144.099C161.235 143.78 160.634 143.621 160.021 143.621C159.383 143.621 158.782 143.78 158.218 144.099C157.653 144.393 157.15 144.896 156.709 145.608C156.292 146.319 155.948 147.264 155.678 148.441C155.433 149.594 155.31 151.042 155.31 152.784ZM174.722 142.701C174.795 141.229 175.531 140.493 176.93 140.493H186.056C186.547 140.493 186.939 140.64 187.234 140.934C187.528 141.204 187.675 141.621 187.675 142.185C187.675 142.995 187.479 143.621 187.087 144.062C186.719 144.504 186.216 144.725 185.578 144.725H178.512L178.328 149.361C180.021 149.41 181.505 149.643 182.781 150.061C184.081 150.453 185.173 151.005 186.056 151.717C186.939 152.403 187.602 153.225 188.043 154.182C188.51 155.139 188.743 156.206 188.743 157.384C188.743 158.537 188.522 159.616 188.08 160.622C187.639 161.628 187.001 162.511 186.167 163.272C185.332 164.008 184.314 164.597 183.112 165.038C181.935 165.455 180.598 165.664 179.101 165.664C177.187 165.664 175.728 165.32 174.722 164.633C173.716 163.946 173.213 163.125 173.213 162.168C173.213 161.53 173.385 161.039 173.728 160.696C174.072 160.328 174.526 160.144 175.09 160.144C175.433 160.144 175.74 160.254 176.01 160.475C176.28 160.696 176.574 160.953 176.893 161.248C177.236 161.518 177.641 161.763 178.107 161.984C178.574 162.205 179.162 162.315 179.874 162.315C181.027 162.315 181.947 161.959 182.634 161.248C183.321 160.536 183.664 159.53 183.664 158.23C183.664 157.568 183.529 156.954 183.259 156.39C182.99 155.826 182.548 155.335 181.935 154.918C181.346 154.501 180.561 154.182 179.579 153.961C178.623 153.716 177.445 153.593 176.047 153.593C175.409 153.593 174.955 153.446 174.685 153.152C174.415 152.857 174.292 152.44 174.317 151.901L174.722 142.701Z" fill="#232323"/>
<path fill-rule="evenodd" clip-rule="evenodd" d="M196.774 151.807L206.692 157.707L216.567 151.807L206.692 135.435L196.774 151.807ZM196.774 154.57L206.692 160.475L216.567 154.57L206.692 168.555L196.774 154.57Z" fill="#232323"/>
</svg>
