<svg xmlns="http://www.w3.org/2000/svg" width="213" height="157" viewBox="0 0 213 157" fill="none">
  <path fill-rule="evenodd" clip-rule="evenodd" d="M45.8882 77.3182C45.8882 67.0531 54.2383 58.7317 64.5387 58.7317L114.443 58.7317C124.743 58.7317 133.093 67.0531 133.093 77.3182V111.439C138.763 112.091 143.582 110.601 146.306 108.124C148.164 106.433 149.632 104.011 150.335 100.833C150.997 97.8383 153.238 95.1925 156.301 95.0387C159.379 94.8841 162.056 97.275 161.687 100.335C161.438 102.392 160.992 104.365 160.351 106.229H164.137L164.232 108.728C164.394 112.983 160.752 116.396 156.517 115.958L154.42 115.741C154.211 115.945 153.999 116.146 153.782 116.343C148.417 121.224 141.092 123.334 133.093 122.566V127.051C133.093 137.316 124.743 145.638 114.443 145.638H64.5386C54.2383 145.638 45.8882 137.316 45.8882 127.051L45.8882 77.3182Z" fill="#FFC42C"/>
  <mask id="mask0_1_227" style="mask-type:alpha" maskUnits="userSpaceOnUse" x="45" y="58" width="120" height="88">
    <path fill-rule="evenodd" clip-rule="evenodd" d="M45.8882 77.3182C45.8882 67.0531 54.2383 58.7317 64.5387 58.7317L114.443 58.7317C124.743 58.7317 133.093 67.0531 133.093 77.3182V111.817L133.158 111.366C139.083 112.195 143.488 110.687 146.306 108.124C148.164 106.433 149.632 104.011 150.335 100.833C150.997 97.8383 153.238 95.1925 156.301 95.0387C159.379 94.8841 162.056 97.275 161.687 100.335C161.438 102.392 160.992 104.365 160.351 106.229H164.137V112.671C164.137 114.748 162.453 116.433 160.375 116.433C158.48 116.433 156.761 115.787 155.402 114.718C154.891 115.283 154.351 115.825 153.782 116.343C148.417 121.224 141.092 123.334 133.093 122.566V127.051C133.093 137.316 124.743 145.638 114.443 145.638H64.5386C54.2383 145.638 45.8882 137.316 45.8882 127.051L45.8882 77.3182Z" fill="#FFC42C"/>
  </mask>
  <g mask="url(#mask0_1_227)">
    <mask id="mask1_1_227" style="mask-type:alpha" maskUnits="userSpaceOnUse" x="133" y="112" width="14" height="14">
      <rect x="133.044" y="112.469" width="13.0166" height="12.8203" fill="#D9D9D9"/>
    </mask>
    <g mask="url(#mask1_1_227)">
      <g opacity="0.25" filter="url(#filter0_f_1_227)">
        <path d="M138.948 124.104C135.646 121.357 134.327 118.871 132.881 112.685L132.881 124.104L138.948 124.104Z" fill="#2F1931"/>
      </g>
    </g>
    <g filter="url(#filter1_f_1_227)">
      <path d="M167.262 104.042V110.556C157.145 110.556 129.001 111.621 126.034 105.764L128.481 104.658L167.262 104.042Z" fill="#2F1931" fill-opacity="0.25"/>
    </g>
  </g>
  <ellipse cx="8.31272" cy="8.28406" rx="8.31272" ry="8.28406" transform="matrix(1 -8.40036e-08 -8.45848e-08 -1 102.678 104.415)" fill="#2F1931"/>
  <ellipse cx="8.31272" cy="8.28406" rx="8.31272" ry="8.28406" transform="matrix(1 -8.36438e-08 -8.49486e-08 -1 59.6776 104.415)" fill="#2F1931"/>
  <path fill-rule="evenodd" clip-rule="evenodd" d="M89.471 117.737C95.6448 117.744 101.468 114.847 106.045 109.701C106.421 109.278 106.359 108.63 105.922 108.27L100.281 103.623C99.8466 103.265 99.2057 103.329 98.8251 103.744C95.7789 107.067 92.4589 108.407 89.4819 108.404C86.503 108.4 83.1879 107.051 80.1556 103.744C79.7749 103.329 79.134 103.265 78.6992 103.623L73.059 108.27C72.6221 108.63 72.5598 109.278 72.936 109.701C77.4925 114.823 83.3015 117.73 89.471 117.737Z" fill="#2F1931"/>
  <path fill-rule="evenodd" clip-rule="evenodd" d="M89.471 117.737C95.6448 117.744 101.468 114.847 106.045 109.701C106.421 109.278 106.359 108.63 105.922 108.27L100.281 103.623C99.8466 103.265 99.2057 103.329 98.8251 103.744C95.7789 107.067 92.4589 108.407 89.4819 108.404C86.503 108.4 83.1879 107.051 80.1556 103.744C79.7749 103.329 79.134 103.265 78.6992 103.623L73.059 108.27C72.6221 108.63 72.5598 109.278 72.936 109.701C77.4925 114.823 83.3015 117.73 89.471 117.737Z" fill="#2F1931"/>
  <g filter="url(#filter2_f_1_227)">
    <ellipse cx="116.449" cy="145.572" rx="64.3882" ry="0.5" fill="#878787"/>
  </g>
  <g opacity="0.6" filter="url(#filter3_f_1_227)">
    <ellipse cx="106.429" cy="147.59" rx="100.153" ry="3.04591" fill="white"/>
  </g>
  <path d="M147.949 104.701L143.175 63.3358H179.174L174.4 104.701L174.396 104.735V104.769C174.396 104.857 174.326 105.098 173.659 105.399C173.036 105.68 172.089 105.916 170.855 106.1C168.401 106.466 164.983 106.605 161.174 106.605C157.365 106.605 153.948 106.466 151.493 106.1C150.26 105.916 149.313 105.68 148.69 105.399C148.023 105.098 147.952 104.857 147.952 104.769V104.735L147.949 104.701Z" fill="white" stroke="#AAAAAA" stroke-width="1.18305"/>
  <g filter="url(#filter4_f_1_227)">
    <path d="M174.477 102.454V106.107C167.861 106.107 149.453 106.786 148.227 104.863L147.517 102.454H174.477Z" fill="#2F1931" fill-opacity="0.25"/>
  </g>
  <g filter="url(#filter5_f_1_227)">
    <path d="M178.718 63.3687V65.5606C169.736 65.5606 144.744 65.9678 143.078 64.8141L142.115 63.3687H178.718Z" fill="#2F1931" fill-opacity="0.25"/>
  </g>
  <path d="M179.282 72.4836C179.11 72.3339 178.858 72.2471 178.6 72.2471L143.431 72.2471C143.173 72.2471 142.921 72.3339 142.749 72.4836C142.577 72.6332 142.491 72.8359 142.515 73.0386L145.095 96.001C145.138 96.3727 145.538 96.6574 146.011 96.6574H175.958C176.431 96.6574 176.725 96.5199 176.874 96.001L179.516 73.0386C179.541 72.8359 179.455 72.6332 179.282 72.4836Z" fill="white"/>
  <path d="M179.282 72.4836C179.11 72.3339 178.858 72.2471 178.6 72.2471L143.431 72.2471C143.173 72.2471 142.921 72.3339 142.749 72.4836C142.577 72.6332 142.491 72.8359 142.515 73.0386L145.095 96.001C145.138 96.3727 145.538 96.6574 146.011 96.6574H175.958C176.431 96.6574 176.725 96.5199 176.874 96.001L179.516 73.0386C179.541 72.8359 179.455 72.6332 179.282 72.4836Z" fill="url(#paint0_linear_1_227)"/>
  <ellipse cx="3.41655" cy="3.40478" rx="3.41655" ry="3.40478" transform="matrix(1 -8.40036e-08 -8.45848e-08 -1 166.435 84.7551)" fill="#2F1931"/>
  <ellipse cx="3.41655" cy="3.40478" rx="3.41655" ry="3.40478" transform="matrix(1 -8.36438e-08 -8.49486e-08 -1 148.761 84.7551)" fill="#2F1931"/>
  <path fill-rule="evenodd" clip-rule="evenodd" d="M161.007 90.2305C163.417 90.2333 165.698 89.1585 167.533 87.2375C167.854 86.901 167.802 86.3672 167.442 86.0713L165.773 84.6959C165.416 84.4015 164.891 84.4564 164.56 84.7804C163.39 85.9266 162.14 86.3957 161.011 86.3944C159.881 86.3931 158.634 85.9209 157.469 84.7803C157.138 84.4564 156.614 84.4015 156.256 84.6959L154.587 86.0713C154.228 86.3672 154.175 86.901 154.496 87.2374C156.323 89.1497 158.598 90.2277 161.007 90.2305Z" fill="#2F1931"/>
  <path fill-rule="evenodd" clip-rule="evenodd" d="M161.007 90.2305C163.417 90.2333 165.698 89.1585 167.533 87.2375C167.854 86.901 167.802 86.3672 167.442 86.0713L165.773 84.6959C165.416 84.4015 164.891 84.4564 164.56 84.7804C163.39 85.9266 162.14 86.3957 161.011 86.3944C159.881 86.3931 158.634 85.9209 157.469 84.7803C157.138 84.4564 156.614 84.4015 156.256 84.6959L154.587 86.0713C154.228 86.3672 154.175 86.901 154.496 87.2374C156.323 89.1497 158.598 90.2277 161.007 90.2305Z" fill="#2F1931"/>
  <path d="M181.484 59.6633H140.864C140.518 59.6633 140.237 59.9442 140.237 60.2907V64.2176C140.237 64.564 140.518 64.8449 140.864 64.8449H181.484C181.831 64.8449 182.111 64.564 182.111 64.2176V60.2907C182.111 59.9442 181.831 59.6633 181.484 59.6633Z" fill="#232323"/>
  <path d="M179.445 59.6633H142.909L143.626 55.5253C143.831 54.1561 144.881 53.1547 146.118 53.1547H176.236C177.472 53.1547 178.528 54.1561 178.727 55.5253L179.445 59.6633Z" fill="#232323"/>
  <mask id="mask2_1_227" style="mask-type:alpha" maskUnits="userSpaceOnUse" x="142" y="53" width="38" height="7">
    <path d="M179.445 59.6633H142.909L143.626 55.5253C143.831 54.1561 144.881 53.1547 146.118 53.1547H176.236C177.472 53.1547 178.528 54.1561 178.727 55.5253L179.445 59.6633Z" fill="#232323"/>
  </mask>
  <g mask="url(#mask2_1_227)">
    <path d="M153.615 57.4613C153.953 57.4613 154.27 57.3574 154.508 57.1767C154.747 56.9957 154.917 56.7271 154.917 56.409C154.917 56.0949 154.75 55.8264 154.512 55.6444C154.275 55.4625 153.958 55.3568 153.615 55.3568H147.288C146.95 55.3568 146.633 55.4607 146.395 55.6413C146.156 55.8223 145.987 56.091 145.987 56.409C145.987 56.7232 146.154 56.9917 146.391 57.1737C146.628 57.3556 146.946 57.4613 147.288 57.4613H153.615Z" stroke="#8B8B8B" stroke-width="0.5"/>
  </g>
  <g filter="url(#filter6_d_1_227)">
    <path d="M141.5 55.6416C141.5 55.6416 141.136 54.8782 140.637 53.621C140.153 52.362 139.545 50.5865 139.198 48.6297C139.138 48.1478 139.064 47.6677 138.985 47.1458C138.981 46.6356 138.907 46.1555 138.918 45.6436C138.929 44.6424 139.001 43.6549 139.176 42.6547C139.322 42.1473 139.304 41.639 139.495 41.1262C139.656 40.6169 139.755 40.0941 139.928 39.5621C140.116 39.0283 140.324 38.5345 140.48 37.9834C140.683 37.4478 140.947 36.9258 141.164 36.3884L141.323 35.9858L141.403 35.7844L141.427 35.7389C141.495 35.5604 141.328 35.9001 141.355 35.8755L141.413 35.7407C141.638 35.2661 141.827 34.8598 141.988 34.4782C142.324 33.692 142.564 32.854 142.821 32.035C143.304 30.3799 143.572 28.5598 143.692 26.7579C143.749 24.9214 143.685 23.0785 143.293 21.3613C142.963 19.6578 142.384 18.1127 141.728 16.9175C141.427 16.2953 141.077 15.7642 140.709 15.3205C140.34 14.8768 140.057 14.4013 139.692 14.1061C138.988 13.4911 138.428 12.9436 137.888 12.6912C136.846 12.1181 136.259 11.9568 136.259 11.9568C136.259 11.9568 136.556 12.7922 137.082 14.0248C137.364 14.6069 137.546 15.4778 137.821 16.2521C137.973 16.6375 138.018 17.1212 138.134 17.5749C138.235 18.0304 138.349 18.4631 138.364 18.9505C138.409 19.4342 138.508 19.8687 138.464 20.3634C138.462 20.8316 138.505 21.2944 138.432 21.7927C138.414 22.731 138.177 23.7175 137.973 24.7214C137.709 25.7325 137.387 26.751 137.006 27.7767C136.801 28.2913 136.578 28.7869 136.368 29.2597C136.249 29.5083 136.143 29.7342 136.07 29.8709L136.01 29.9847L135.903 30.2107L135.867 30.279L135.751 30.5486L135.507 31.1107C135.212 31.8704 134.886 32.6128 134.609 33.3916C134.354 34.2315 134.146 35.0869 133.936 35.9213C133.572 37.6895 133.351 39.525 133.39 41.4135C133.412 43.2828 133.717 45.1384 134.157 46.7645C134.393 47.5862 134.695 48.336 134.962 49.0475C135.301 49.7289 135.604 50.3721 135.942 50.926C136.646 52.0301 137.336 52.902 138.013 53.5415C138.675 54.1829 139.296 54.6166 139.811 54.9145C140.844 55.5314 141.465 55.6034 141.465 55.6034L141.5 55.6416Z" fill="url(#paint1_linear_1_227)"/>
  </g>
  <path d="M144.522 59.7317L177.827 59.7317" stroke="#8B8B8B" stroke-width="0.5" stroke-linecap="round"/>
  <defs>
    <filter id="filter0_f_1_227" x="130.881" y="110.685" width="10.0667" height="15.4193" filterUnits="userSpaceOnUse" color-interpolation-filters="sRGB">
      <feFlood flood-opacity="0" result="BackgroundImageFix"/>
      <feBlend mode="normal" in="SourceGraphic" in2="BackgroundImageFix" result="shape"/>
      <feGaussianBlur stdDeviation="1" result="effect1_foregroundBlur_1_227"/>
    </filter>
    <filter id="filter1_f_1_227" x="124.034" y="102.042" width="45.2283" height="10.5897" filterUnits="userSpaceOnUse" color-interpolation-filters="sRGB">
      <feFlood flood-opacity="0" result="BackgroundImageFix"/>
      <feBlend mode="normal" in="SourceGraphic" in2="BackgroundImageFix" result="shape"/>
      <feGaussianBlur stdDeviation="1" result="effect1_foregroundBlur_1_227"/>
    </filter>
    <filter id="filter2_f_1_227" x="50.061" y="143.072" width="132.776" height="5" filterUnits="userSpaceOnUse" color-interpolation-filters="sRGB">
      <feFlood flood-opacity="0" result="BackgroundImageFix"/>
      <feBlend mode="normal" in="SourceGraphic" in2="BackgroundImageFix" result="shape"/>
      <feGaussianBlur stdDeviation="1" result="effect1_foregroundBlur_1_227"/>
    </filter>
    <filter id="filter3_f_1_227" x="0.275879" y="138.544" width="212.307" height="18.0918" filterUnits="userSpaceOnUse" color-interpolation-filters="sRGB">
      <feFlood flood-opacity="0" result="BackgroundImageFix"/>
      <feBlend mode="normal" in="SourceGraphic" in2="BackgroundImageFix" result="shape"/>
      <feGaussianBlur stdDeviation="3" result="effect1_foregroundBlur_1_227"/>
    </filter>
    <filter id="filter4_f_1_227" x="145.517" y="100.454" width="30.96" height="7.76959" filterUnits="userSpaceOnUse" color-interpolation-filters="sRGB">
      <feFlood flood-opacity="0" result="BackgroundImageFix"/>
      <feBlend mode="normal" in="SourceGraphic" in2="BackgroundImageFix" result="shape"/>
      <feGaussianBlur stdDeviation="1" result="effect1_foregroundBlur_1_227"/>
    </filter>
    <filter id="filter5_f_1_227" x="141.115" y="62.3687" width="38.6035" height="4.26166" filterUnits="userSpaceOnUse" color-interpolation-filters="sRGB">
      <feFlood flood-opacity="0" result="BackgroundImageFix"/>
      <feBlend mode="normal" in="SourceGraphic" in2="BackgroundImageFix" result="shape"/>
      <feGaussianBlur stdDeviation="0.5" result="effect1_foregroundBlur_1_227"/>
    </filter>
    <filter id="filter6_d_1_227" x="122.206" y="0.776787" width="32.6845" height="66.0449" filterUnits="userSpaceOnUse" color-interpolation-filters="sRGB">
      <feFlood flood-opacity="0" result="BackgroundImageFix"/>
      <feColorMatrix in="SourceAlpha" type="matrix" values="0 0 0 0 0 0 0 0 0 0 0 0 0 0 0 0 0 0 127 0" result="hardAlpha"/>
      <feOffset/>
      <feGaussianBlur stdDeviation="5.59"/>
      <feComposite in2="hardAlpha" operator="out"/>
      <feColorMatrix type="matrix" values="0 0 0 0 0.956863 0 0 0 0 0.941176 0 0 0 0 0.976471 0 0 0 1 0"/>
      <feBlend mode="normal" in2="BackgroundImageFix" result="effect1_dropShadow_1_227"/>
      <feBlend mode="normal" in="SourceGraphic" in2="effect1_dropShadow_1_227" result="shape"/>
    </filter>
    <linearGradient id="paint0_linear_1_227" x1="161.016" y1="77.5355" x2="161.016" y2="114.434" gradientUnits="userSpaceOnUse">
      <stop stop-color="#FFCC32"/>
      <stop offset="1" stop-color="#FFDD87"/>
    </linearGradient>
    <linearGradient id="paint1_linear_1_227" x1="141.322" y1="55.6637" x2="135.919" y2="11.9988" gradientUnits="userSpaceOnUse">
      <stop stop-color="white"/>
      <stop offset="1" stop-color="white"/>
    </linearGradient>
  </defs>
</svg>