<svg xmlns="http://www.w3.org/2000/svg" width="58" height="58" viewBox="0 0 58 58" fill="none">
<path d="M9.75141 9.93877C2.9549 16.7353 0.299441 26.6411 2.78976 35.9279C5.27717 45.2121 12.5277 52.4624 21.8119 54.9501C31.0988 57.4401 41.0045 54.7849 47.8011 47.9884C54.5976 41.1919 57.253 31.2861 54.7627 21.9993C52.2753 12.7151 45.0247 5.46479 35.7405 2.97712C26.4537 0.487132 16.5479 3.14226 9.75141 9.93877ZM15.8616 16.0491C15.8431 16.0305 15.8432 16.0003 15.8619 15.9819C19.2981 12.5866 23.9437 10.6949 28.7764 10.7309C31.7013 10.7287 34.5794 11.424 37.1714 12.7517C37.7495 13.0478 37.8432 13.8171 37.3839 14.2764L14.0856 37.5747C13.6274 38.0329 12.8601 37.9409 12.5628 37.3651C10.8899 34.1262 10.223 30.4477 10.6623 26.809C11.1506 22.7633 12.9832 18.9994 15.8615 16.1164C15.8801 16.0978 15.8801 16.0677 15.8616 16.0491V16.0491ZM41.6573 41.8447C38.7699 44.7424 34.9922 46.5873 30.9311 47.0776C27.2921 47.5168 23.6138 46.8499 20.375 45.1771C19.7992 44.8797 19.7072 44.1124 20.1654 43.6542L43.4671 20.3525C43.9253 19.8943 44.6926 19.9863 44.99 20.5621C46.6629 23.801 47.3297 27.4795 46.8905 31.1182C46.4002 35.1796 44.555 38.9574 41.6573 41.8447Z" stroke="#7B3ACE" stroke-width="3.65"/>
</svg>