<svg xmlns="http://www.w3.org/2000/svg" width="61" height="61" viewBox="0 0 61 61" fill="none">
  <path d="M28.4508 1.04726C26.2587 1.18112 24.133 1.55661 22.0999 2.14721C9.83877 5.70883 0.940433 17.0934 1.09171 30.4841C1.19067 39.244 5.14204 47.0581 11.3174 52.3343C12.3461 53.2133 13.4366 54.0219 14.5813 54.7526M45.844 5.50624C47.2903 6.42302 48.6507 7.46373 49.9102 8.61362C55.6694 13.8716 59.3177 21.4122 59.4128 29.8252C59.5634 43.1615 50.7378 54.508 38.5537 58.1183C36.5191 58.7212 34.3907 59.1084 32.1949 59.253" stroke="#CBA3FF" stroke-width="2" stroke-linecap="round"/>
  <path d="M26.7383 38.1444C26.9784 37.2208 26.2813 36.3194 25.3271 36.3194H12.8111C11.58 36.3194 10.9029 34.8881 11.6838 33.9364L35.2737 5.18617C36.2652 3.97771 38.2054 4.96504 37.8121 6.47794L33.7647 22.0474C33.5246 22.9709 34.2217 23.8724 35.1759 23.8724H47.692C48.923 23.8724 49.6001 25.3037 48.8192 26.2554L25.2293 55.0056C24.2378 56.2141 22.2976 55.2267 22.6909 53.7138L26.7383 38.1444Z" stroke="#7B3ACE" stroke-width="1.45812"/>
  <path d="M25.3271 37.6444C25.4142 37.6444 25.4778 37.7267 25.4559 37.811L21.4085 53.3805C20.6578 56.2682 24.3611 58.1526 26.2537 55.8461L49.8435 27.0959C51.334 25.2794 50.0417 22.5474 47.692 22.5474H35.1759C35.0888 22.5474 35.0252 22.4651 35.0471 22.3807L39.0945 6.8113C39.8452 3.92363 36.1419 2.03911 34.2494 4.3457L10.6595 33.0959C9.16903 34.9124 10.4613 37.6444 12.8111 37.6444H25.3271Z" stroke="#7B3ACE" stroke-width="2.65"/>
</svg>