<svg xmlns="http://www.w3.org/2000/svg" width="75" height="78" viewBox="0 0 75 74" fill="none">
<path d="M22.6158 21.2588C20.1502 23.0038 19.5601 26.462 21.3036 28.9256C23.5225 32.061 23.8644 35.1498 23.8091 37.0978C23.7886 37.7877 23.12 39.7842 22.6226 40.7067L21.3104 43.1402C20.0114 45.5489 20.1891 48.4884 21.7684 50.72L31.8732 64.9981C32.7748 66.272 34.1964 66.9126 35.5386 67.005C36.8807 67.0975 38.1994 66.7255 39.2918 65.9771L39.3185 65.9582L56.3392 53.9124C56.3685 53.8886 56.4 53.8633 56.4299 53.8359C58.4477 52.1858 58.858 49.2187 57.3515 47.0901C56.9153 46.4737 56.1948 46.2836 55.5704 45.9329C57.2226 44.2456 57.7263 41.6719 56.3187 39.683C55.7225 38.8405 54.7903 38.495 53.882 38.1572C54.5387 36.61 54.6957 34.9016 53.6632 33.4427C53.2953 32.9229 52.6642 32.8329 52.1592 32.5027L57.7994 28.511C60.1335 26.8592 60.5813 23.5572 58.925 21.2169C57.2702 18.8787 54.0131 18.2111 51.679 19.8629L34.4159 32.0803C33.9966 29.7405 33.0938 26.5215 30.2932 22.5642C28.5497 20.1007 25.0794 19.5154 22.6158 21.2588ZM24.5556 23.9998C25.5439 23.3003 26.8555 23.5284 27.5477 24.5065C31.5494 30.1609 31.5029 35.0015 31.5029 35.0015C31.5037 35.6301 31.8514 36.2042 32.4105 36.4932C32.9661 36.7815 33.6387 36.7341 34.1503 36.372L53.6143 22.5971C54.3991 22.0417 55.5378 22.2257 56.1921 23.1503C56.8465 24.0749 56.6408 25.2134 55.8579 25.7675L42.3483 35.3284C41.6126 35.8706 41.4466 36.904 41.9744 37.6499C42.5037 38.3978 43.532 38.5828 44.2895 38.0714L48.6413 34.9916C49.3954 34.458 50.3951 34.6201 50.9303 35.3762C51.4639 36.1303 51.2901 37.1352 50.536 37.6689L44.1931 42.1579C43.439 42.6916 43.26 43.7372 43.7916 44.4927C44.3288 45.2474 45.3744 45.4264 46.1285 44.8927L51.298 41.2342C52.0521 40.7005 53.0451 40.8705 53.5788 41.6245C54.1125 42.3786 53.9468 43.3778 53.1928 43.9114L46.7225 48.4905C46.0397 49.0508 45.9046 50.0408 46.4136 50.7599C46.924 51.4811 47.9025 51.6829 48.658 51.2253L52.4238 48.5725C53.1717 48.1172 54.0999 48.3176 54.6059 49.0327C55.112 49.7477 54.9864 50.6815 54.3083 51.2354L37.3923 63.207C36.9406 63.5143 36.2955 63.6965 35.7707 63.6608C35.2445 63.6231 34.8938 63.4457 34.6175 63.0553L24.5127 48.7772C23.6679 47.5834 23.567 46.0204 24.267 44.7263L25.5768 42.3068C26.2999 40.9624 27.1069 39.0745 27.1602 37.202C27.2312 34.7402 26.7672 30.847 24.0379 26.9905C23.3458 26.0125 23.5683 24.7017 24.5566 24.0023L24.5556 23.9998Z" fill="#7B3ACE"/>
<path d="M15.2718 46.1855C13.5643 47.3939 13.3701 49.7948 14.5363 51.4426L28.1455 70.6725C29.3117 72.3203 31.6406 72.9357 33.348 71.7273L35.3143 70.3357C37.0218 69.1273 37.216 66.7264 36.0498 65.0785L22.4406 45.8487C21.2744 44.2008 18.9455 43.5855 17.2381 44.7939L15.2718 46.1855ZM17.213 48.9284L19.1793 47.5369C19.243 47.4918 19.4635 47.4591 19.6976 47.7899L33.3068 67.0197C33.5409 67.3506 33.4368 67.5476 33.3731 67.5927L31.4068 68.9843C31.3431 69.0294 31.1226 69.0621 30.8885 68.7312L17.2793 49.5014C17.0452 49.1706 17.1493 48.9735 17.213 48.9284Z" fill="#7B3ACE"/>
<path d="M28.5013 12.1942C28.1376 12.4516 27.8886 12.8406 27.8115 13.2806C27.7364 13.7192 27.8377 14.1717 28.0952 14.5354L30.8783 18.4681L30.8769 18.466C31.1343 18.8297 31.5274 19.0758 31.966 19.1509C32.4066 19.2245 32.8562 19.1191 33.2199 18.8617C33.9726 18.3259 34.1515 17.2803 33.6179 16.5262L30.8347 12.5936L30.8361 12.5956C30.3025 11.8416 29.2568 11.6626 28.5013 12.1942Z" fill="#7B3ACE"/>
<path d="M37.8942 10.3207C37.534 10.5787 37.292 10.9689 37.2191 11.406L36.4083 16.1428L36.4063 16.1443C36.3326 16.5849 36.436 17.036 36.6955 17.3982C36.9564 17.7625 37.348 18.0065 37.7907 18.0787C38.7015 18.2328 39.5645 17.6221 39.7242 16.7104L40.5291 11.9653C40.6782 11.0518 40.0633 10.1917 39.1525 10.0377C38.7125 9.96054 38.2599 10.0618 37.8942 10.3207Z" fill="#7B3ACE"/>
<path d="M41.9966 18.6406C41.633 18.898 41.3869 19.2911 41.3154 19.7303C41.2403 20.1689 41.3437 20.6199 41.6031 20.9822C42.1368 21.7363 43.1824 21.9153 43.938 21.3836L47.8541 18.6121C48.2178 18.3547 48.4668 17.9657 48.5419 17.5271C48.619 17.0871 48.5177 16.6346 48.2603 16.2709C48.005 15.9057 47.6104 15.6576 47.1704 15.5805C46.7297 15.5069 46.2751 15.6096 45.9129 15.8691L41.9966 18.6406Z" fill="#7B3ACE"/>
<svg xmlns="http://www.w3.org/2000/svg" width="75" height="85" viewBox="0 0 63 55" fill="none">
<path d="M61.6572 23.7122C61.6572 24.8231 61.5969 25.9199 61.4794 26.9995C59.8421 42.0455 47.0954 53.7556 31.6138 53.7556C15.0212 53.7556 1.57031 40.3047 1.57031 23.7122C1.57031 17.4671 3.47579 11.667 6.73707 6.86172C7.61351 5.61652 10.0329 2.5167 12.5235 1.37516" stroke="#CBA3FF" stroke-width="2" stroke-linecap="round"/>
</svg>
</svg>
