<svg xmlns="http://www.w3.org/2000/svg" width="143" height="42" viewBox="0 0 143 42" fill="none">
  <g clip-path="url(#clip0_1_654)">
    <path d="M137.358 41.3895H5.46788C2.72744 41.3895 0.496826 39.1963 0.496826 36.5115V5.03507C0.496826 2.34924 2.72744 0.164307 5.46788 0.164307H137.358C140.097 0.164307 142.407 2.34924 142.407 5.03507V36.5115C142.407 39.1963 140.097 41.3895 137.358 41.3895Z" fill="#AAAAAA"/>
    <path d="M141.389 36.5126C141.389 38.6934 139.588 40.4599 137.359 40.4599H5.46799C3.24053 40.4599 1.4325 38.6934 1.4325 36.5126V5.03401C1.4325 2.85423 3.24053 1.08154 5.46799 1.08154H137.358C139.588 1.08154 141.388 2.85423 141.388 5.03401L141.389 36.5126Z" fill="#2F1931"/>
    <path d="M32.1668 20.5542C32.1363 17.2325 34.9409 15.6165 35.0691 15.5412C33.4808 13.2708 31.0189 12.9605 30.1538 12.9358C28.0861 12.7225 26.0804 14.1489 25.0271 14.1489C23.9528 14.1489 22.3309 12.9564 20.5827 12.9915C18.3332 13.0255 16.2287 14.3024 15.0745 16.2854C12.6926 20.3285 14.4691 26.2701 16.7512 29.5382C17.8928 31.1388 19.2267 32.9259 20.9727 32.863C22.6809 32.794 23.319 31.7953 25.3803 31.7953C27.4228 31.7953 28.022 32.863 29.8027 32.8228C31.6359 32.794 32.7901 31.2151 33.8918 29.6001C35.211 27.7655 35.7408 25.9589 35.7618 25.8661C35.7187 25.8517 32.2015 24.5356 32.1668 20.5542Z" fill="white"/>
    <path d="M28.803 10.786C29.7217 9.65955 30.3503 8.127 30.1758 6.57178C28.8461 6.62949 27.1831 7.47358 26.2255 8.57532C25.3782 9.54618 24.6214 11.1375 24.8169 12.6339C26.3106 12.7432 27.8443 11.895 28.803 10.786Z" fill="white"/>
    <path d="M56.8874 32.6334H54.5002L53.1925 28.6046H48.6472L47.4016 32.6334H45.0774L49.5807 18.9177H52.3621L56.8874 32.6334ZM52.7983 26.9144L51.6158 23.3329C51.4907 22.9671 51.2563 22.1055 50.9104 20.7492H50.8684C50.7307 21.3325 50.5089 22.1941 50.204 23.3329L49.0425 26.9144H52.7983Z" fill="white"/>
    <path d="M68.4681 27.5667C68.4681 29.2487 68.0046 30.5782 67.0774 31.5542C66.247 32.423 65.2158 32.8569 63.9848 32.8569C62.6561 32.8569 61.7017 32.389 61.1204 31.4532H61.0783V36.663H58.8372V25.9991C58.8372 24.9417 58.8088 23.8564 58.7542 22.7433H60.7251L60.8502 24.3109H60.8923C61.6397 23.1298 62.7739 22.5403 64.296 22.5403C65.4859 22.5403 66.4793 23.001 67.274 23.9234C68.0708 24.8468 68.4681 26.0609 68.4681 27.5667ZM66.185 27.6471C66.185 26.6844 65.9642 25.8909 65.5206 25.2663C65.036 24.6149 64.3853 24.2893 63.5696 24.2893C63.0167 24.2893 62.5142 24.4707 62.0654 24.8283C61.6155 25.189 61.3211 25.66 61.1834 26.2433C61.1141 26.5154 61.0794 26.738 61.0794 26.9132V28.5623C61.0794 29.2816 61.3043 29.8887 61.7542 30.3844C62.2041 30.8801 62.7886 31.1275 63.5076 31.1275C64.3517 31.1275 65.0087 30.808 65.4786 30.1711C65.9495 29.5331 66.185 28.6921 66.185 27.6471Z" fill="white"/>
    <path d="M80.0705 27.5667C80.0705 29.2487 79.6069 30.5782 78.6787 31.5542C77.8493 32.423 76.8181 32.8569 75.5872 32.8569C74.2585 32.8569 73.304 32.389 72.7238 31.4532H72.6817V36.663H70.4406V25.9991C70.4406 24.9417 70.4122 23.8564 70.3575 22.7433H72.3285L72.4536 24.3109H72.4956C73.242 23.1298 74.3762 22.5403 75.8994 22.5403C77.0883 22.5403 78.0816 23.001 78.8784 23.9234C79.6721 24.8468 80.0705 26.0609 80.0705 27.5667ZM77.7873 27.6471C77.7873 26.6844 77.5655 25.8909 77.1219 25.2663C76.6373 24.6149 75.9887 24.2893 75.172 24.2893C74.618 24.2893 74.1166 24.4707 73.6667 24.8283C73.2168 25.189 72.9235 25.66 72.7858 26.2433C72.7174 26.5154 72.6817 26.738 72.6817 26.9132V28.5623C72.6817 29.2816 72.9067 29.8887 73.3545 30.3844C73.8044 30.8791 74.3888 31.1275 75.11 31.1275C75.9541 31.1275 76.611 30.808 77.0809 30.1711C77.5519 29.5331 77.7873 28.6921 77.7873 27.6471Z" fill="white"/>
    <path d="M93.042 28.7871C93.042 29.9538 92.6289 30.903 91.7995 31.6357C90.8881 32.4365 89.6193 32.8364 87.9889 32.8364C86.4836 32.8364 85.2769 32.552 84.3634 31.982L84.8827 30.1506C85.8666 30.7339 86.9462 31.0266 88.1224 31.0266C88.9665 31.0266 89.6235 30.8391 90.0955 30.466C90.5654 30.0929 90.7998 29.592 90.7998 28.9674C90.7998 28.4109 90.6064 27.942 90.2185 27.5617C89.8327 27.1814 89.1883 26.8279 88.2885 26.5011C85.8393 25.6055 84.6157 24.2935 84.6157 22.5683C84.6157 21.4408 85.0446 20.5163 85.9034 19.7969C86.7591 19.0765 87.9006 18.7168 89.3281 18.7168C90.6011 18.7168 91.6586 18.9343 92.5027 19.3682L91.9424 21.1594C91.1541 20.7389 90.2627 20.5286 89.2651 20.5286C88.4767 20.5286 87.8607 20.7193 87.4192 21.0986C87.046 21.4377 86.8589 21.8509 86.8589 22.3405C86.8589 22.8826 87.0723 23.3309 87.5012 23.6834C87.8744 24.0091 88.5524 24.3616 89.5363 24.7419C90.7399 25.217 91.6239 25.7725 92.1926 26.4094C92.7592 27.0443 93.042 27.8389 93.042 28.7871Z" fill="white"/>
    <path d="M100.452 24.3925H97.9819V29.1942C97.9819 30.4155 98.4171 31.0257 99.2896 31.0257C99.6901 31.0257 100.022 30.9917 100.285 30.9236L100.347 32.5922C99.9056 32.754 99.3243 32.8355 98.6042 32.8355C97.7191 32.8355 97.0274 32.5706 96.5281 32.0419C96.0309 31.5121 95.7807 30.6237 95.7807 29.3756V24.3905H94.3091V22.7415H95.7807V20.9307L97.9819 20.2793V22.7415H100.452V24.3925Z" fill="white"/>
    <path d="M111.597 27.6071C111.597 29.1272 111.154 30.3753 110.269 31.3513C109.341 32.3562 108.109 32.8571 106.573 32.8571C105.093 32.8571 103.914 32.3758 103.036 31.4132C102.157 30.4506 101.717 29.2354 101.717 27.7709C101.717 26.2384 102.169 24.9831 103.077 24.0071C103.982 23.03 105.203 22.5415 106.739 22.5415C108.219 22.5415 109.41 23.0228 110.309 23.9864C111.169 24.9212 111.597 26.1281 111.597 27.6071ZM109.272 27.6782C109.272 26.7661 109.074 25.9838 108.671 25.3314C108.201 24.542 107.529 24.1483 106.659 24.1483C105.758 24.1483 105.074 24.543 104.604 25.3314C104.201 25.9848 104.003 26.7795 104.003 27.7194C104.003 28.6315 104.201 29.4137 104.604 30.0651C105.089 30.8546 105.766 31.2483 106.639 31.2483C107.495 31.2483 108.166 30.8463 108.651 30.0445C109.064 29.3797 109.272 28.5892 109.272 27.6782Z" fill="white"/>
    <path d="M118.882 24.6757C118.661 24.6356 118.424 24.6149 118.176 24.6149C117.388 24.6149 116.778 24.9066 116.349 25.491C115.976 26.0063 115.789 26.6576 115.789 27.444V32.6332H113.549L113.57 25.8579C113.57 24.718 113.541 23.6802 113.486 22.7443H115.438L115.52 24.6366H115.582C115.818 23.9863 116.191 23.4627 116.702 23.07C117.202 22.7165 117.741 22.5403 118.322 22.5403C118.529 22.5403 118.716 22.5547 118.882 22.5805V24.6757Z" fill="white"/>
    <path d="M128.905 27.2204C128.905 27.6141 128.879 27.9459 128.823 28.217H122.1C122.126 29.194 122.451 29.9412 123.076 30.4565C123.642 30.9172 124.375 31.1481 125.275 31.1481C126.27 31.1481 127.178 30.9925 127.995 30.6802L128.346 32.2055C127.392 32.6137 126.265 32.8167 124.965 32.8167C123.4 32.8167 122.173 32.3653 121.279 31.4635C120.388 30.5617 119.941 29.3507 119.941 27.8315C119.941 26.3402 120.356 25.0983 121.188 24.1079C122.058 23.0504 123.234 22.5217 124.714 22.5217C126.168 22.5217 127.269 23.0504 128.016 24.1079C128.608 24.9478 128.905 25.9867 128.905 27.2204ZM126.768 26.6504C126.783 25.9991 126.637 25.4363 126.333 24.9612C125.945 24.3501 125.349 24.045 124.547 24.045C123.815 24.045 123.219 24.3429 122.763 24.9406C122.39 25.4157 122.168 25.9857 122.1 26.6494L126.768 26.6504Z" fill="white"/>
    <path d="M52.0575 10.4799C52.0575 11.6929 51.6864 12.606 50.9454 13.2193C50.2589 13.7851 49.2834 14.0685 48.0199 14.0685C47.3934 14.0685 46.8573 14.0417 46.4084 13.9881V7.36014C46.994 7.26738 47.6247 7.21997 48.3058 7.21997C49.5094 7.21997 50.4166 7.4766 51.0284 7.98985C51.7138 8.5701 52.0575 9.39975 52.0575 10.4799ZM50.896 10.5097C50.896 9.72337 50.6836 9.12045 50.2589 8.69995C49.8343 8.28049 49.2141 8.07024 48.3973 8.07024C48.0504 8.07024 47.755 8.09291 47.5101 8.14032V13.1791C47.6457 13.1997 47.8938 13.209 48.2543 13.209C49.0974 13.209 49.7481 12.9791 50.2064 12.5195C50.6647 12.0598 50.896 11.3899 50.896 10.5097Z" fill="white"/>
    <path d="M58.2167 11.5395C58.2167 12.2867 57.9991 12.8989 57.5639 13.3791C57.1077 13.8728 56.5033 14.1191 55.7485 14.1191C55.0211 14.1191 54.4419 13.8831 54.0099 13.409C53.5789 12.936 53.3634 12.3392 53.3634 11.6198C53.3634 10.8675 53.5852 10.2501 54.0309 9.77089C54.4766 9.29165 55.0758 9.05151 55.8305 9.05151C56.558 9.05151 57.1424 9.28753 57.585 9.76059C58.0054 10.2202 58.2167 10.8139 58.2167 11.5395ZM57.0741 11.5745C57.0741 11.1262 56.9753 10.7417 56.7787 10.4212C56.5474 10.0337 56.2184 9.83995 55.7906 9.83995C55.348 9.83995 55.0117 10.0337 54.7804 10.4212C54.5828 10.7417 54.485 11.1324 54.485 11.5941C54.485 12.0424 54.5838 12.4268 54.7804 12.7474C55.019 13.1349 55.3512 13.3286 55.7801 13.3286C56.2005 13.3286 56.5306 13.1318 56.7682 12.737C56.9721 12.4103 57.0741 12.0228 57.0741 11.5745Z" fill="white"/>
    <path d="M66.4743 9.15039L64.9238 14.0088H63.9146L63.2724 11.8991C63.1094 11.3724 62.977 10.8489 62.874 10.3294H62.854C62.7583 10.8633 62.6259 11.3858 62.4556 11.8991L61.7734 14.0088H60.7527L59.2947 9.15039H60.4268L60.9871 11.46C61.1227 12.0063 61.2341 12.5267 61.3235 13.0194H61.3434C61.4254 12.6133 61.561 12.0959 61.7523 11.4703L62.4556 9.15142H63.3533L64.0271 11.4209C64.19 11.9743 64.3225 12.5072 64.4245 13.0204H64.4549C64.5296 12.5206 64.6421 11.9877 64.7913 11.4209L65.3926 9.15142H66.4743V9.15039Z" fill="white"/>
    <path d="M72.1857 14.0088H71.084V11.2261C71.084 10.3686 70.7518 9.93983 70.0854 9.93983C69.7585 9.93983 69.4946 10.0573 69.2896 10.2933C69.0868 10.5294 68.9837 10.8076 68.9837 11.1261V14.0077H67.8821V10.5386C67.8821 10.112 67.8684 9.6492 67.8422 9.14831H68.8103L68.8618 9.90789H68.8923C69.0205 9.67187 69.2119 9.47708 69.4631 9.32146C69.7616 9.14007 70.0959 9.04834 70.4617 9.04834C70.9242 9.04834 71.309 9.19469 71.6149 9.48842C71.9954 9.84811 72.1857 10.3851 72.1857 11.0983V14.0088Z" fill="white"/>
    <path d="M75.2234 14.0088H74.1228V6.92114H75.2234V14.0088Z" fill="white"/>
    <path d="M81.7094 11.5395C81.7094 12.2867 81.4918 12.8989 81.0566 13.3791C80.6004 13.8728 79.9949 14.1191 79.2412 14.1191C78.5128 14.1191 77.9335 13.8831 77.5026 13.409C77.0716 12.936 76.8561 12.3392 76.8561 11.6198C76.8561 10.8675 77.0779 10.2501 77.5236 9.77089C77.9693 9.29165 78.5685 9.05151 79.3222 9.05151C80.0506 9.05151 80.634 9.28753 81.0776 9.76059C81.4981 10.2202 81.7094 10.8139 81.7094 11.5395ZM80.5657 11.5745C80.5657 11.1262 80.4669 10.7417 80.2703 10.4212C80.0401 10.0337 79.71 9.83995 79.2833 9.83995C78.8397 9.83995 78.5033 10.0337 78.2731 10.4212C78.0755 10.7417 77.9777 11.1324 77.9777 11.5941C77.9777 12.0424 78.0765 12.4268 78.2731 12.7474C78.5117 13.1349 78.8439 13.3286 79.2728 13.3286C79.6932 13.3286 80.0222 13.1318 80.2598 12.737C80.4648 12.4103 80.5657 12.0228 80.5657 11.5745Z" fill="white"/>
    <path d="M87.041 14.0088H86.0518L85.9698 13.4492H85.9393C85.6009 13.8955 85.1184 14.1191 84.4919 14.1191C84.0241 14.1191 83.6457 13.9717 83.3608 13.679C83.1022 13.4131 82.9729 13.0823 82.9729 12.6896C82.9729 12.096 83.2252 11.6435 83.7329 11.3302C84.2396 11.0169 84.9523 10.8634 85.87 10.8706V10.7799C85.87 10.1399 85.5273 9.82036 84.8409 9.82036C84.3521 9.82036 83.9211 9.94095 83.549 10.1801L83.325 9.47098C83.7855 9.19168 84.3542 9.05151 85.0248 9.05151C86.3199 9.05151 86.9695 9.72142 86.9695 11.0612V12.8504C86.9695 13.3358 86.9937 13.7223 87.041 14.0088ZM85.8973 12.3392V11.59C84.6821 11.5693 84.0745 11.8961 84.0745 12.5691C84.0745 12.8226 84.1439 13.0122 84.2858 13.139C84.4277 13.2658 84.6085 13.3286 84.824 13.3286C85.0658 13.3286 85.2918 13.2534 85.4978 13.104C85.7049 12.9535 85.8321 12.7628 85.8794 12.5289C85.891 12.4763 85.8973 12.4124 85.8973 12.3392Z" fill="white"/>
    <path d="M93.301 14.0088H92.3234L92.2719 13.2286H92.2414C91.9292 13.8222 91.3973 14.1191 90.6499 14.1191C90.0528 14.1191 89.5556 13.8892 89.1614 13.4296C88.7672 12.9699 88.5707 12.3732 88.5707 11.6404C88.5707 10.854 88.7841 10.2171 89.213 9.73064C89.6282 9.27716 90.1369 9.05042 90.7424 9.05042C91.4078 9.05042 91.8735 9.26995 92.1384 9.71003H92.1594V6.92114H93.2621V12.6999C93.2621 13.1729 93.2747 13.6089 93.301 14.0088ZM92.1594 11.9599V11.1498C92.1594 11.0097 92.1489 10.8963 92.1289 10.8097C92.0669 10.55 91.9334 10.3315 91.7305 10.1553C91.5256 9.97902 91.2785 9.89039 90.9937 9.89039C90.5826 9.89039 90.261 10.0501 90.0245 10.3707C89.79 10.6912 89.6713 11.1003 89.6713 11.6002C89.6713 12.0805 89.7837 12.4701 90.0097 12.77C90.2484 13.0895 90.57 13.2492 90.9726 13.2492C91.3342 13.2492 91.6233 13.1163 91.843 12.8493C92.0554 12.603 92.1594 12.3062 92.1594 11.9599Z" fill="white"/>
    <path d="M102.722 11.5395C102.722 12.2867 102.505 12.8989 102.07 13.3791C101.613 13.8728 101.01 14.1191 100.254 14.1191C99.5279 14.1191 98.9487 13.8831 98.5156 13.409C98.0846 12.936 97.8691 12.3392 97.8691 11.6198C97.8691 10.8675 98.0909 10.2501 98.5366 9.77089C98.9823 9.29165 99.5815 9.05151 100.337 9.05151C101.064 9.05151 101.649 9.28753 102.091 9.76059C102.511 10.2202 102.722 10.8139 102.722 11.5395ZM101.581 11.5745C101.581 11.1262 101.482 10.7417 101.285 10.4212C101.053 10.0337 100.725 9.83995 100.296 9.83995C99.8548 9.83995 99.5184 10.0337 99.2861 10.4212C99.0885 10.7417 98.9908 11.1324 98.9908 11.5941C98.9908 12.0424 99.0896 12.4268 99.2861 12.7474C99.5248 13.1349 99.8569 13.3286 100.286 13.3286C100.706 13.3286 101.037 13.1318 101.275 12.737C101.478 12.4103 101.581 12.0228 101.581 11.5745Z" fill="white"/>
    <path d="M108.646 14.0088H107.546V11.2261C107.546 10.3686 107.213 9.93983 106.546 9.93983C106.219 9.93983 105.955 10.0573 105.751 10.2933C105.547 10.5294 105.445 10.8076 105.445 11.1261V14.0077H104.343V10.5386C104.343 10.112 104.33 9.6492 104.304 9.14831H105.271L105.322 9.90789H105.353C105.482 9.67187 105.673 9.47708 105.924 9.32146C106.223 9.14007 106.556 9.04834 106.923 9.04834C107.385 9.04834 107.769 9.19469 108.075 9.48842C108.457 9.84811 108.646 10.3851 108.646 11.0983V14.0088Z" fill="white"/>
    <path d="M116.06 9.95943H114.847V12.3196C114.847 12.9194 115.063 13.2193 115.489 13.2193C115.687 13.2193 115.851 13.2028 115.98 13.1688L116.009 13.9882C115.791 14.0686 115.505 14.1088 115.153 14.1088C114.718 14.1088 114.379 13.9789 114.134 13.7192C113.888 13.4595 113.766 13.0225 113.766 12.4092V9.95943H113.042V9.15039H113.766V8.25992L114.846 7.94043V9.14936H116.059L116.06 9.95943Z" fill="white"/>
    <path d="M121.892 14.0088H120.789V11.2467C120.789 10.3758 120.457 9.93986 119.792 9.93986C119.281 9.93986 118.932 10.1924 118.74 10.6974C118.708 10.8035 118.689 10.9334 118.689 11.0859V14.0078H117.588V6.92114H118.689V9.84916H118.71C119.057 9.31633 119.554 9.05042 120.198 9.05042C120.655 9.05042 121.032 9.19677 121.332 9.4905C121.705 9.85638 121.892 10.4005 121.892 11.1199V14.0088Z" fill="white"/>
    <path d="M127.907 11.3498C127.907 11.5436 127.893 11.7064 127.866 11.8394H124.563C124.577 12.3196 124.735 12.6855 125.041 12.939C125.321 13.1658 125.681 13.2792 126.123 13.2792C126.611 13.2792 127.057 13.2029 127.459 13.0493L127.631 13.7996C127.161 13.9996 126.608 14.0995 125.968 14.0995C125.201 14.0995 124.596 13.878 124.159 13.4348C123.72 12.9916 123.502 12.3969 123.502 11.6508C123.502 10.918 123.705 10.3078 124.114 9.82139C124.541 9.30195 125.118 9.04224 125.846 9.04224C126.559 9.04224 127.1 9.30195 127.466 9.82139C127.761 10.2336 127.907 10.7438 127.907 11.3498ZM126.856 11.0705C126.865 10.75 126.792 10.4738 126.643 10.2409C126.452 9.94095 126.16 9.79047 125.766 9.79047C125.407 9.79047 125.113 9.93682 124.89 10.2306C124.707 10.4645 124.598 10.7438 124.563 11.0705H126.856Z" fill="white"/>
  </g>
  <defs>
    <clipPath id="clip0_1_654">
      <rect width="141.91" height="41.2252" fill="white" transform="translate(0.496826 0.164307)"/>
    </clipPath>
  </defs>
</svg>