<svg width="139" height="42" viewBox="0 0 139 42" fill="none" xmlns="http://www.w3.org/2000/svg">
<g clip-path="url(#clip0_1_686)">
<path d="M133.593 0.164307H5.86558C3.04389 0.164307 0.75647 2.47145 0.75647 5.31746V36.2364C0.75647 39.0824 3.04389 41.3895 5.86558 41.3895H133.593C136.415 41.3895 138.702 39.0824 138.702 36.2364V5.31746C138.702 2.47145 136.415 0.164307 133.593 0.164307Z" fill="#2F1931"/>
<path d="M133.593 0.988811C135.964 0.988811 137.885 2.9264 137.885 5.31746V36.2364C137.885 38.6274 135.964 40.565 133.593 40.565H5.86558C3.49495 40.565 1.57393 38.6274 1.57393 36.2364V5.31746C1.57393 2.9264 3.49495 0.988811 5.86558 0.988811H133.593ZM133.593 0.164307H5.86558C3.05557 0.164307 0.75647 2.48322 0.75647 5.31746V36.2364C0.75647 39.0706 3.05557 41.3895 5.86558 41.3895H133.593C136.403 41.3895 138.702 39.0706 138.702 36.2364V5.31746C138.702 2.48322 136.403 0.164307 133.593 0.164307Z" fill="#AAAAAA"/>
<path d="M21.9285 20.1793L11.0461 31.8254C11.3833 33.093 12.5278 34.0206 13.8868 34.0206C14.4284 34.0206 14.9393 33.8763 15.3787 33.6084L15.4093 33.5878L27.6507 26.4661L21.9183 20.1689L21.9285 20.1793Z" fill="#D75532"/>
<path d="M32.9336 18.2003H32.9234L27.6406 15.0981L21.6833 20.4471L27.661 26.4763L32.9234 23.4153C33.843 22.9103 34.4663 21.9312 34.4663 20.8078C34.4663 19.6844 33.8532 18.7054 32.9336 18.2106V18.2003Z" fill="#FFCC32"/>
<path d="M11.0463 9.72852C10.985 9.97587 10.9441 10.2232 10.9441 10.4912V31.0729C10.9441 31.3408 10.9747 31.5882 11.0463 31.8355L22.2965 20.4883L11.0463 9.72852Z" fill="#0075BC"/>
<path d="M22.0103 20.7769L27.6405 15.0981L15.4093 7.94551C14.9699 7.67754 14.4488 7.52295 13.8868 7.52295C12.5278 7.52295 11.3833 8.46082 11.0461 9.71819L22.0103 20.7665V20.7769Z" fill="#00A176"/>
<path d="M49.2111 10.7181C49.2111 11.5838 48.9557 12.2743 48.4448 12.7794C47.8725 13.3874 47.1164 13.6966 46.1968 13.6966C45.2771 13.6966 44.5618 13.3874 43.9385 12.7691C43.3152 12.1507 43.0087 11.3777 43.0087 10.4707C43.0087 9.56379 43.3152 8.79082 43.9385 8.17244C44.5618 7.55406 45.3078 7.24487 46.1968 7.24487C46.6361 7.24487 47.0551 7.32732 47.4536 7.50253C47.8521 7.67774 48.1689 7.90448 48.4141 8.19305L47.8725 8.73929C47.4638 8.25489 46.912 8.00754 46.1968 8.00754C45.553 8.00754 44.991 8.23428 44.521 8.69806C44.0509 9.15154 43.8159 9.7493 43.8159 10.4811C43.8159 11.2128 44.0509 11.8106 44.521 12.264C44.991 12.7175 45.553 12.9546 46.1968 12.9546C46.8814 12.9546 47.4536 12.7278 47.9134 12.264C48.2097 11.9652 48.3835 11.5426 48.4243 11.0067H46.1968V10.2646H49.1703C49.2009 10.4295 49.2111 10.5841 49.2111 10.7284V10.7181Z" fill="white" stroke="white" stroke-width="0.158558" stroke-miterlimit="10"/>
<path d="M53.9217 8.14133H51.1321V10.0995H53.6458V10.8416H51.1321V12.7998H53.9217V13.5624H50.3453V7.37866H53.9217V8.14133Z" fill="white" stroke="white" stroke-width="0.158558" stroke-miterlimit="10"/>
<path d="M57.2426 13.5624H56.4558V8.14133H54.7391V7.37866H58.949V8.14133H57.2324V13.5624H57.2426Z" fill="white" stroke="white" stroke-width="0.158558" stroke-miterlimit="10"/>
<path d="M62.0045 13.5624V7.37866H62.7913V13.5624H62.0045Z" fill="white" stroke="white" stroke-width="0.158558" stroke-miterlimit="10"/>
<path d="M66.2856 13.5624H65.4988V8.14133H63.7821V7.37866H67.992V8.14133H66.2754V13.5624H66.2856Z" fill="white" stroke="white" stroke-width="0.158558" stroke-miterlimit="10"/>
<path d="M75.9726 12.7587C75.3697 13.3874 74.6238 13.6966 73.7246 13.6966C72.8254 13.6966 72.0795 13.3874 71.4766 12.7587C70.8737 12.1301 70.5774 11.3674 70.5774 10.4707C70.5774 9.5741 70.8737 8.80113 71.4766 8.18275C72.0795 7.55406 72.8254 7.24487 73.7246 7.24487C74.6238 7.24487 75.3595 7.55406 75.9726 8.18275C76.5755 8.81143 76.882 9.5741 76.882 10.4707C76.882 11.3674 76.5755 12.1404 75.9828 12.7587H75.9726ZM72.059 12.2434C72.5086 12.7072 73.0706 12.934 73.7246 12.934C74.3786 12.934 74.9406 12.7072 75.3902 12.2434C75.8398 11.7796 76.0748 11.1922 76.0748 10.4707C76.0748 9.7493 75.85 9.16185 75.3902 8.69806C74.9406 8.23428 74.3786 8.00754 73.7246 8.00754C73.0706 8.00754 72.5086 8.23428 72.059 8.69806C71.6094 9.16185 71.3744 9.7493 71.3744 10.4707C71.3744 11.1922 71.5992 11.7796 72.059 12.2434Z" fill="white" stroke="white" stroke-width="0.158558" stroke-miterlimit="10"/>
<path d="M77.9858 13.5624V7.37866H78.9463L81.9301 12.1917H81.9607L81.9301 10.9962V7.37866H82.7169V13.5624H81.8994L78.7829 8.52266H78.7522L78.7829 9.71819V13.5727H77.9961L77.9858 13.5624Z" fill="white" stroke="white" stroke-width="0.158558" stroke-miterlimit="10"/>
<path d="M70.383 22.5806C67.9818 22.5806 66.0199 24.4254 66.0199 26.9608C66.0199 29.4961 67.9818 31.3409 70.383 31.3409C72.7843 31.3409 74.7462 29.4858 74.7462 26.9608C74.7462 24.4357 72.7843 22.5806 70.383 22.5806ZM70.383 29.6198C69.0649 29.6198 67.9307 28.5273 67.9307 26.9608C67.9307 25.3942 69.0649 24.3017 70.383 24.3017C71.7012 24.3017 72.8354 25.3839 72.8354 26.9608C72.8354 28.5376 71.7012 29.6198 70.383 29.6198ZM60.8699 22.5806C58.4686 22.5806 56.5067 24.4254 56.5067 26.9608C56.5067 29.4961 58.4686 31.3409 60.8699 31.3409C63.2712 31.3409 65.2331 29.4858 65.2331 26.9608C65.2331 24.4357 63.2712 22.5806 60.8699 22.5806ZM60.8699 29.6198C59.5517 29.6198 58.4175 28.5273 58.4175 26.9608C58.4175 25.3942 59.5517 24.3017 60.8699 24.3017C62.188 24.3017 63.3223 25.3839 63.3223 26.9608C63.3223 28.5376 62.188 29.6198 60.8699 29.6198ZM49.5481 23.9204V25.7755H53.9624C53.8295 26.8268 53.4821 27.5894 52.961 28.1151C52.3172 28.7644 51.3159 29.4755 49.5583 29.4755C46.8403 29.4755 44.7149 27.27 44.7149 24.5285C44.7149 21.787 46.8403 19.5815 49.5583 19.5815C51.0195 19.5815 52.0924 20.1586 52.8792 20.911L54.177 19.6021C53.0734 18.5405 51.6122 17.7263 49.5481 17.7263C45.8287 17.7263 42.7019 20.777 42.7019 24.5388C42.7019 28.3006 45.8287 31.3512 49.5481 31.3512C51.5611 31.3512 53.0734 30.6916 54.2587 29.4446C55.4747 28.2181 55.8527 26.4867 55.8527 25.0953C55.8527 24.6625 55.8221 24.2605 55.7506 23.9307H49.5481V23.9204ZM95.8468 25.3633C95.4892 24.3842 94.3856 22.5703 92.1274 22.5703C89.8692 22.5703 88.0299 24.343 88.0299 26.9505C88.0299 29.4034 89.8692 31.3306 92.342 31.3306C94.3345 31.3306 95.4892 30.1042 95.9592 29.3931L94.4776 28.3933C93.9871 29.1251 93.3127 29.6095 92.342 29.6095C91.3713 29.6095 90.6764 29.156 90.237 28.28L96.0512 25.858L95.8571 25.3633H95.8468ZM89.9203 26.8268C89.8692 25.1365 91.218 24.2708 92.1887 24.2708C92.9449 24.2708 93.5886 24.6522 93.8032 25.1984L89.9203 26.8268ZM85.1995 31.073H87.1103V18.1901H85.1995V31.073ZM82.0727 23.5494H82.0114C81.5822 23.0341 80.7648 22.5703 79.7225 22.5703C77.546 22.5703 75.5535 24.4976 75.5535 26.9711C75.5535 29.4446 77.546 31.3409 79.7225 31.3409C80.7648 31.3409 81.5822 30.8772 82.0114 30.3412H82.0727V30.9699C82.0727 32.6498 81.1837 33.5465 79.7531 33.5465C78.5883 33.5465 77.8628 32.7014 77.5664 31.9902L75.9009 32.6911C76.3811 33.8557 77.6482 35.2779 79.7531 35.2779C81.9909 35.2779 83.8813 33.9484 83.8813 30.7123V22.8382H82.0727V23.5494ZM79.886 29.6095C78.5678 29.6095 77.4643 28.4964 77.4643 26.9711C77.4643 25.4457 78.5678 24.3017 79.886 24.3017C81.2041 24.3017 82.2055 25.4354 82.2055 26.9711C82.2055 28.5067 81.1837 29.6095 79.886 29.6095ZM104.798 18.1901H100.23V31.073H102.141V26.1878H104.808C106.923 26.1878 108.998 24.6418 108.998 22.1889C108.998 19.736 106.923 18.1901 104.808 18.1901H104.798ZM104.849 24.4048H102.141V19.9834H104.849C106.28 19.9834 107.087 21.1789 107.087 22.1889C107.087 23.199 106.28 24.3945 104.849 24.3945V24.4048ZM116.631 22.5497C115.251 22.5497 113.821 23.168 113.228 24.5182L114.924 25.2293C115.282 24.5182 115.956 24.2811 116.661 24.2811C117.642 24.2811 118.654 24.8789 118.664 25.9404V26.0744C118.317 25.8786 117.581 25.5797 116.672 25.5797C114.842 25.5797 112.993 26.5897 112.993 28.4758C112.993 30.1969 114.485 31.31 116.161 31.31C117.438 31.31 118.153 30.7329 118.593 30.0527H118.654V31.0524H120.493V26.1156C120.493 23.8276 118.797 22.5497 116.61 22.5497H116.631ZM116.396 29.6095C115.772 29.6095 114.904 29.29 114.904 28.517C114.904 27.5276 115.987 27.1463 116.927 27.1463C117.765 27.1463 118.163 27.3318 118.664 27.5791C118.521 28.7747 117.499 29.6198 116.396 29.6198V29.6095ZM127.207 22.8279L125.02 28.414H124.959L122.69 22.8279H120.636L124.039 30.6401L122.097 34.9791H124.09L129.332 22.8279H127.217H127.207ZM110.03 31.073H111.941V18.1901H110.03V31.073Z" fill="white"/>
</g>
<defs>
<clipPath id="clip0_1_686">
<rect width="137.946" height="41.2252" fill="white" transform="translate(0.756592 0.164307)"/>
</clipPath>
</defs>
</svg>
